<svg version="1.1" xmlns="http://www.w3.org/2000/svg" xmlns:xlink="http://www.w3.org/1999/xlink" width="878" height="1127"><defs/><g><g/><g/><g/><g/><g/><g/><g/><g/><g/><g/><g/><g/><g/><g/><g/><g/><g/><g/><g/><g/><g/><g><rect fill="white" stroke="none" x="0" y="0" width="878" height="1127"/></g><g><text fill="black" stroke="none" font-family="sans-serif" font-size="16.5pt" font-style="normal" font-weight="normal" text-decoration="normal" x="362.9948636704996" y="26.3876361" text-anchor="start" dominant-baseline="alphabetic">OPAQUE Login</text></g><g/><g><path fill="none" stroke="black" paint-order="fill stroke markers" d=" M 43.9793935 138.798965886 L 43.9793935 1127.4557317659999" stroke-miterlimit="10" stroke-width="1.4659797833333332" stroke-dasharray="13.532121076923076,5.863919133333333"/><path fill="none" stroke="black" paint-order="fill stroke markers" d=" M 211.99074504078777 138.798965886 L 211.99074504078777 1127.4557317659999" stroke-miterlimit="10" stroke-width="1.4659797833333332" stroke-dasharray="13.532121076923076,5.863919133333333"/><path fill="none" stroke="black" paint-order="fill stroke markers" d=" M 548.6158276361002 138.798965886 L 548.6158276361002 1127.4557317659999" stroke-miterlimit="10" stroke-width="1.4659797833333332" stroke-dasharray="13.532121076923076,5.863919133333333"/><path fill="none" stroke="black" paint-order="fill stroke markers" d=" M 809.3605089498371 138.798965886 L 809.3605089498371 1127.4557317659999" stroke-miterlimit="10" stroke-width="1.4659797833333332" stroke-dasharray="13.532121076923076,5.863919133333333"/></g><g><g><path fill="white" stroke="black" paint-order="fill stroke markers" d=" M 18.295427696000004 104.31912138199999 L 18.295427696000004 67.37643084199999 L 69.663359304 67.37643084199999 L 69.663359304 104.31912138199999" stroke-miterlimit="10" stroke-width="2.990598758" stroke-dasharray=""/><path fill="white" stroke="black" paint-order="fill stroke markers" d=" M 69.663359304 66.0922325518 L 69.66207511641142 66.20833621555636 L 69.65822268206335 66.3244282690431 L 69.65180238619604 66.4404971031516 L 69.6428148708337 66.5565311110952 L 69.63126103472041 66.67251868956978 L 69.61714203323012 66.78844823991415 L 69.60045927825122 66.9043081692699 L 69.58121443804532 67.0200868917406 L 69.5594094370804 67.13577282955055 L 69.53504645583837 67.25135441420231 L 69.50812793059707 67.36682008763378 L 69.47865655318658 67.48215830337381 L 69.4466352707201 67.59735752769696 L 69.41206728529917 67.71240624077679 L 69.37495605369352 67.82729293783784 L 69.33530528699542 67.94200613030618 L 69.29311895024847 68.05653434695814 L 69.24840126205119 68.1708661350675 L 69.20115669413514 68.28499006155073 L 69.15138997091775 68.39889471411026 L 69.09910606902986 68.51256870237577 L 69.04431021681809 68.62600065904317 L 68.987007893822 68.73917924101131 L 68.92720483022613 68.85209313051632 L 68.86490700628703 68.96473103626333 L 68.80012065173514 69.07708169455563 L 68.73285224515196 69.18913387042103 L 68.66310851332207 69.3008763587353 L 68.59089643056055 69.41229798534273 L 68.51622321801548 69.52338760817354 L 68.4390963429459 69.63413411835798 L 68.35952351797505 69.74452644133734 L 68.27751270031911 69.85455353797133 L 68.1930720909915 69.96420440564195 L 68.10621013398278 70.07346807935382 L 68.0169355154163 70.18233363283062 L 67.92525716267947 70.29079017960771 L 67.83118424353121 70.39882687412083 L 67.73472616518501 70.50643291279052 L 67.63589257336835 70.6135975351026 L 67.53469335135802 70.72031002468414 L 67.43113861899192 70.82655971037511 L 67.32523873165697 70.93233596729549 L 67.21700427925366 71.03762821790771 L 67.10644608513704 71.14242593307448 L 66.99357520503438 71.2467186331116 L 66.87840292593964 71.35049588883598 L 66.76094076498475 71.45374732260854 L 66.64120046828792 71.55646260937192 L 66.51919400977904 71.65863147768304 L 66.39493359000228 71.76024371074024 L 66.26843163489609 71.86128914740488 L 66.13970079455054 71.96175768321748 L 66.00875394194239 72.0616392714082 L 65.87560417164778 72.16092392390144 L 65.74026479853279 72.25960171231469 L 65.60274935642195 72.35766276895136 L 65.46307159674488 72.45509728778748 L 65.32124548716112 72.55189552545237 L 65.17728521016349 72.64804780220294 L 65.03120516165967 72.74354450289161 L 64.88301994953281 72.83837607792793 L 64.73274439218062 72.93253304423341 L 64.58039351703363 73.02600598618986 L 64.42598255905237 73.118785556581 L 64.26952695920397 73.21086247752712 L 64.11104236291804 73.30222754141282 L 63.95054461852213 73.39287161180788 L 63.788049775656944 73.48278562438078 L 63.62357408367136 73.5719605878052 L 63.457133989997494 73.66038758465909 L 63.28874613850603 73.74805777231649 L 63.118427367841775 73.83496238383165 L 62.94619470973989 73.92109272881588 L 62.77206538732264 74.00644019430642 L 62.596056813377174 74.09099624562788 L 62.4181865886142 74.17475242724555 L 62.23847249990798 74.2577003636111 L 62.056932518517606 74.33983176 L 61.873584798289954 74.42113840334106 L 61.68844767384425 74.50161216303769 L 61.50153965873865 74.58124499178099 L 61.312879443618925 74.66002892635444 L 61.12248589434935 74.73795608843025 L 60.930378050126215 74.81501868535715 L 60.736575121573836 74.89120901093965 L 60.54109648882357 74.9665194462087 L 60.34396169957579 75.0409424601835 L 60.145190467145156 75.11447061062472 L 59.94480266848926 75.18709654477856 L 59.74281834222097 75.25881300011211 L 59.539257686604614 75.32961280503964 L 59.334141057536094 75.39948887963963 L 59.12748896650741 75.46843423636287 L 58.91932207855544 75.53644198073111 L 58.70966121019552 75.60350531202661 L 58.49852732733976 75.66961752397214 L 58.2859415432005 75.73477200540155 L 58.07192511617901 75.79896224092104 L 57.85649944773964 75.86218181156053 L 57.6396860802697 75.92442439541566 L 57.421506694925284 75.98568376827987 L 57.20198310946309 76.04595380426694 L 56.981137276058746 76.10522847642352 L 56.75899127911155 76.16350185733178 L 56.53556733303606 76.22076811970217 L 56.310887780040716 76.27702153695618 L 56.08497508789358 76.33225648379899 L 55.857851847675605 76.38646743678191 L 55.62954077152154 76.43964897485485 L 55.400064690348756 76.49179577990829 L 55.169446551574126 76.54290263730519 L 54.937709416819345 76.59296443640241 L 54.70487645960479 76.64197617106174 L 54.470970963032144 76.68993294015058 L 54.236016317456155 76.73682994803197 L 54.000036018145565 76.7826625050442 L 53.76305366293368 76.82742602796976 L 53.52509294985852 76.87111604049369 L 53.286177674793095 76.91372817365111 L 53.04633172906581 76.95525816626423 L 52.80557909707139 76.99570186536839 L 52.56394385387239 77.03505522662739 L 52.32145016279176 77.0733143147379 L 52.07812227299655 77.11047530382298 L 51.83398451707296 77.1465344778147 L 51.58906130859313 77.1814882308257 L 51.34337713967381 77.21533306750982 L 51.096956578527156 77.24806560341159 L 50.84982426700394 77.2796825653047 L 50.60200491812935 77.31018079151929 L 50.353523313631776 77.33955723225817 L 50.1044043014646 77.36780894990176 L 49.854672793321434 77.3949331193018 L 49.60435376214498 77.42092702806399 L 49.353472239629774 77.44578807681908 L 49.10205331371898 77.46951377948295 L 48.850122126095684 77.49210176350509 L 48.597703869668706 77.51354977010593 L 48.34482378605334 77.53385565450264 L 48.09150716304722 77.55301738612376 L 47.83777933210154 77.57103304881205 L 47.58366566578796 77.58790084101629 L 47.329191575261355 77.6036190759713 L 47.07438250771872 77.61818618186668 L 46.81926394385445 77.63160070200398 L 46.563861395312344 77.64386129494237 L 46.30820040213443 77.65496673463277 L 46.05230653020697 77.66491591054046 L 45.7962053687039 77.67370782775615 L 45.53992252752798 77.68134160709545 L 45.283483634749736 77.68781648518677 L 45.026914334044754 77.6931318145477 L 44.77024028212929 77.69728706364975 L 44.51348714619466 77.70028181697145 L 44.25668060134049 77.70211577504 L 43.99984632800726 77.70278875446107 L 43.743010009408266 77.70230068793732 L 43.486197328961346 77.70065162427498 L 43.22943396772053 77.69784172837903 L 42.972745601807986 77.69387128123674 L 42.71615789984639 77.68874067988952 L 42.459696520392114 77.68245043739319 L 42.20338710936939 77.6750011827668 L 41.94725529750573 77.66639366092959 L 41.69132669776887 77.65662873262656 L 41.435626902805524 77.64570737434241 L 41.180181482382096 77.63363067820387 L 40.925015980827766 77.6203998518705 L 40.67015591448004 77.60601621841388 L 40.415626769133176 77.59048121618541 L 40.16145399748961 77.57379639867233 L 39.907663016614684 77.5559634343425 L 39.65427920539501 77.53698410647749 L 39.40132790200053 77.51686031299428 L 39.14883440135082 77.49559406625544 L 38.896823952585514 77.47318749286792 L 38.645321756539495 77.44964283347039 L 38.39435296322277 77.42496244250918 L 38.143942669305545 77.3991487880028 L 37.89411591560853 77.3722044512952 L 37.64489768459891 77.3441321267976 L 37.396312897892095 77.31493462171906 L 37.14838641375961 77.28461485578573 L 36.90114302464326 77.25317586094897 L 36.654607454675926 77.22062078108203 L 36.40880435720915 77.18695287166581 L 36.16375831234786 77.15217549946317 L 35.91949382449232 77.11629214218235 L 35.676035319887774 77.07930638812917 L 35.43340714418179 77.04122193584823 L 35.19163355998977 77.002042593753 L 34.95073874446863 76.96177227974506 L 34.71074678689919 76.92041502082225 L 34.47168168627722 76.87797495267598 L 34.23356734891355 76.83445631927773 L 33.9964275860435 76.78986347245454 L 33.76028611144573 76.74420087145396 L 33.52516653907092 76.69747308249802 L 33.29109238068039 76.64968477832667 L 33.05808704349489 76.60084073773052 L 32.82617382785399 76.55094584507293 L 32.59537592488599 76.50000508980158 L 32.36571641418885 76.44802356594954 L 32.13721826152226 76.39500647162588 L 31.909904316511064 76.34095910849587 L 31.683797310360347 76.28588688125075 L 31.458919853582298 76.22979529706737 L 31.2352944337352 76.1726899650574 L 31.012943413174675 76.11457659570647 L 30.791889026817497 76.05546100030305 L 30.572153379918085 75.99534909035746 L 30.35375844585802 75.9342468770106 L 30.136726063948714 75.87216047043285 L 29.92107793724749 75.80909607921315 L 29.70683563038732 75.74506000973807 L 29.49402056742035 75.6800586655612 L 29.282654029675534 75.61409854676278 L 29.072757153630512 75.54718624929973 L 28.864350928797972 75.47932846434601 L 28.65745619562672 75.4105319776236 L 28.452093643417673 75.34080366872384 L 28.248283808254904 75.2701505104195 L 28.046047070952103 75.19857956796754 L 27.845403655014458 75.12609799840256 L 27.646373624616363 75.05271304982111 L 27.448976882595 74.9784320606569 L 27.25323316846008 74.90326245894695 L 27.059162056419897 74.82721176158879 L 26.866782953423918 74.75028757358876 L 26.67611509722214 74.67249758730159 L 26.487177554441292 74.59384958166106 L 26.299989218678196 74.51435142140221 L 26.114568808610446 74.4340110562748 L 25.930934866124534 74.3528365202484 L 25.74910575446167 74.27083593070897 L 25.56909965638151 74.18801748764713 L 25.39093457234385 74.10438947283818 L 25.214628318708623 74.01996024901389 L 25.040198525954274 73.9347382590263 L 24.86766263691472 73.84873202500339 L 24.697037905035085 73.76195014749688 L 24.52834139264637 73.67440130462221 L 24.36158996925924 73.58609425119072 L 24.19680030987706 73.49703781783415 L 24.03398889332846 73.40724091012163 L 23.873172000619405 73.3167125076691 L 23.714365713305163 73.22546166324135 L 23.55758591188212 73.1334975018468 L 23.40284827419978 73.04082921982494 L 23.25016827389295 72.94746608392677 L 23.099561178834435 72.85341743038806 L 22.951042049608233 72.75869266399579 L 22.80462573800351 72.66330125714767 L 22.660326885529397 72.56725274890488 L 22.518159921950904 72.4705567440382 L 22.378139063845914 72.37322291206758 L 22.240278313183552 72.27526098629505 L 22.104591455924005 72.17668076283158 L 21.971092060639926 72.07749209961737 L 21.83979347715959 71.97770491543608 L 21.710708835231934 71.87732918892296 L 21.583851043213578 71.77637495756703 L 21.459232786778013 71.6748523167073 L 21.33686652764703 71.57277141852325 L 21.216764502344574 71.47014247101961 L 21.098938720973088 71.36697573700563 L 20.983400966012525 71.26328153306875 L 20.870162791142096 71.15907022854292 L 20.759235520084925 71.05435224447177 L 20.650630245475675 70.94913805256644 L 20.54435782775131 70.84343817415844 L 20.440428894065036 70.73726317914753 L 20.338853837223617 70.63062368494474 L 20.239642814648093 70.5235303554106 L 20.142805747358043 70.41599389978884 L 20.048352318979504 70.3080250716354 L 19.956291974776594 70.19963466774314 L 19.866633920707027 70.0908335270621 L 19.779387122501486 69.98163252961568 L 19.69456030476709 69.87204259541265 L 19.612161950114924 69.76207468335508 L 19.53220029831179 69.65173979014256 L 19.45468334545623 69.54104894917243 L 19.379618843178932 69.43001322943658 L 19.307014297867575 69.31864373441445 L 19.23687696991618 69.20695160096271 L 19.1692138729991 69.09494799820165 L 19.10403177336964 68.98264412639821 L 19.041337189183448 68.87005121584596 L 18.98113638984669 68.75718052574217 L 18.923435395389134 68.64404334306175 L 18.868239975862142 68.53065098142872 L 18.815555650761674 68.41701477998473 L 18.765387688476338 68.30314610225523 L 18.71774110576055 68.1890563350131 L 18.672620667232877 68.07475688714001 L 18.630030884899575 67.96025918848548 L 18.58997601770339 67.84557468872397 L 18.55246007109765 67.73071485620987 L 18.517486796645763 67.61569117683074 L 18.485059691646022 67.50051515285864 L 18.455181998781914 67.3851983018 L 18.42785670579782 67.26975215524384 L 18.40308654520027 67.15418825770858 L 18.380873993984686 67.0385181654877 L 18.36122127338767 66.92275344549402 L 18.34413034866491 66.80690567410306 L 18.329602928894637 66.69098643599544 L 18.317640466806715 66.57500732299836 L 18.308244158637397 66.45897993292647 L 18.301414944009657 66.34291586842208 L 18.297153505839276 66.22682673579494 L 18.29546027026651 66.11072414386156 L 18.29633540661351 65.99461970278438 L 18.29977882736738 65.87852502291076 L 18.3057901881889 65.76245171361194 L 18.314368887947005 65.64641138212212 L 18.325514068778862 65.53041563237775 L 18.339224616175684 65.41447606385715 L 18.355499159094148 65.29860427042055 L 18.37433607009353 65.18281183915073 L 18.395733465498427 65.06711034919432 L 18.41968920558713 64.95151137060391 L 18.44620089480559 64.83602646318103 L 18.475265882006976 64.72066717532017 L 18.5068812607168 64.60544504285399 L 18.541043869423522 64.49037158789972 L 18.577750291894752 64.37545831770696 L 18.61699685751882 64.26071672350696 L 18.658779641671885 64.14615827936355 L 18.703094466110336 64.03179444102564 L 18.74993689938867 63.917636644781794 L 18.799302257302582 63.80369630631649 L 18.851185603357422 63.68998481956863 L 18.905581749261827 63.57651355559212 L 18.962485255446534 63.46329386141881 L 19.02189043160834 63.35033705892376 L 19.083791337279134 63.237654443693096 L 19.148181782419933 63.125257283894435 L 19.215055328039885 63.0131568191501 L 19.28440528684015 62.90136425941313 L 19.356224723882647 62.78989078384635 L 19.430506457283517 62.67874753970443 L 19.507243058931316 62.567945641219154 L 19.586426855229835 62.45749616848805 L 19.668049927865425 62.34741016636633 L 19.752104114598843 62.23769864336248 L 19.838581010081462 62.12837257053737 L 19.927471966695794 62.01944288040719 L 20.018768095420256 61.91092046585016 L 20.112460266718053 61.80281617901732 L 20.208539111450136 61.69514083024725 L 20.306995021812092 61.587905186985104 L 20.407818152294936 61.48111997270584 L 20.510998420669633 61.37479586584192 L 20.616525508995338 61.2689434987154 L 20.724388864651146 61.16357345647479 L 20.83457770139139 61.05869627603652 L 20.947081000424205 60.954322445031224 L 21.06188751151345 60.85046240075503 L 21.17898575410369 60.74712652912581 L 21.298364018468238 60.644325163644616 L 21.420010366880142 60.54206858436233 L 21.543912634805938 60.44036701685167 L 21.670058432122083 60.339230631184634 L 21.798435144353963 60.2386695409155 L 21.929029933937336 60.138693802069504 L 22.061829741502077 60.03931341213722 L 22.19682128717809 59.94053830907482 L 22.333991071923304 59.84237837031029 L 22.473325378873547 59.74484341175572 L 22.61481027471424 59.64794318682568 L 22.7584316110737 59.55168738546191 L 22.90417502593798 59.45608563316434 L 23.052025945087042 59.361147490028536 L 23.20196958355218 59.266882449789684 L 23.353990947094502 59.173299938873264 L 23.508074833704335 59.08040931545237 L 23.664205835121418 58.988219868511955 L 23.82236833837573 58.89674081691987 L 23.982546527348735 58.805981308505054 L 24.14472438435502 58.715950419142715 L 24.308885691744035 58.62665715184676 L 24.47501403352184 58.5381104358695 L 24.643092796992697 58.450319125808754 L 24.813105174420325 58.36329200072237 L 24.985034164708658 58.277037763250334 L 25.158862575101942 58.19156503874451 L 25.334573022903985 58.10688237440612 L 25.512147937216444 58.022998238431036 L 25.69156956069586 57.93992101916295 L 25.872819951329404 57.85765902425456 L 26.05588098422906 57.776220479836795 L 26.240734353444076 57.695613529696246 L 26.42736157379158 57.61584623446075 L 26.615743982705062 57.536926570793355 L 26.805862742100615 57.45886243059466 L 26.99769884026073 57.381661620213634 L 27.19123309373545 57.30533185966698 L 27.38644614926072 57.229880781867145 L 27.583318485693646 57.155315931859036 L 27.781830415964652 57.08164476606552 L 27.98196208904614 57.008874651541774 L 28.183693491937568 56.93701286523862 L 28.38700445166677 56.866066593274795 L 28.591874637307185 56.79604293021838 L 28.798283562010987 56.726948878377314 L 29.006210585057698 56.658791347099225 L 29.215634913918294 56.591577152080426 L 29.42653560633441 56.525313014684414 L 29.638891572412547 56.4600055612697 L 29.85268157673307 56.39566132252722 L 30.067884240473692 56.332286732827214 L 30.284478043547384 56.26988812957585 L 30.502441326754333 56.20847175258144 L 30.721752293947844 56.14804374343051 L 30.942389014213965 56.08861014487363 L 31.164329424064533 56.03017690022111 L 31.387551329643507 55.972749852748734 L 31.612032408946355 55.91633474511339 L 31.837750214052207 55.86093721877882 L 32.064682173368645 55.80656281345151 L 32.29280559388886 55.753216966526665 L 32.52209766346089 55.70090501254454 L 32.752535453068866 55.649632182656916 L 32.98409591912584 55.59940360410408 L 33.21675590577819 55.550224299702016 L 33.450492147221134 55.50209918734018 L 33.68528127002529 55.45503307948971 L 33.92109979547405 55.40903068272217 L 34.15792414191138 55.3640965972389 L 34.395730627099994 55.320235316411 L 34.63449547058953 55.27745122633 L 34.87419479609461 55.23574860536927 L 35.11480463388246 55.19513162375613 L 35.356300923169776 55.15560434315492 L 35.59865951452889 55.11717071626074 L 35.841856172302634 55.07983458640426 L 36.085866577027886 55.04359968716735 L 36.33066632786752 55.00846964200974 L 36.57623094505045 54.974447963906684 L 36.822535872319584 54.941538054997615 L 37.069556479387465 54.90974320624601 L 37.31726806439923 54.87906659711026 L 37.5656458564028 54.849511295225696 L 37.81466501782596 54.82108025609789 L 38.06430064696008 54.79377632280706 L 38.31452778045028 54.76760222572378 L 38.56532139579172 54.742560582235946 L 38.81665641383187 54.71865389648704 L 39.06850770127838 54.695884559125716 L 39.32085007321236 54.674254847066734 L 39.57365829560692 54.65376692326327 L 39.826907087850486 54.63442283649064 L 40.080571125274865 54.616224521141405 L 40.334625041687715 54.59917379703192 L 40.5890434319091 54.583272369220396 L 40.84380085431201 54.56852182783636 L 41.0988718333665 54.55492364792166 L 41.35423086218723 54.54247918928296 L 41.60985240508411 54.53118969635575 L 41.86571090011588 54.52105629807991 L 42.121780761646235 54.51208000778683 L 42.37803638290242 54.504261723098054 L 42.634452138535856 54.497602225835536 L 42.891002387184656 54.49210218194346 L 43.147661474037754 54.487762141421626 L 43.404403733400336 54.484582538270466 L 43.661203491260416 54.482563690447655 L 43.918035067856216 54.481705799836284 L 44.1748727802441 54.4820089522247 L 44.431690944866865 54.48347311729792 L 44.68846388012205 54.486098148640664 L 44.945165908930115 54.48988378375197 L 45.201771361302086 54.49482964407149 L 45.45825457690658 54.50093523501731 L 45.71458990763576 54.50819994603543 L 45.97075172017017 54.5166230506608 L 46.22671439854203 54.52620370658997 L 46.48245234669679 54.53694095576534 L 46.737939991052755 54.54883372447093 L 46.993151783058394 54.56188082343979 L 47.24806220174719 54.5760809479729 L 47.50264575628969 54.591432678069616 L 47.75687698854259 54.607934478569746 L 48.010730475594535 54.62558469930698 L 48.264180832308355 54.644381575273954 L 48.51720271385958 54.66432322679874 L 48.76977081827093 54.685407659732796 L 49.02185988894241 54.70763276565041 L 49.273444717177036 54.7309963220595 L 49.52450014470165 54.75549599262389 L 49.77500106618269 54.78112932739696 L 50.02492243173677 54.80789376306658 L 50.2742392494356 54.83578662321149 L 50.52292658780518 54.86480511856891 L 50.7709595783189 54.89494634731351 L 51.01831341788441 54.9262072953475 L 51.26496337132388 54.95858483660216 L 51.5108847738475 54.99207573335032 L 51.75605303351996 55.02667663653023 L 52.0004436337196 55.0623840860804 L 52.24403213559005 55.09919451128564 L 52.48679418048412 55.13710423113409 L 52.72870549239961 55.17610945468536 L 52.969741880406936 55.2162062814496 L 53.20987924106816 55.25739070177756 L 53.44909356084731 55.29965859726151 L 53.68736091851177 55.34300574114714 L 53.92465748752433 55.38742779875617 L 54.16095953842583 55.43292032791987 L 54.396243441208085 55.47947877942322 L 54.630485667676915 55.527098497459875 L 54.86366279380485 55.57577472009772 L 55.0957515020736 55.62550257975505 L 55.32672858380574 55.67627710368733 L 55.55657094148558 55.728093214484495 L 55.78525559106889 55.78094573057864 L 56.01275966428128 55.83482936676219 L 56.23906041090501 55.88973873471644 L 56.46413520105401 55.945668343550345 L 56.68796152743682 56.002612600349636 L 56.910517007607325 56.06056581073608 L 57.131779386202965 56.11952217943694 L 57.35172653717027 56.179475810864474 L 57.570336465977434 56.24042070970549 L 57.78758731181375 56.30235078152091 L 58.00345734977567 56.36525983335514 L 58.217924993039304 56.42914157435544 L 58.43096879501903 56.49398961640093 L 58.64256745151219 56.55979747474145 L 58.85269980282948 56.62655856864601 L 59.06134483591086 56.69426622206085 L 59.268481686426895 56.76291366427705 L 59.47408964086516 56.83249403060759 L 59.678148138601536 56.903000363073836 L 59.88063677395631 56.97442561110128 L 60.08153529823468 57.04676263222465 L 60.28082362175163 57.120004192802114 L 60.47848181584088 57.19414296873864 L 60.67449011484776 57.26917154621842 L 60.86882891810567 57.34508242244624 L 61.061478791896256 57.421868006397716 L 61.25242047139268 57.49952061957846 L 61.4416348625861 57.57803249679186 L 61.629103044195084 57.657395786915615 L 61.81480626955769 57.73760255368685 L 61.99872596850614 57.81864477649573 L 62.1808437492238 57.9005143511875 L 62.36114140008436 57.983203090872934 L 62.53960089147298 58.06670272674695 L 62.71620437758924 58.15100490891555 L 62.890934198231704 58.23610120723078 L 63.0637728805639 58.32198311213371 L 63.234703140861654 58.408642035505416 L 63.40370788624135 58.49606931152578 L 63.57077021636929 58.58425619754006 L 63.735873425151695 58.67319387493313 L 63.89900100240526 58.76287345001139 L 64.0601366355082 58.853285954892044 L 64.21926421103149 58.944422348399954 L 64.37636781635018 59.03627351697172 L 64.53143174123466 59.12883027556701 L 64.68444047942164 59.222083368587114 L 64.83537873016485 59.31602347080044 L 64.98423139976495 59.41064118827504 L 65.13098360307906 59.50592705931801 L 65.27562066500913 59.60187155542167 L 65.41812812196949 59.698465082216345 L 65.55849172333322 59.79569798042986 L 65.69669743285712 59.89356052685341 L 65.83273143008543 59.99204293531392 L 65.9665801117318 60.0911353576526 L 66.09823009303958 60.1908278847098 L 66.22766820912037 60.29111054731588 L 66.3548815162704 60.39197331728817 L 66.47985729326498 60.4934061084337 L 66.60258304263057 60.5953987775579 L 66.72304649189448 60.69794112547884 L 66.84123559481219 60.80102289804719 L 66.95713853257189 60.90463378717158 L 67.0707437149764 61.00876343184945 L 67.18203978160213 61.113401419203115 L 67.29101560293518 61.218537285521016 L 67.3976602814842 61.32416051730415 L 67.50196315287025 61.43026055231736 L 67.60391378689309 61.53682678064554 L 67.70350198857426 61.643848545754686 L 67.80071779917661 61.75131514555746 L 67.89555149720007 61.85921583348345 L 67.9879935993539 61.96753981955375 L 68.07803486150488 62.07627627146005 L 68.16566627960182 62.18541431564777 L 68.25087909057599 62.29494303840343 L 68.33366477321727 62.404851486946036 L 68.41401504902637 62.515128670522316 L 68.4919218830427 62.62576356150581 L 68.56737748464776 62.736745096499625 L 68.64037430834428 62.84806217744274 L 68.7109050545107 62.959703672719826 L 68.77896267013121 63.07165841827438 L 68.84454034950093 63.18391521872516 L 68.9076315349066 63.29646284848565 L 68.96822991728223 63.409290052886675 L 69.0263294368401 63.52238554930181 L 69.08192428367667 63.63573802827567 L 69.13500889835356 63.7493361546548 L 69.18557797245357 63.86316856872124 L 69.23362644911141 63.97722388732845 L 69.27914952351948 64.09149070503959 L 69.32214264340824 64.20595759526815 L 69.36260150950156 64.32061311142046 L 69.40052207594653 64.43544578804045 L 69.4359005507181 64.55044414195618 L 69.46873339599829 64.66559667342807 L 69.49901732852993 64.78089186729893 L 69.52674931994498 64.89631819414548 L 69.55192659706745 65.0118641114312 L 69.57454664219057 65.12751806466063 L 69.59460719332871 65.24326848853487 L 69.61210624444345 65.35910380810796 L 69.62704204564427 65.47501243994449 L 69.6394131033635 65.59098279327785 L 69.64921818050566 65.70700327116936 L 69.65645629657122 65.8230622716679 L 69.6611267277546 65.93914818897015 L 69.6632290070166 66.05524941458111 M 69.663359304 103.0349230918 L 69.66207511641142 103.15102675555636 L 69.65822268206335 103.2671188090431 L 69.65180238619604 103.3831876431516 L 69.6428148708337 103.4992216510952 L 69.63126103472041 103.61520922956979 L 69.61714203323012 103.73113877991415 L 69.60045927825122 103.8469987092699 L 69.58121443804532 103.9627774317406 L 69.5594094370804 104.07846336955055 L 69.53504645583837 104.19404495420231 L 69.50812793059707 104.30951062763378 L 69.47865655318658 104.42484884337381 L 69.4466352707201 104.54004806769696 L 69.41206728529917 104.65509678077679 L 69.37495605369352 104.76998347783784 L 69.33530528699542 104.88469667030618 L 69.29311895024847 104.99922488695815 L 69.24840126205119 105.1135566750675 L 69.20115669413514 105.22768060155073 L 69.15138997091775 105.34158525411026 L 69.09910606902986 105.45525924237577 L 69.04431021681809 105.56869119904317 L 68.987007893822 105.68186978101132 L 68.92720483022613 105.79478367051632 L 68.86490700628703 105.90742157626333 L 68.80012065173514 106.01977223455563 L 68.73285224515196 106.13182441042103 L 68.66310851332207 106.2435668987353 L 68.59089643056055 106.35498852534273 L 68.51622321801548 106.46607814817354 L 68.4390963429459 106.57682465835798 L 68.35952351797505 106.68721698133734 L 68.27751270031911 106.79724407797133 L 68.1930720909915 106.90689494564195 L 68.10621013398278 107.01615861935382 L 68.0169355154163 107.12502417283062 L 67.92525716267947 107.23348071960771 L 67.83118424353121 107.34151741412083 L 67.73472616518501 107.44912345279052 L 67.63589257336835 107.5562880751026 L 67.53469335135802 107.66300056468414 L 67.43113861899192 107.76925025037511 L 67.32523873165697 107.87502650729549 L 67.21700427925366 107.98031875790771 L 67.10644608513704 108.08511647307448 L 66.99357520503438 108.1894091731116 L 66.87840292593964 108.29318642883598 L 66.76094076498475 108.39643786260854 L 66.64120046828792 108.49915314937192 L 66.51919400977904 108.60132201768305 L 66.39493359000228 108.70293425074024 L 66.26843163489609 108.80397968740488 L 66.13970079455054 108.90444822321749 L 66.00875394194239 109.0043298114082 L 65.87560417164778 109.10361446390144 L 65.74026479853279 109.20229225231469 L 65.60274935642195 109.30035330895136 L 65.46307159674488 109.39778782778748 L 65.32124548716112 109.49458606545237 L 65.17728521016349 109.59073834220294 L 65.03120516165967 109.68623504289161 L 64.88301994953281 109.78106661792793 L 64.73274439218062 109.87522358423341 L 64.58039351703363 109.96869652618986 L 64.42598255905237 110.061476096581 L 64.26952695920397 110.15355301752712 L 64.11104236291804 110.24491808141282 L 63.95054461852213 110.33556215180788 L 63.788049775656944 110.42547616438078 L 63.62357408367136 110.5146511278052 L 63.457133989997494 110.60307812465909 L 63.28874613850603 110.69074831231649 L 63.118427367841775 110.77765292383165 L 62.94619470973989 110.86378326881588 L 62.77206538732264 110.94913073430642 L 62.596056813377174 111.03368678562788 L 62.4181865886142 111.11744296724555 L 62.23847249990798 111.2003909036111 L 62.056932518517606 111.2825223 L 61.873584798289954 111.36382894334106 L 61.68844767384425 111.44430270303769 L 61.50153965873865 111.52393553178099 L 61.312879443618925 111.60271946635444 L 61.12248589434935 111.68064662843025 L 60.930378050126215 111.75770922535715 L 60.736575121573836 111.83389955093965 L 60.54109648882357 111.9092099862087 L 60.34396169957579 111.9836330001835 L 60.145190467145156 112.05716115062472 L 59.94480266848926 112.12978708477856 L 59.74281834222097 112.20150354011211 L 59.539257686604614 112.27230334503965 L 59.334141057536094 112.34217941963963 L 59.12748896650741 112.41112477636287 L 58.91932207855544 112.47913252073111 L 58.70966121019552 112.54619585202661 L 58.49852732733976 112.61230806397214 L 58.2859415432005 112.67746254540155 L 58.07192511617901 112.74165278092104 L 57.85649944773964 112.80487235156053 L 57.6396860802697 112.86711493541566 L 57.421506694925284 112.92837430827987 L 57.20198310946309 112.98864434426694 L 56.981137276058746 113.04791901642352 L 56.75899127911155 113.10619239733178 L 56.53556733303606 113.16345865970217 L 56.310887780040716 113.21971207695618 L 56.08497508789358 113.27494702379899 L 55.857851847675605 113.32915797678191 L 55.62954077152154 113.38233951485485 L 55.400064690348756 113.43448631990829 L 55.169446551574126 113.48559317730519 L 54.937709416819345 113.53565497640241 L 54.70487645960479 113.58466671106174 L 54.470970963032144 113.63262348015058 L 54.236016317456155 113.67952048803197 L 54.000036018145565 113.7253530450442 L 53.76305366293368 113.77011656796977 L 53.52509294985852 113.81380658049369 L 53.286177674793095 113.85641871365111 L 53.04633172906581 113.89794870626423 L 52.80557909707139 113.93839240536839 L 52.56394385387239 113.9777457666274 L 52.32145016279176 114.0160048547379 L 52.07812227299655 114.05316584382298 L 51.83398451707296 114.0892250178147 L 51.58906130859313 114.12417877082571 L 51.34337713967381 114.15802360750982 L 51.096956578527156 114.19075614341159 L 50.84982426700394 114.2223731053047 L 50.60200491812935 114.25287133151929 L 50.353523313631776 114.28224777225817 L 50.1044043014646 114.31049948990176 L 49.854672793321434 114.3376236593018 L 49.60435376214498 114.36361756806399 L 49.353472239629774 114.38847861681909 L 49.10205331371898 114.41220431948295 L 48.850122126095684 114.43479230350509 L 48.597703869668706 114.45624031010593 L 48.34482378605334 114.47654619450265 L 48.09150716304722 114.49570792612376 L 47.83777933210154 114.51372358881206 L 47.58366566578796 114.5305913810163 L 47.329191575261355 114.5463096159713 L 47.07438250771872 114.56087672186668 L 46.81926394385445 114.57429124200398 L 46.563861395312344 114.58655183494237 L 46.30820040213443 114.59765727463277 L 46.05230653020697 114.60760645054046 L 45.7962053687039 114.61639836775615 L 45.53992252752798 114.62403214709545 L 45.283483634749736 114.63050702518677 L 45.026914334044754 114.6358223545477 L 44.77024028212929 114.63997760364975 L 44.51348714619466 114.64297235697146 L 44.25668060134049 114.64480631504 L 43.99984632800726 114.64547929446107 L 43.743010009408266 114.64499122793733 L 43.486197328961346 114.64334216427498 L 43.22943396772053 114.64053226837903 L 42.972745601807986 114.63656182123674 L 42.71615789984639 114.63143121988952 L 42.459696520392114 114.62514097739319 L 42.20338710936939 114.6176917227668 L 41.94725529750573 114.60908420092959 L 41.69132669776887 114.59931927262656 L 41.435626902805524 114.58839791434241 L 41.180181482382096 114.57632121820387 L 40.925015980827766 114.5630903918705 L 40.67015591448004 114.54870675841389 L 40.415626769133176 114.53317175618541 L 40.16145399748961 114.51648693867233 L 39.907663016614684 114.4986539743425 L 39.65427920539501 114.47967464647749 L 39.40132790200053 114.45955085299428 L 39.14883440135082 114.43828460625544 L 38.896823952585514 114.41587803286792 L 38.645321756539495 114.3923333734704 L 38.39435296322277 114.36765298250918 L 38.143942669305545 114.3418393280028 L 37.89411591560853 114.3148949912952 L 37.64489768459891 114.2868226667976 L 37.396312897892095 114.25762516171906 L 37.14838641375961 114.22730539578573 L 36.90114302464326 114.19586640094897 L 36.654607454675926 114.16331132108203 L 36.40880435720915 114.12964341166581 L 36.16375831234786 114.09486603946317 L 35.91949382449232 114.05898268218235 L 35.676035319887774 114.02199692812917 L 35.43340714418179 113.98391247584823 L 35.19163355998977 113.944733133753 L 34.95073874446863 113.90446281974506 L 34.71074678689919 113.86310556082225 L 34.47168168627722 113.82066549267599 L 34.23356734891355 113.77714685927774 L 33.9964275860435 113.73255401245454 L 33.76028611144573 113.68689141145396 L 33.52516653907092 113.64016362249802 L 33.29109238068039 113.59237531832667 L 33.05808704349489 113.54353127773052 L 32.82617382785399 113.49363638507293 L 32.59537592488599 113.44269562980158 L 32.36571641418885 113.39071410594954 L 32.13721826152226 113.33769701162588 L 31.909904316511064 113.28364964849587 L 31.683797310360347 113.22857742125075 L 31.458919853582298 113.17248583706737 L 31.2352944337352 113.1153805050574 L 31.012943413174675 113.05726713570647 L 30.791889026817497 112.99815154030306 L 30.572153379918085 112.93803963035747 L 30.35375844585802 112.8769374170106 L 30.136726063948714 112.81485101043285 L 29.92107793724749 112.75178661921315 L 29.70683563038732 112.68775054973807 L 29.49402056742035 112.6227492055612 L 29.282654029675534 112.55678908676278 L 29.072757153630512 112.48987678929973 L 28.864350928797972 112.42201900434601 L 28.65745619562672 112.3532225176236 L 28.452093643417673 112.28349420872384 L 28.248283808254904 112.2128410504195 L 28.046047070952103 112.14127010796754 L 27.845403655014458 112.06878853840256 L 27.646373624616363 111.99540358982111 L 27.448976882595 111.9211226006569 L 27.25323316846008 111.84595299894696 L 27.059162056419897 111.76990230158879 L 26.866782953423918 111.69297811358877 L 26.67611509722214 111.6151881273016 L 26.487177554441292 111.53654012166106 L 26.299989218678196 111.45704196140221 L 26.114568808610446 111.3767015962748 L 25.930934866124534 111.2955270602484 L 25.74910575446167 111.21352647070897 L 25.56909965638151 111.13070802764713 L 25.39093457234385 111.04708001283818 L 25.214628318708623 110.96265078901389 L 25.040198525954274 110.8774287990263 L 24.86766263691472 110.79142256500339 L 24.697037905035085 110.70464068749688 L 24.52834139264637 110.61709184462221 L 24.36158996925924 110.52878479119072 L 24.19680030987706 110.43972835783416 L 24.03398889332846 110.34993145012163 L 23.873172000619405 110.2594030476691 L 23.714365713305163 110.16815220324135 L 23.55758591188212 110.0761880418468 L 23.40284827419978 109.98351975982494 L 23.25016827389295 109.89015662392677 L 23.099561178834435 109.79610797038806 L 22.951042049608233 109.70138320399579 L 22.80462573800351 109.60599179714767 L 22.660326885529397 109.50994328890488 L 22.518159921950904 109.4132472840382 L 22.378139063845914 109.31591345206758 L 22.240278313183552 109.21795152629505 L 22.104591455924005 109.11937130283158 L 21.971092060639926 109.02018263961737 L 21.83979347715959 108.92039545543608 L 21.710708835231934 108.82001972892296 L 21.583851043213578 108.71906549756703 L 21.459232786778013 108.6175428567073 L 21.33686652764703 108.51546195852325 L 21.216764502344574 108.41283301101961 L 21.098938720973088 108.30966627700563 L 20.983400966012525 108.20597207306875 L 20.870162791142096 108.10176076854292 L 20.759235520084925 107.99704278447177 L 20.650630245475675 107.89182859256644 L 20.54435782775131 107.78612871415844 L 20.440428894065036 107.67995371914753 L 20.338853837223617 107.57331422494474 L 20.239642814648093 107.4662208954106 L 20.142805747358043 107.35868443978885 L 20.048352318979504 107.2507156116354 L 19.956291974776594 107.14232520774314 L 19.866633920707027 107.0335240670621 L 19.779387122501486 106.92432306961568 L 19.69456030476709 106.81473313541265 L 19.612161950114924 106.70476522335508 L 19.53220029831179 106.59443033014256 L 19.45468334545623 106.48373948917244 L 19.379618843178932 106.37270376943658 L 19.307014297867575 106.26133427441445 L 19.23687696991618 106.14964214096271 L 19.1692138729991 106.03763853820165 L 19.10403177336964 105.92533466639821 L 19.041337189183448 105.81274175584596 L 18.98113638984669 105.69987106574217 L 18.923435395389134 105.58673388306175 L 18.868239975862142 105.47334152142872 L 18.815555650761674 105.35970531998473 L 18.765387688476338 105.24583664225523 L 18.71774110576055 105.1317468750131 L 18.672620667232877 105.01744742714001 L 18.630030884899575 104.90294972848548 L 18.58997601770339 104.78826522872397 L 18.55246007109765 104.67340539620987 L 18.517486796645763 104.55838171683074 L 18.485059691646022 104.44320569285864 L 18.455181998781914 104.3278888418 L 18.42785670579782 104.21244269524384 L 18.40308654520027 104.09687879770858 L 18.380873993984686 103.9812087054877 L 18.36122127338767 103.86544398549403 L 18.34413034866491 103.74959621410306 L 18.329602928894637 103.63367697599544 L 18.317640466806715 103.51769786299836 L 18.308244158637397 103.40167047292647 L 18.301414944009657 103.28560640842208 L 18.297153505839276 103.16951727579495 L 18.29546027026651 103.05341468386156" stroke-miterlimit="10" stroke-width="2.990598758" stroke-dasharray=""/></g><g><g/><text fill="black" stroke="none" font-family="sans-serif" font-size="11pt" font-style="normal" font-weight="normal" text-decoration="normal" x="26.912725943237305" y="133.521438666" text-anchor="start" dominant-baseline="alphabetic">Brain</text></g><g><path fill="white" stroke="black" paint-order="fill stroke markers" d=" M 222.01804675878776 64.385832084 A 10.027301717999999 10.027301717999999 0 1 1 222.01804174513734 64.37580478395321 M 211.99074504078777 74.41313380199999 L 211.99074504078777 95.87507782999998 M 199.32467971278777 82.153507058 L 224.65681036878777 82.153507058 M 211.99074504078777 95.87507782999998 L 199.32467971278777 115.92968126599999 M 211.99074504078777 95.87507782999998 L 224.65681036878777 115.92968126599999" stroke-miterlimit="10" stroke-width="2.990598758" stroke-dasharray=""/></g><g><g/><text fill="black" stroke="none" font-family="sans-serif" font-size="11pt" font-style="normal" font-weight="normal" text-decoration="normal" x="196.55741164387615" y="133.521438666" text-anchor="start" dominant-baseline="alphabetic">User</text></g><path fill="none" stroke="none"/><g><path fill="white" stroke="black" paint-order="fill stroke markers" d=" M 507.99543803239317 91.301220906 L 589.2362172398073 91.301220906 L 589.2362172398073 138.798965886 L 507.99543803239317 138.798965886 L 507.99543803239317 91.301220906 Z" stroke-miterlimit="10" stroke-width="2.814681184" stroke-dasharray=""/></g><g><g/><text fill="black" stroke="none" font-family="sans-serif" font-size="11pt" font-style="normal" font-weight="normal" text-decoration="normal" x="527.0824948113932" y="121.207208486" text-anchor="start" dominant-baseline="alphabetic">Server</text></g><g><path fill="white" stroke="black" paint-order="fill stroke markers" d=" M 783.6765431458372 104.31912138199999 L 783.6765431458372 67.37643084199999 L 835.0444747538371 67.37643084199999 L 835.0444747538371 104.31912138199999" stroke-miterlimit="10" stroke-width="2.990598758" stroke-dasharray=""/><path fill="white" stroke="black" paint-order="fill stroke markers" d=" M 835.0444747538371 66.0922325518 L 835.0431905662485 66.20833621555636 L 835.0393381319005 66.3244282690431 L 835.0329178360332 66.4404971031516 L 835.0239303206708 66.5565311110952 L 835.0123764845575 66.67251868956978 L 834.9982574830673 66.78844823991415 L 834.9815747280884 66.9043081692699 L 834.9623298878824 67.0200868917406 L 834.9405248869175 67.13577282955055 L 834.9161619056755 67.25135441420231 L 834.8892433804342 67.36682008763378 L 834.8597720030237 67.48215830337381 L 834.8277507205572 67.59735752769696 L 834.7931827351363 67.71240624077679 L 834.7560715035306 67.82729293783784 L 834.7164207368326 67.94200613030618 L 834.6742344000857 68.05653434695814 L 834.6295167118883 68.1708661350675 L 834.5822721439723 68.28499006155073 L 834.5325054207549 68.39889471411026 L 834.480221518867 68.51256870237577 L 834.4254256666552 68.62600065904317 L 834.3681233436591 68.73917924101131 L 834.3083202800633 68.85209313051632 L 834.2460224561241 68.96473103626333 L 834.1812361015723 69.07708169455563 L 834.1139676949891 69.18913387042103 L 834.0442239631592 69.3008763587353 L 833.9720118803976 69.41229798534273 L 833.8973386678526 69.52338760817354 L 833.8202117927831 69.63413411835798 L 833.7406389678122 69.74452644133734 L 833.6586281501562 69.85455353797133 L 833.5741875408287 69.96420440564195 L 833.4873255838199 70.07346807935382 L 833.3980509652534 70.18233363283062 L 833.3063726125166 70.29079017960771 L 833.2122996933683 70.39882687412083 L 833.1158416150222 70.50643291279052 L 833.0170080232054 70.6135975351026 L 832.9158088011951 70.72031002468414 L 832.812254068829 70.82655971037511 L 832.7063541814941 70.93233596729549 L 832.5981197290909 71.03762821790771 L 832.4875615349741 71.14242593307448 L 832.3746906548715 71.2467186331116 L 832.2595183757768 71.35049588883598 L 832.1420562148219 71.45374732260854 L 832.0223159181251 71.55646260937192 L 831.9003094596162 71.65863147768304 L 831.7760490398394 71.76024371074024 L 831.6495470847332 71.86128914740488 L 831.5208162443877 71.96175768321748 L 831.3898693917795 72.0616392714082 L 831.2567196214849 72.16092392390144 L 831.12138024837 72.25960171231469 L 830.9838648062591 72.35766276895136 L 830.844187046582 72.45509728778748 L 830.7023609369983 72.55189552545237 L 830.5584006600006 72.64804780220294 L 830.4123206114969 72.74354450289161 L 830.2641353993699 72.83837607792793 L 830.1138598420177 72.93253304423341 L 829.9615089668707 73.02600598618986 L 829.8070980088895 73.118785556581 L 829.6506424090411 73.21086247752712 L 829.4921578127552 73.30222754141282 L 829.3316600683593 73.39287161180788 L 829.1691652254941 73.48278562438078 L 829.0046895335084 73.5719605878052 L 828.8382494398346 73.66038758465909 L 828.6698615883431 73.74805777231649 L 828.499542817679 73.83496238383165 L 828.327310159577 73.92109272881588 L 828.1531808371598 74.00644019430642 L 827.9771722632144 74.09099624562788 L 827.7993020384513 74.17475242724555 L 827.6195879497451 74.2577003636111 L 827.4380479683548 74.33983176 L 827.254700248127 74.42113840334106 L 827.0695631236814 74.50161216303769 L 826.8826551085758 74.58124499178099 L 826.6939948934561 74.66002892635444 L 826.5036013441864 74.73795608843025 L 826.3114934999634 74.81501868535715 L 826.117690571411 74.89120901093965 L 825.9222119386607 74.9665194462087 L 825.725077149413 75.0409424601835 L 825.5263059169823 75.11447061062472 L 825.3259181183264 75.18709654477856 L 825.1239337920581 75.25881300011211 L 824.9203731364418 75.32961280503964 L 824.7152565073733 75.39948887963963 L 824.5086044163445 75.46843423636287 L 824.3004375283925 75.53644198073111 L 824.0907766600327 75.60350531202661 L 823.8796427771769 75.66961752397214 L 823.6670569930376 75.73477200540155 L 823.4530405660162 75.79896224092104 L 823.2376148975768 75.86218181156053 L 823.0208015301068 75.92442439541566 L 822.8026221447624 75.98568376827987 L 822.5830985593002 76.04595380426694 L 822.3622527258959 76.10522847642352 L 822.1401067289487 76.16350185733178 L 821.9166827828732 76.22076811970217 L 821.6920032298779 76.27702153695618 L 821.4660905377307 76.33225648379899 L 821.2389672975128 76.38646743678191 L 821.0106562213587 76.43964897485485 L 820.7811801401859 76.49179577990829 L 820.5505620014112 76.54290263730519 L 820.3188248666565 76.59296443640241 L 820.085991909442 76.64197617106174 L 819.8520864128693 76.68993294015058 L 819.6171317672932 76.73682994803197 L 819.3811514679827 76.7826625050442 L 819.1441691127708 76.82742602796976 L 818.9062083996956 76.87111604049369 L 818.6672931246302 76.91372817365111 L 818.427447178903 76.95525816626423 L 818.1866945469085 76.99570186536839 L 817.9450593037095 77.03505522662739 L 817.7025656126289 77.0733143147379 L 817.4592377228337 77.11047530382298 L 817.2150999669101 77.1465344778147 L 816.9701767584303 77.1814882308257 L 816.724492589511 77.21533306750982 L 816.4780720283643 77.24806560341159 L 816.230939716841 77.2796825653047 L 815.9831203679665 77.31018079151929 L 815.7346387634689 77.33955723225817 L 815.4855197513017 77.36780894990176 L 815.2357882431586 77.3949331193018 L 814.9854692119821 77.42092702806399 L 814.7345876894669 77.44578807681908 L 814.4831687635561 77.46951377948295 L 814.2312375759328 77.49210176350509 L 813.9788193195059 77.51354977010593 L 813.7259392358905 77.53385565450264 L 813.4726226128844 77.55301738612376 L 813.2188947819387 77.57103304881205 L 812.9647811156251 77.58790084101629 L 812.7103070250985 77.6036190759713 L 812.4554979575558 77.61818618186668 L 812.2003793936916 77.63160070200398 L 811.9449768451495 77.64386129494237 L 811.6893158519715 77.65496673463277 L 811.4334219800442 77.66491591054046 L 811.177320818541 77.67370782775615 L 810.9210379773651 77.68134160709545 L 810.6645990845868 77.68781648518677 L 810.408029783882 77.6931318145477 L 810.1513557319664 77.69728706364975 L 809.8946025960319 77.70028181697145 L 809.6377960511776 77.70211577504 L 809.3809617778444 77.70278875446107 L 809.1241254592454 77.70230068793732 L 808.8673127787985 77.70065162427498 L 808.6105494175576 77.69784172837903 L 808.3538610516451 77.69387128123674 L 808.0972733496835 77.68874067988952 L 807.8408119702292 77.68245043739319 L 807.5845025592065 77.6750011827668 L 807.3283707473429 77.66639366092959 L 807.072442147606 77.65662873262656 L 806.8167423526427 77.64570737434241 L 806.5612969322192 77.63363067820387 L 806.3061314306649 77.6203998518705 L 806.0512713643171 77.60601621841388 L 805.7967422189703 77.59048121618541 L 805.5425694473267 77.57379639867233 L 805.2887784664518 77.5559634343425 L 805.0353946552322 77.53698410647749 L 804.7824433518376 77.51686031299428 L 804.529949851188 77.49559406625544 L 804.2779394024227 77.47318749286792 L 804.0264372063766 77.44964283347039 L 803.7754684130599 77.42496244250918 L 803.5250581191427 77.3991487880028 L 803.2752313654456 77.3722044512952 L 803.0260131344361 77.3441321267976 L 802.7774283477293 77.31493462171906 L 802.5295018635967 77.28461485578573 L 802.2822584744804 77.25317586094897 L 802.035722904513 77.22062078108203 L 801.7899198070463 77.18695287166581 L 801.544873762185 77.15217549946317 L 801.3006092743294 77.11629214218235 L 801.0571507697249 77.07930638812917 L 800.814522594019 77.04122193584823 L 800.5727490098269 77.002042593753 L 800.3318541943057 76.96177227974506 L 800.0918622367363 76.92041502082225 L 799.8527971361143 76.87797495267598 L 799.6146827987507 76.83445631927773 L 799.3775430358806 76.78986347245454 L 799.1414015612829 76.74420087145396 L 798.9062819889081 76.69747308249802 L 798.6722078305176 76.64968477832667 L 798.439202493332 76.60084073773052 L 798.2072892776912 76.55094584507293 L 797.9764913747231 76.50000508980158 L 797.746831864026 76.44802356594954 L 797.5183337113594 76.39500647162588 L 797.2910197663482 76.34095910849587 L 797.0649127601974 76.28588688125075 L 796.8400353034194 76.22979529706737 L 796.6164098835724 76.1726899650574 L 796.3940588630118 76.11457659570647 L 796.1730044766547 76.05546100030305 L 795.9532688297552 75.99534909035746 L 795.7348738956952 75.9342468770106 L 795.5178415137858 75.87216047043285 L 795.3021933870846 75.80909607921315 L 795.0879510802245 75.74506000973807 L 794.8751360172575 75.6800586655612 L 794.6637694795127 75.61409854676278 L 794.4538726034676 75.54718624929973 L 794.2454663786351 75.47932846434601 L 794.0385716454639 75.4105319776236 L 793.8332090932548 75.34080366872384 L 793.629399258092 75.2701505104195 L 793.4271625207892 75.19857956796754 L 793.2265191048516 75.12609799840256 L 793.0274890744535 75.05271304982111 L 792.8300923324322 74.9784320606569 L 792.6343486182972 74.90326245894695 L 792.4402775062571 74.82721176158879 L 792.247898403261 74.75028757358876 L 792.0572305470592 74.67249758730159 L 791.8682930042785 74.59384958166106 L 791.6811046685153 74.51435142140221 L 791.4956842584476 74.4340110562748 L 791.3120503159616 74.3528365202484 L 791.1302212042988 74.27083593070897 L 790.9502151062186 74.18801748764713 L 790.772050022181 74.10438947283818 L 790.5957437685457 74.01996024901389 L 790.4213139757915 73.9347382590263 L 790.2487780867518 73.84873202500339 L 790.0781533548723 73.76195014749688 L 789.9094568424836 73.67440130462221 L 789.7427054190964 73.58609425119072 L 789.5779157597142 73.49703781783415 L 789.4151043431656 73.40724091012163 L 789.2542874504566 73.3167125076691 L 789.0954811631423 73.22546166324135 L 788.9387013617193 73.1334975018468 L 788.7839637240369 73.04082921982494 L 788.6312837237301 72.94746608392677 L 788.4806766286715 72.85341743038806 L 788.3321574994454 72.75869266399579 L 788.1857411878407 72.66330125714767 L 788.0414423353666 72.56725274890488 L 787.899275371788 72.4705567440382 L 787.759254513683 72.37322291206758 L 787.6213937630207 72.27526098629505 L 787.4857069057612 72.17668076283158 L 787.3522075104771 72.07749209961737 L 787.2209089269967 71.97770491543608 L 787.091824285069 71.87732918892296 L 786.9649664930507 71.77637495756703 L 786.8403482366151 71.6748523167073 L 786.7179819774842 71.57277141852325 L 786.5978799521818 71.47014247101961 L 786.4800541708103 71.36697573700563 L 786.3645164158497 71.26328153306875 L 786.2512782409792 71.15907022854292 L 786.1403509699221 71.05435224447177 L 786.0317456953128 70.94913805256644 L 785.9254732775885 70.84343817415844 L 785.8215443439021 70.73726317914753 L 785.7199692870607 70.63062368494474 L 785.6207582644852 70.5235303554106 L 785.5239211971951 70.41599389978884 L 785.4294677688166 70.3080250716354 L 785.3374074246137 70.19963466774314 L 785.2477493705442 70.0908335270621 L 785.1605025723386 69.98163252961568 L 785.0756757546043 69.87204259541265 L 784.993277399952 69.76207468335508 L 784.9133157481489 69.65173979014256 L 784.8357987952934 69.54104894917243 L 784.7607342930161 69.43001322943658 L 784.6881297477047 69.31864373441445 L 784.6179924197534 69.20695160096271 L 784.5503293228362 69.09494799820165 L 784.4851472232068 68.98264412639821 L 784.4224526390205 68.87005121584596 L 784.3622518396838 68.75718052574217 L 784.3045508452262 68.64404334306175 L 784.2493554256993 68.53065098142872 L 784.1966711005988 68.41701477998473 L 784.1465031383135 68.30314610225523 L 784.0988565555976 68.1890563350131 L 784.05373611707 68.07475688714001 L 784.0111463347367 67.96025918848548 L 783.9710914675405 67.84557468872397 L 783.9335755209348 67.73071485620987 L 783.8986022464829 67.61569117683074 L 783.8661751414832 67.50051515285864 L 783.836297448619 67.3851983018 L 783.8089721556349 67.26975215524384 L 783.7842019950374 67.15418825770858 L 783.7619894438218 67.0385181654877 L 783.7423367232248 66.92275344549402 L 783.7252457985021 66.80690567410306 L 783.7107183787318 66.69098643599544 L 783.6987559166439 66.57500732299836 L 783.6893596084745 66.45897993292647 L 783.6825303938468 66.34291586842208 L 783.6782689556765 66.22682673579494 L 783.6765757201036 66.11072414386156 L 783.6774508564506 65.99461970278438 L 783.6808942772045 65.87852502291076 L 783.686905638026 65.76245171361194 L 783.6954843377841 65.64641138212212 L 783.706629518616 65.53041563237775 L 783.7203400660128 65.41447606385715 L 783.7366146089313 65.29860427042055 L 783.7554515199307 65.18281183915073 L 783.7768489153356 65.06711034919432 L 783.8008046554243 64.95151137060391 L 783.8273163446428 64.83602646318103 L 783.8563813318441 64.72066717532017 L 783.8879967105539 64.60544504285399 L 783.9221593192607 64.49037158789972 L 783.9588657417319 64.37545831770696 L 783.998112307356 64.26071672350696 L 784.039895091509 64.14615827936355 L 784.0842099159474 64.03179444102564 L 784.1310523492258 63.917636644781794 L 784.1804177071397 63.80369630631649 L 784.2323010531945 63.68998481956863 L 784.286697199099 63.57651355559212 L 784.3436007052836 63.46329386141881 L 784.4030058814454 63.35033705892376 L 784.4649067871163 63.237654443693096 L 784.529297232257 63.125257283894435 L 784.596170777877 63.0131568191501 L 784.6655207366773 62.90136425941313 L 784.7373401737198 62.78989078384635 L 784.8116219071206 62.67874753970443 L 784.8883585087684 62.567945641219154 L 784.967542305067 62.45749616848805 L 785.0491653777026 62.34741016636633 L 785.133219564436 62.23769864336248 L 785.2196964599186 62.12837257053737 L 785.308587416533 62.01944288040719 L 785.3998835452574 61.91092046585016 L 785.4935757165551 61.80281617901732 L 785.5896545612873 61.69514083024725 L 785.6881104716492 61.587905186985104 L 785.788933602132 61.48111997270584 L 785.8921138705068 61.37479586584192 L 785.9976409588324 61.2689434987154 L 786.1055043144883 61.16357345647479 L 786.2156931512285 61.05869627603652 L 786.3281964502613 60.954322445031224 L 786.4430029613505 60.85046240075503 L 786.5601012039408 60.74712652912581 L 786.6794794683054 60.644325163644616 L 786.8011258167173 60.54206858436233 L 786.925028084643 60.44036701685167 L 787.0511738819592 60.339230631184634 L 787.1795505941911 60.2386695409155 L 787.3101453837745 60.138693802069504 L 787.4429451913392 60.03931341213722 L 787.5779367370152 59.94053830907482 L 787.7151065217604 59.84237837031029 L 787.8544408287107 59.74484341175572 L 787.9959257245514 59.64794318682568 L 788.1395470609108 59.55168738546191 L 788.2852904757751 59.45608563316434 L 788.4331413949242 59.361147490028536 L 788.5830850333894 59.266882449789684 L 788.7351063969317 59.173299938873264 L 788.8891902835414 59.08040931545237 L 789.0453212849585 58.988219868511955 L 789.2034837882129 58.89674081691987 L 789.3636619771859 58.805981308505054 L 789.5258398341922 58.715950419142715 L 789.6900011415812 58.62665715184676 L 789.8561294833589 58.5381104358695 L 790.0242082468299 58.450319125808754 L 790.1942206242575 58.36329200072237 L 790.3661496145457 58.277037763250334 L 790.539978024939 58.19156503874451 L 790.7156884727411 58.10688237440612 L 790.8932633870536 58.022998238431036 L 791.072685010533 57.93992101916295 L 791.2539354011666 57.85765902425456 L 791.4369964340661 57.776220479836795 L 791.6218498032812 57.695613529696246 L 791.8084770236287 57.61584623446075 L 791.9968594325422 57.536926570793355 L 792.1869781919378 57.45886243059466 L 792.3788142900979 57.381661620213634 L 792.5723485435726 57.30533185966698 L 792.7675615990979 57.229880781867145 L 792.9644339355308 57.155315931859036 L 793.1629458658018 57.08164476606552 L 793.3630775388833 57.008874651541774 L 793.5648089417747 56.93701286523862 L 793.768119901504 56.866066593274795 L 793.9729900871444 56.79604293021838 L 794.1793990118481 56.726948878377314 L 794.3873260348948 56.658791347099225 L 794.5967503637554 56.591577152080426 L 794.8076510561715 56.525313014684414 L 795.0200070222497 56.4600055612697 L 795.2337970265702 56.39566132252722 L 795.4489996903109 56.332286732827214 L 795.6655934933846 56.26988812957585 L 795.8835567765915 56.20847175258144 L 796.1028677437849 56.14804374343051 L 796.3235044640511 56.08861014487363 L 796.5454448739017 56.03017690022111 L 796.7686667794807 55.972749852748734 L 796.9931478587835 55.91633474511339 L 797.2188656638893 55.86093721877882 L 797.4457976232057 55.80656281345151 L 797.673921043726 55.753216966526665 L 797.9032131132981 55.70090501254454 L 798.133650902906 55.649632182656916 L 798.365211368963 55.59940360410408 L 798.5978713556153 55.550224299702016 L 798.8316075970582 55.50209918734018 L 799.0663967198624 55.45503307948971 L 799.3022152453112 55.40903068272217 L 799.5390395917485 55.3640965972389 L 799.7768460769371 55.320235316411 L 800.0156109204266 55.27745122633 L 800.2553102459318 55.23574860536927 L 800.4959200837196 55.19513162375613 L 800.7374163730069 55.15560434315492 L 800.979774964366 55.11717071626074 L 801.2229716221398 55.07983458640426 L 801.466982026865 55.04359968716735 L 801.7117817777047 55.00846964200974 L 801.9573463948876 54.974447963906684 L 802.2036513221567 54.941538054997615 L 802.4506719292247 54.90974320624601 L 802.6983835142364 54.87906659711026 L 802.94676130624 54.849511295225696 L 803.1957804676631 54.82108025609789 L 803.4454160967972 54.79377632280706 L 803.6956432302874 54.76760222572378 L 803.9464368456289 54.742560582235946 L 804.197771863669 54.71865389648704 L 804.4496231511155 54.695884559125716 L 804.7019655230495 54.674254847066734 L 804.9547737454441 54.65376692326327 L 805.2080225376876 54.63442283649064 L 805.461686575112 54.616224521141405 L 805.7157404915249 54.59917379703192 L 805.9701588817462 54.583272369220396 L 806.2249163041491 54.56852182783636 L 806.4799872832036 54.55492364792166 L 806.7353463120244 54.54247918928296 L 806.9909678549212 54.53118969635575 L 807.246826349953 54.52105629807991 L 807.5028962114834 54.51208000778683 L 807.7591518327396 54.504261723098054 L 808.015567588373 54.497602225835536 L 808.2721178370218 54.49210218194346 L 808.528776923875 54.487762141421626 L 808.7855191832375 54.484582538270466 L 809.0423189410975 54.482563690447655 L 809.2991505176933 54.481705799836284 L 809.5559882300812 54.4820089522247 L 809.812806394704 54.48347311729792 L 810.0695793299592 54.486098148640664 L 810.3262813587672 54.48988378375197 L 810.5828868111392 54.49482964407149 L 810.8393700267437 54.50093523501731 L 811.0957053574729 54.50819994603543 L 811.3518671700073 54.5166230506608 L 811.6078298483792 54.52620370658997 L 811.863567796534 54.53694095576534 L 812.1190554408898 54.54883372447093 L 812.3742672328956 54.56188082343979 L 812.6291776515843 54.5760809479729 L 812.8837612061268 54.591432678069616 L 813.1379924383797 54.607934478569746 L 813.3918459254317 54.62558469930698 L 813.6452962821455 54.644381575273954 L 813.8983181636967 54.66432322679874 L 814.150886268108 54.685407659732796 L 814.4029753387796 54.70763276565041 L 814.6545601670142 54.7309963220595 L 814.9056155945387 54.75549599262389 L 815.1561165160198 54.78112932739696 L 815.4060378815739 54.80789376306658 L 815.6553546992727 54.83578662321149 L 815.9040420376423 54.86480511856891 L 816.152075028156 54.89494634731351 L 816.3994288677216 54.9262072953475 L 816.646078821161 54.95858483660216 L 816.8920002236846 54.99207573335032 L 817.1371684833571 55.02667663653023 L 817.3815590835568 55.0623840860804 L 817.6251475854272 55.09919451128564 L 817.8679096303213 55.13710423113409 L 818.1098209422368 55.17610945468536 L 818.350857330244 55.2162062814496 L 818.5909946909053 55.25739070177756 L 818.8302090106845 55.29965859726151 L 819.0684763683489 55.34300574114714 L 819.3057729373614 55.38742779875617 L 819.5420749882629 55.43292032791987 L 819.7773588910452 55.47947877942322 L 820.011601117514 55.527098497459875 L 820.244778243642 55.57577472009772 L 820.4768669519108 55.62550257975505 L 820.7078440336429 55.67627710368733 L 820.9376863913227 55.728093214484495 L 821.166371040906 55.78094573057864 L 821.3938751141184 55.83482936676219 L 821.6201758607422 55.88973873471644 L 821.8452506508911 55.945668343550345 L 822.069076977274 56.002612600349636 L 822.2916324574445 56.06056581073608 L 822.5128948360401 56.11952217943694 L 822.7328419870074 56.179475810864474 L 822.9514519158146 56.24042070970549 L 823.1687027616509 56.30235078152091 L 823.3845727996128 56.36525983335514 L 823.5990404428765 56.42914157435544 L 823.8120842448561 56.49398961640093 L 824.0236829013493 56.55979747474145 L 824.2338152526667 56.62655856864601 L 824.442460285748 56.69426622206085 L 824.649597136264 56.76291366427705 L 824.8552050907023 56.83249403060759 L 825.0592635884386 56.903000363073836 L 825.2617522237935 56.97442561110128 L 825.4626507480718 57.04676263222465 L 825.6619390715888 57.120004192802114 L 825.8595972656781 57.19414296873864 L 826.0556055646849 57.26917154621842 L 826.2499443679428 57.34508242244624 L 826.4425942417334 57.421868006397716 L 826.6335359212298 57.49952061957846 L 826.8227503124233 57.57803249679186 L 827.0102184940322 57.657395786915615 L 827.1959217193948 57.73760255368685 L 827.3798414183433 57.81864477649573 L 827.561959199061 57.9005143511875 L 827.7422568499215 57.983203090872934 L 827.9207163413101 58.06670272674695 L 828.0973198274264 58.15100490891555 L 828.2720496480688 58.23610120723078 L 828.444888330401 58.32198311213371 L 828.6158185906988 58.408642035505416 L 828.7848233360785 58.49606931152578 L 828.9518856662064 58.58425619754006 L 829.1169888749888 58.67319387493313 L 829.2801164522424 58.76287345001139 L 829.4412520853454 58.853285954892044 L 829.6003796608686 58.944422348399954 L 829.7574832661874 59.03627351697172 L 829.9125471910718 59.12883027556701 L 830.0655559292588 59.222083368587114 L 830.216494180002 59.31602347080044 L 830.3653468496021 59.41064118827504 L 830.5120990529163 59.50592705931801 L 830.6567361148462 59.60187155542167 L 830.7992435718066 59.698465082216345 L 830.9396071731703 59.79569798042986 L 831.0778128826943 59.89356052685341 L 831.2138468799226 59.99204293531392 L 831.3476955615689 60.0911353576526 L 831.4793455428767 60.1908278847098 L 831.6087836589575 60.29111054731588 L 831.7359969661076 60.39197331728817 L 831.8609727431021 60.4934061084337 L 831.9836984924677 60.5953987775579 L 832.1041619417316 60.69794112547884 L 832.2223510446494 60.80102289804719 L 832.338253982409 60.90463378717158 L 832.4518591648135 61.00876343184945 L 832.5631552314393 61.113401419203115 L 832.6721310527723 61.218537285521016 L 832.7787757313214 61.32416051730415 L 832.8830786027074 61.43026055231736 L 832.9850292367303 61.53682678064554 L 833.0846174384114 61.643848545754686 L 833.1818332490137 61.75131514555746 L 833.2766669470373 61.85921583348345 L 833.369109049191 61.96753981955375 L 833.459150311342 62.07627627146005 L 833.546781729439 62.18541431564777 L 833.6319945404132 62.29494303840343 L 833.7147802230544 62.404851486946036 L 833.7951304988635 62.515128670522316 L 833.8730373328798 62.62576356150581 L 833.9484929344849 62.736745096499625 L 834.0214897581814 62.84806217744274 L 834.0920205043478 62.959703672719826 L 834.1600781199684 63.07165841827438 L 834.225655799338 63.18391521872516 L 834.2887469847437 63.29646284848565 L 834.3493453671193 63.409290052886675 L 834.4074448866772 63.52238554930181 L 834.4630397335138 63.63573802827567 L 834.5161243481907 63.7493361546548 L 834.5666934222907 63.86316856872124 L 834.6147418989485 63.97722388732845 L 834.6602649733566 64.09149070503959 L 834.7032580932454 64.20595759526815 L 834.7437169593387 64.32061311142046 L 834.7816375257837 64.43544578804045 L 834.8170160005552 64.55044414195618 L 834.8498488458355 64.66559667342807 L 834.880132778367 64.78089186729893 L 834.9078647697821 64.89631819414548 L 834.9330420469046 65.0118641114312 L 834.9556620920278 65.12751806466063 L 834.9757226431658 65.24326848853487 L 834.9932216942806 65.35910380810796 L 835.0081574954814 65.47501243994449 L 835.0205285532006 65.59098279327785 L 835.0303336303429 65.70700327116936 L 835.0375717464084 65.8230622716679 L 835.0422421775918 65.93914818897015 L 835.0443444568538 66.05524941458111 M 835.0444747538371 103.0349230918 L 835.0431905662485 103.15102675555636 L 835.0393381319005 103.2671188090431 L 835.0329178360332 103.3831876431516 L 835.0239303206708 103.4992216510952 L 835.0123764845575 103.61520922956979 L 834.9982574830673 103.73113877991415 L 834.9815747280884 103.8469987092699 L 834.9623298878824 103.9627774317406 L 834.9405248869175 104.07846336955055 L 834.9161619056755 104.19404495420231 L 834.8892433804342 104.30951062763378 L 834.8597720030237 104.42484884337381 L 834.8277507205572 104.54004806769696 L 834.7931827351363 104.65509678077679 L 834.7560715035306 104.76998347783784 L 834.7164207368326 104.88469667030618 L 834.6742344000857 104.99922488695815 L 834.6295167118883 105.1135566750675 L 834.5822721439723 105.22768060155073 L 834.5325054207549 105.34158525411026 L 834.480221518867 105.45525924237577 L 834.4254256666552 105.56869119904317 L 834.3681233436591 105.68186978101132 L 834.3083202800633 105.79478367051632 L 834.2460224561241 105.90742157626333 L 834.1812361015723 106.01977223455563 L 834.1139676949891 106.13182441042103 L 834.0442239631592 106.2435668987353 L 833.9720118803976 106.35498852534273 L 833.8973386678526 106.46607814817354 L 833.8202117927831 106.57682465835798 L 833.7406389678122 106.68721698133734 L 833.6586281501562 106.79724407797133 L 833.5741875408287 106.90689494564195 L 833.4873255838199 107.01615861935382 L 833.3980509652534 107.12502417283062 L 833.3063726125166 107.23348071960771 L 833.2122996933683 107.34151741412083 L 833.1158416150222 107.44912345279052 L 833.0170080232054 107.5562880751026 L 832.9158088011951 107.66300056468414 L 832.812254068829 107.76925025037511 L 832.7063541814941 107.87502650729549 L 832.5981197290909 107.98031875790771 L 832.4875615349741 108.08511647307448 L 832.3746906548715 108.1894091731116 L 832.2595183757768 108.29318642883598 L 832.1420562148219 108.39643786260854 L 832.0223159181251 108.49915314937192 L 831.9003094596162 108.60132201768305 L 831.7760490398394 108.70293425074024 L 831.6495470847332 108.80397968740488 L 831.5208162443877 108.90444822321749 L 831.3898693917795 109.0043298114082 L 831.2567196214849 109.10361446390144 L 831.12138024837 109.20229225231469 L 830.9838648062591 109.30035330895136 L 830.844187046582 109.39778782778748 L 830.7023609369983 109.49458606545237 L 830.5584006600006 109.59073834220294 L 830.4123206114969 109.68623504289161 L 830.2641353993699 109.78106661792793 L 830.1138598420177 109.87522358423341 L 829.9615089668707 109.96869652618986 L 829.8070980088895 110.061476096581 L 829.6506424090411 110.15355301752712 L 829.4921578127552 110.24491808141282 L 829.3316600683593 110.33556215180788 L 829.1691652254941 110.42547616438078 L 829.0046895335084 110.5146511278052 L 828.8382494398346 110.60307812465909 L 828.6698615883431 110.69074831231649 L 828.499542817679 110.77765292383165 L 828.327310159577 110.86378326881588 L 828.1531808371598 110.94913073430642 L 827.9771722632144 111.03368678562788 L 827.7993020384513 111.11744296724555 L 827.6195879497451 111.2003909036111 L 827.4380479683548 111.2825223 L 827.254700248127 111.36382894334106 L 827.0695631236814 111.44430270303769 L 826.8826551085758 111.52393553178099 L 826.6939948934561 111.60271946635444 L 826.5036013441864 111.68064662843025 L 826.3114934999634 111.75770922535715 L 826.117690571411 111.83389955093965 L 825.9222119386607 111.9092099862087 L 825.725077149413 111.9836330001835 L 825.5263059169823 112.05716115062472 L 825.3259181183264 112.12978708477856 L 825.1239337920581 112.20150354011211 L 824.9203731364418 112.27230334503965 L 824.7152565073733 112.34217941963963 L 824.5086044163445 112.41112477636287 L 824.3004375283925 112.47913252073111 L 824.0907766600327 112.54619585202661 L 823.8796427771769 112.61230806397214 L 823.6670569930376 112.67746254540155 L 823.4530405660162 112.74165278092104 L 823.2376148975768 112.80487235156053 L 823.0208015301068 112.86711493541566 L 822.8026221447624 112.92837430827987 L 822.5830985593002 112.98864434426694 L 822.3622527258959 113.04791901642352 L 822.1401067289487 113.10619239733178 L 821.9166827828732 113.16345865970217 L 821.6920032298779 113.21971207695618 L 821.4660905377307 113.27494702379899 L 821.2389672975128 113.32915797678191 L 821.0106562213587 113.38233951485485 L 820.7811801401859 113.43448631990829 L 820.5505620014112 113.48559317730519 L 820.3188248666565 113.53565497640241 L 820.085991909442 113.58466671106174 L 819.8520864128693 113.63262348015058 L 819.6171317672932 113.67952048803197 L 819.3811514679827 113.7253530450442 L 819.1441691127708 113.77011656796977 L 818.9062083996956 113.81380658049369 L 818.6672931246302 113.85641871365111 L 818.427447178903 113.89794870626423 L 818.1866945469085 113.93839240536839 L 817.9450593037095 113.9777457666274 L 817.7025656126289 114.0160048547379 L 817.4592377228337 114.05316584382298 L 817.2150999669101 114.0892250178147 L 816.9701767584303 114.12417877082571 L 816.724492589511 114.15802360750982 L 816.4780720283643 114.19075614341159 L 816.230939716841 114.2223731053047 L 815.9831203679665 114.25287133151929 L 815.7346387634689 114.28224777225817 L 815.4855197513017 114.31049948990176 L 815.2357882431586 114.3376236593018 L 814.9854692119821 114.36361756806399 L 814.7345876894669 114.38847861681909 L 814.4831687635561 114.41220431948295 L 814.2312375759328 114.43479230350509 L 813.9788193195059 114.45624031010593 L 813.7259392358905 114.47654619450265 L 813.4726226128844 114.49570792612376 L 813.2188947819387 114.51372358881206 L 812.9647811156251 114.5305913810163 L 812.7103070250985 114.5463096159713 L 812.4554979575558 114.56087672186668 L 812.2003793936916 114.57429124200398 L 811.9449768451495 114.58655183494237 L 811.6893158519715 114.59765727463277 L 811.4334219800442 114.60760645054046 L 811.177320818541 114.61639836775615 L 810.9210379773651 114.62403214709545 L 810.6645990845868 114.63050702518677 L 810.408029783882 114.6358223545477 L 810.1513557319664 114.63997760364975 L 809.8946025960319 114.64297235697146 L 809.6377960511776 114.64480631504 L 809.3809617778444 114.64547929446107 L 809.1241254592454 114.64499122793733 L 808.8673127787985 114.64334216427498 L 808.6105494175576 114.64053226837903 L 808.3538610516451 114.63656182123674 L 808.0972733496835 114.63143121988952 L 807.8408119702292 114.62514097739319 L 807.5845025592065 114.6176917227668 L 807.3283707473429 114.60908420092959 L 807.072442147606 114.59931927262656 L 806.8167423526427 114.58839791434241 L 806.5612969322192 114.57632121820387 L 806.3061314306649 114.5630903918705 L 806.0512713643171 114.54870675841389 L 805.7967422189703 114.53317175618541 L 805.5425694473267 114.51648693867233 L 805.2887784664518 114.4986539743425 L 805.0353946552322 114.47967464647749 L 804.7824433518376 114.45955085299428 L 804.529949851188 114.43828460625544 L 804.2779394024227 114.41587803286792 L 804.0264372063766 114.3923333734704 L 803.7754684130599 114.36765298250918 L 803.5250581191427 114.3418393280028 L 803.2752313654456 114.3148949912952 L 803.0260131344361 114.2868226667976 L 802.7774283477293 114.25762516171906 L 802.5295018635967 114.22730539578573 L 802.2822584744804 114.19586640094897 L 802.035722904513 114.16331132108203 L 801.7899198070463 114.12964341166581 L 801.544873762185 114.09486603946317 L 801.3006092743294 114.05898268218235 L 801.0571507697249 114.02199692812917 L 800.814522594019 113.98391247584823 L 800.5727490098269 113.944733133753 L 800.3318541943057 113.90446281974506 L 800.0918622367363 113.86310556082225 L 799.8527971361143 113.82066549267599 L 799.6146827987507 113.77714685927774 L 799.3775430358806 113.73255401245454 L 799.1414015612829 113.68689141145396 L 798.9062819889081 113.64016362249802 L 798.6722078305176 113.59237531832667 L 798.439202493332 113.54353127773052 L 798.2072892776912 113.49363638507293 L 797.9764913747231 113.44269562980158 L 797.746831864026 113.39071410594954 L 797.5183337113594 113.33769701162588 L 797.2910197663482 113.28364964849587 L 797.0649127601974 113.22857742125075 L 796.8400353034194 113.17248583706737 L 796.6164098835724 113.1153805050574 L 796.3940588630118 113.05726713570647 L 796.1730044766547 112.99815154030306 L 795.9532688297552 112.93803963035747 L 795.7348738956952 112.8769374170106 L 795.5178415137858 112.81485101043285 L 795.3021933870846 112.75178661921315 L 795.0879510802245 112.68775054973807 L 794.8751360172575 112.6227492055612 L 794.6637694795127 112.55678908676278 L 794.4538726034676 112.48987678929973 L 794.2454663786351 112.42201900434601 L 794.0385716454639 112.3532225176236 L 793.8332090932548 112.28349420872384 L 793.629399258092 112.2128410504195 L 793.4271625207892 112.14127010796754 L 793.2265191048516 112.06878853840256 L 793.0274890744535 111.99540358982111 L 792.8300923324322 111.9211226006569 L 792.6343486182972 111.84595299894696 L 792.4402775062571 111.76990230158879 L 792.247898403261 111.69297811358877 L 792.0572305470592 111.6151881273016 L 791.8682930042785 111.53654012166106 L 791.6811046685153 111.45704196140221 L 791.4956842584476 111.3767015962748 L 791.3120503159616 111.2955270602484 L 791.1302212042988 111.21352647070897 L 790.9502151062186 111.13070802764713 L 790.772050022181 111.04708001283818 L 790.5957437685457 110.96265078901389 L 790.4213139757915 110.8774287990263 L 790.2487780867518 110.79142256500339 L 790.0781533548723 110.70464068749688 L 789.9094568424836 110.61709184462221 L 789.7427054190964 110.52878479119072 L 789.5779157597142 110.43972835783416 L 789.4151043431656 110.34993145012163 L 789.2542874504566 110.2594030476691 L 789.0954811631423 110.16815220324135 L 788.9387013617193 110.0761880418468 L 788.7839637240369 109.98351975982494 L 788.6312837237301 109.89015662392677 L 788.4806766286715 109.79610797038806 L 788.3321574994454 109.70138320399579 L 788.1857411878407 109.60599179714767 L 788.0414423353666 109.50994328890488 L 787.899275371788 109.4132472840382 L 787.759254513683 109.31591345206758 L 787.6213937630207 109.21795152629505 L 787.4857069057612 109.11937130283158 L 787.3522075104771 109.02018263961737 L 787.2209089269967 108.92039545543608 L 787.091824285069 108.82001972892296 L 786.9649664930507 108.71906549756703 L 786.8403482366151 108.6175428567073 L 786.7179819774842 108.51546195852325 L 786.5978799521818 108.41283301101961 L 786.4800541708103 108.30966627700563 L 786.3645164158497 108.20597207306875 L 786.2512782409792 108.10176076854292 L 786.1403509699221 107.99704278447177 L 786.0317456953128 107.89182859256644 L 785.9254732775885 107.78612871415844 L 785.8215443439021 107.67995371914753 L 785.7199692870607 107.57331422494474 L 785.6207582644852 107.4662208954106 L 785.5239211971951 107.35868443978885 L 785.4294677688166 107.2507156116354 L 785.3374074246137 107.14232520774314 L 785.2477493705442 107.0335240670621 L 785.1605025723386 106.92432306961568 L 785.0756757546043 106.81473313541265 L 784.993277399952 106.70476522335508 L 784.9133157481489 106.59443033014256 L 784.8357987952934 106.48373948917244 L 784.7607342930161 106.37270376943658 L 784.6881297477047 106.26133427441445 L 784.6179924197534 106.14964214096271 L 784.5503293228362 106.03763853820165 L 784.4851472232068 105.92533466639821 L 784.4224526390205 105.81274175584596 L 784.3622518396838 105.69987106574217 L 784.3045508452262 105.58673388306175 L 784.2493554256993 105.47334152142872 L 784.1966711005988 105.35970531998473 L 784.1465031383135 105.24583664225523 L 784.0988565555976 105.1317468750131 L 784.05373611707 105.01744742714001 L 784.0111463347367 104.90294972848548 L 783.9710914675405 104.78826522872397 L 783.9335755209348 104.67340539620987 L 783.8986022464829 104.55838171683074 L 783.8661751414832 104.44320569285864 L 783.836297448619 104.3278888418 L 783.8089721556349 104.21244269524384 L 783.7842019950374 104.09687879770858 L 783.7619894438218 103.9812087054877 L 783.7423367232248 103.86544398549403 L 783.7252457985021 103.74959621410306 L 783.7107183787318 103.63367697599544 L 783.6987559166439 103.51769786299836 L 783.6893596084745 103.40167047292647 L 783.6825303938468 103.28560640842208 L 783.6782689556765 103.16951727579495 L 783.6765757201036 103.05341468386156" stroke-miterlimit="10" stroke-width="2.990598758" stroke-dasharray=""/></g><g><g/><text fill="black" stroke="none" font-family="sans-serif" font-size="11pt" font-style="normal" font-weight="normal" text-decoration="normal" x="749.1938410116047" y="133.521438666" text-anchor="start" dominant-baseline="alphabetic">Persistent Storage</text></g></g><g><path fill="white" stroke="black" paint-order="fill stroke markers" d=" M 196.15816338078778 173.98248068599997 L 548.6158276361002 173.98248068599997 L 564.4484092961002 189.81506234599996 L 564.4484092961002 284.810552306 L 196.15816338078778 284.810552306 L 196.15816338078778 173.98248068599997 M 548.6158276361002 173.98248068599997 L 548.6158276361002 189.81506234599996 L 564.4484092961002 189.81506234599996" stroke-miterlimit="10" stroke-width="1.4659797833333332" stroke-dasharray=""/><g><text fill="black" stroke="none" font-family="sans-serif" font-size="11pt" font-style="normal" font-weight="normal" text-decoration="normal" x="220.78662374078772" y="198.610941046" text-anchor="start" dominant-baseline="alphabetic">DH-OPRF Parameters</text><text fill="black" stroke="none" font-family="sans-serif" font-size="11pt" font-style="normal" font-weight="normal" text-decoration="normal" x="220.78662374078772" y="216.202698446" text-anchor="start" dominant-baseline="alphabetic"> Hash function H</text><text fill="black" stroke="none" font-family="sans-serif" font-size="11pt" font-style="normal" font-weight="normal" text-decoration="normal" x="220.78662374078772" y="233.794455846" text-anchor="start" dominant-baseline="alphabetic"> Cyclic group G of prime order q</text><text fill="black" stroke="none" font-family="sans-serif" font-size="11pt" font-style="normal" font-weight="normal" text-decoration="normal" x="220.78662374078772" y="251.386213246" text-anchor="start" dominant-baseline="alphabetic"> Generator g of G</text><text fill="black" stroke="none" font-family="sans-serif" font-size="11pt" font-style="normal" font-weight="normal" text-decoration="normal" x="220.78662374078772" y="268.977970646" text-anchor="start" dominant-baseline="alphabetic"> Hash function H' mapping arbitrary strings into G</text></g><g><g><rect fill="white" stroke="none" x="64.79630642333333" y="311.198188406" width="126.37752569412109" height="22.86928462"/></g><text fill="black" stroke="none" font-family="sans-serif" font-size="11pt" font-style="normal" font-weight="normal" text-decoration="normal" x="67.43507003333333" y="327.030770066" text-anchor="start" dominant-baseline="alphabetic">Retrieve password</text></g><g><path fill="none" stroke="black" paint-order="fill stroke markers" d=" M 211.99074504078777 334.06747302599996 L 46.91135306666666 334.06747302599996" stroke-miterlimit="10" stroke-width="1.4659797833333332" stroke-dasharray=""/><g transform="translate(43.9793935,334.06747302599996) translate(-43.9793935,-334.06747302599996)"><path fill="none" stroke="black" paint-order="fill stroke markers" d=" M 58.63919133333333 326.7375741093333 L 45.44537328333333 334.06747302599996 L 58.63919133333333 341.3973719426666" stroke-miterlimit="10" stroke-width="1.4659797833333332"/></g></g><g><g><rect fill="white" stroke="none" x="105.82963924804037" y="360.45510912599997" width="44.31086004470703" height="22.86928462"/></g><text fill="black" stroke="none" font-family="sans-serif" font-size="11pt" font-style="normal" font-weight="normal" text-decoration="normal" x="108.46840285804036" y="376.287690786" text-anchor="start" dominant-baseline="alphabetic">PwdU</text></g><g><path fill="none" stroke="black" paint-order="fill stroke markers" d=" M 43.9793935 383.32439374599994 L 209.0587854741211 383.32439374599994" stroke-miterlimit="10" stroke-width="1.4659797833333332" stroke-dasharray="7.0367029599999995"/><g transform="translate(211.99074504078777,383.32439374599994) translate(-211.99074504078777,-383.32439374599994)"><path fill="black" stroke="none" paint-order="stroke fill markers" d=" M 197.33094720745444 375.9944948293333 L 211.99074504078777 383.32439374599994 L 197.33094720745444 390.6542926626666 Z"/></g></g><g><g><rect fill="white" stroke="none" x="232.8076579641211" y="409.71202984599995" width="183.34419286941406" height="22.86928462"/></g><text fill="black" stroke="none" font-family="sans-serif" font-size="11pt" font-style="normal" font-weight="normal" text-decoration="normal" x="235.4464215741211" y="425.54461150599997" text-anchor="start" dominant-baseline="alphabetic">Choose random r in [0..q-1]</text></g><g><path fill="none" stroke="black" paint-order="fill stroke markers" d=" M 211.99074504078777 432.5813144659999 L 282.35777464078774 432.5813144659999 L 282.35777464078774 450.17307186599993 L 214.92270460745445 450.17307186599993" stroke-miterlimit="10" stroke-width="1.4659797833333332" stroke-dasharray=""/><g transform="translate(211.99074504078777,450.17307186599993) translate(-211.99074504078777,-450.17307186599993)"><path fill="none" stroke="black" paint-order="fill stroke markers" d=" M 226.6505428741211 442.8431729493333 L 213.4567248241211 450.17307186599993 L 226.6505428741211 457.5029707826666" stroke-miterlimit="10" stroke-width="1.4659797833333332"/></g></g><g><g><rect fill="white" stroke="none" x="307.5978570790299" y="476.56070796599994" width="76.81086004470703" height="22.86928462"/></g><g><rect fill="white" stroke="none" x="307.5978570790299" y="494.15246536599994" width="145.41085851882812" height="22.86928462"/></g><text fill="black" stroke="none" font-family="sans-serif" font-size="11pt" font-style="normal" font-weight="normal" text-decoration="normal" x="310.2366206890299" y="492.39328962599996" text-anchor="start" dominant-baseline="alphabetic">Username,</text><text fill="black" stroke="none" font-family="sans-serif" font-size="11pt" font-style="normal" font-weight="normal" text-decoration="normal" x="310.2366206890299" y="509.98504702599996" text-anchor="start" dominant-baseline="alphabetic">alpha = H'(PwdU)*g^r</text></g><g><path fill="none" stroke="black" paint-order="fill stroke markers" d=" M 211.99074504078777 517.0217499859999 L 545.6838680694335 517.0217499859999" stroke-miterlimit="10" stroke-width="1.4659797833333332" stroke-dasharray=""/><g transform="translate(548.6158276361002,517.0217499859999) translate(-548.6158276361002,-517.0217499859999)"><path fill="none" stroke="black" paint-order="fill stroke markers" d=" M 533.9560298027669 509.69185106933327 L 547.1498478527669 517.0217499859999 L 533.9560298027669 524.3516489026666" stroke-miterlimit="10" stroke-width="1.4659797833333332"/></g></g><g><g><rect fill="white" stroke="none" x="616.5827382706152" y="543.4093860859999" width="124.81086004470703" height="22.86928462"/></g><text fill="black" stroke="none" font-family="sans-serif" font-size="11pt" font-style="normal" font-weight="normal" text-decoration="normal" x="619.2215018806152" y="559.2419677459999" text-anchor="start" dominant-baseline="alphabetic">Retrieve user data</text></g><g><path fill="none" stroke="black" paint-order="fill stroke markers" d=" M 548.6158276361002 566.278670706 L 806.4285493831704 566.278670706" stroke-miterlimit="10" stroke-width="1.4659797833333332" stroke-dasharray=""/><g transform="translate(809.3605089498371,566.278670706) translate(-809.3605089498371,-566.278670706)"><path fill="none" stroke="black" paint-order="fill stroke markers" d=" M 794.7007111165038 558.9487717893333 L 807.8945291665038 566.278670706 L 794.7007111165038 573.6085696226667" stroke-miterlimit="10" stroke-width="1.4659797833333332"/></g></g><g><g><rect fill="white" stroke="none" x="569.4327405594336" y="592.666306806" width="219.1108554670703" height="22.86928462"/></g><text fill="black" stroke="none" font-family="sans-serif" font-size="11pt" font-style="normal" font-weight="normal" text-decoration="normal" x="572.0715041694335" y="608.4988884659999" text-anchor="start" dominant-baseline="alphabetic">Username {EnvU, PubU, kU, vU}</text></g><g><path fill="none" stroke="black" paint-order="fill stroke markers" d=" M 809.3605089498371 615.535591426 L 551.5477872027669 615.535591426" stroke-miterlimit="10" stroke-width="1.4659797833333332" stroke-dasharray="7.0367029599999995"/><g transform="translate(548.6158276361002,615.535591426) translate(-548.6158276361002,-615.535591426)"><path fill="black" stroke="none" paint-order="stroke fill markers" d=" M 563.2756254694335 608.2056925093333 L 548.6158276361002 615.535591426 L 563.2756254694335 622.8654903426667 Z"/></g></g><g><g><rect fill="white" stroke="none" x="324.8311906666764" y="641.923227526" width="71.14419592117187" height="22.86928462"/></g><g><rect fill="white" stroke="none" x="324.8311906666764" y="659.514984926" width="110.94419134353515" height="22.86928462"/></g><text fill="black" stroke="none" font-family="sans-serif" font-size="11pt" font-style="normal" font-weight="normal" text-decoration="normal" x="327.4699542766764" y="657.755809186" text-anchor="start" dominant-baseline="alphabetic">EnvU, vU,</text><text fill="black" stroke="none" font-family="sans-serif" font-size="11pt" font-style="normal" font-weight="normal" text-decoration="normal" x="327.4699542766764" y="675.347566586" text-anchor="start" dominant-baseline="alphabetic">beta = alpha^kU</text></g><g><path fill="none" stroke="black" paint-order="fill stroke markers" d=" M 548.6158276361002 682.384269546 L 214.92270460745445 682.384269546" stroke-miterlimit="10" stroke-width="1.4659797833333332" stroke-dasharray="7.0367029599999995"/><g transform="translate(211.99074504078777,682.384269546) translate(-211.99074504078777,-682.384269546)"><path fill="black" stroke="none" paint-order="stroke fill markers" d=" M 226.6505428741211 675.0543706293333 L 211.99074504078777 682.384269546 L 226.6505428741211 689.7141684626667 Z"/></g></g><g><g><rect fill="white" stroke="none" x="232.8076579641211" y="708.7719056459999" width="223.1108554670703" height="22.86928462"/></g><text fill="black" stroke="none" font-family="sans-serif" font-size="11pt" font-style="normal" font-weight="normal" text-decoration="normal" x="235.4464215741211" y="724.6044873059999" text-anchor="start" dominant-baseline="alphabetic">RwdU = H(PwdU, vU, beta*v^{-r})</text></g><g><path fill="none" stroke="black" paint-order="fill stroke markers" d=" M 211.99074504078777 731.641190266 L 282.35777464078774 731.641190266 L 282.35777464078774 749.232947666 L 214.92270460745445 749.232947666" stroke-miterlimit="10" stroke-width="1.4659797833333332" stroke-dasharray=""/><g transform="translate(211.99074504078777,749.232947666) translate(-211.99074504078777,-749.232947666)"><path fill="none" stroke="black" paint-order="fill stroke markers" d=" M 226.6505428741211 741.9030487493333 L 213.4567248241211 749.232947666 L 226.6505428741211 756.5628465826667" stroke-miterlimit="10" stroke-width="1.4659797833333332"/></g></g><g><g><rect fill="white" stroke="none" x="232.8076579641211" y="775.6205837659999" width="305.6775211164844" height="22.86928462"/></g><text fill="black" stroke="none" font-family="sans-serif" font-size="11pt" font-style="normal" font-weight="normal" text-decoration="normal" x="235.4464215741211" y="791.4531654259998" text-anchor="start" dominant-baseline="alphabetic">(PubU, PrivU, PubS) = AuthDec(RwdU; EnvU)</text></g><g><path fill="none" stroke="black" paint-order="fill stroke markers" d=" M 211.99074504078777 798.4898683859999 L 282.35777464078774 798.4898683859999 L 282.35777464078774 816.0816257859999 L 214.92270460745445 816.0816257859999" stroke-miterlimit="10" stroke-width="1.4659797833333332" stroke-dasharray=""/><g transform="translate(211.99074504078777,816.0816257859999) translate(-211.99074504078777,-816.0816257859999)"><path fill="none" stroke="black" paint-order="fill stroke markers" d=" M 226.6505428741211 808.7517268693332 L 213.4567248241211 816.0816257859999 L 226.6505428741211 823.4115247026666" stroke-miterlimit="10" stroke-width="1.4659797833333332"/></g></g><path fill="white" stroke="black" paint-order="fill stroke markers" d=" M 196.15816338078778 842.4692618859998 L 548.6158276361002 842.4692618859998 L 564.4484092961002 858.3018435459998 L 564.4484092961002 900.5220613059998 L 196.15816338078778 900.5220613059998 L 196.15816338078778 842.4692618859998 M 548.6158276361002 842.4692618859998 L 548.6158276361002 858.3018435459998 L 564.4484092961002 858.3018435459998" stroke-miterlimit="10" stroke-width="1.4659797833333332" stroke-dasharray=""/><g><text fill="black" stroke="none" font-family="sans-serif" font-size="11pt" font-style="normal" font-weight="normal" text-decoration="normal" x="231.88661458551428" y="867.0977222459999" text-anchor="start" dominant-baseline="alphabetic">Key exchange can commence (or could have </text><text fill="black" stroke="none" font-family="sans-serif" font-size="11pt" font-style="normal" font-weight="normal" text-decoration="normal" x="231.88661458551428" y="884.6894796459999" text-anchor="start" dominant-baseline="alphabetic">been embedded in previous messages)</text></g><path fill="white" stroke="black" paint-order="fill stroke markers" d=" M 196.15816338078778 926.9096974059997 L 548.6158276361002 926.9096974059997 L 564.4484092961002 942.7422790659997 L 564.4484092961002 967.3707394259998 L 196.15816338078778 967.3707394259998 L 196.15816338078778 926.9096974059997 M 548.6158276361002 926.9096974059997 L 548.6158276361002 942.7422790659997 L 564.4484092961002 942.7422790659997" stroke-miterlimit="10" stroke-width="1.4659797833333332" stroke-dasharray=""/><g><text fill="black" stroke="none" font-family="sans-serif" font-size="11pt" font-style="normal" font-weight="normal" text-decoration="normal" x="255.65328481256506" y="951.5381577659998" text-anchor="start" dominant-baseline="alphabetic">Alternatively, for simple authentication:</text></g><g><g><rect fill="white" stroke="none" x="263.231188377858" y="993.7583755259998" width="234.14419592117187" height="22.86928462"/></g><text fill="black" stroke="none" font-family="sans-serif" font-size="11pt" font-style="normal" font-weight="normal" text-decoration="normal" x="265.86995198785803" y="1009.5909571859997" text-anchor="start" dominant-baseline="alphabetic">Proof = Sign(PrivU; Random_Data)</text></g><g><path fill="none" stroke="black" paint-order="fill stroke markers" d=" M 211.99074504078777 1016.6276601459998 L 545.6838680694335 1016.6276601459998" stroke-miterlimit="10" stroke-width="1.4659797833333332" stroke-dasharray=""/><g transform="translate(548.6158276361002,1016.6276601459998) translate(-548.6158276361002,-1016.6276601459998)"><path fill="none" stroke="black" paint-order="fill stroke markers" d=" M 533.9560298027669 1009.2977612293331 L 547.1498478527669 1016.6276601459998 L 533.9560298027669 1023.9575590626665" stroke-miterlimit="10" stroke-width="1.4659797833333332"/></g></g><g><g><rect fill="white" stroke="none" x="261.5811868519791" y="1043.015296246" width="237.44419897292968" height="22.86928462"/></g><text fill="black" stroke="none" font-family="sans-serif" font-size="11pt" font-style="normal" font-weight="normal" text-decoration="normal" x="264.2199504619791" y="1058.847877906" text-anchor="start" dominant-baseline="alphabetic">Authenticated = Verify(PubU; Proof)</text></g><g><path fill="none" stroke="black" paint-order="fill stroke markers" d=" M 548.6158276361002 1065.8845808659999 L 214.92270460745445 1065.8845808659999" stroke-miterlimit="10" stroke-width="1.4659797833333332" stroke-dasharray="7.0367029599999995"/><g transform="translate(211.99074504078777,1065.8845808659999) translate(-211.99074504078777,-1065.8845808659999)"><path fill="black" stroke="none" paint-order="stroke fill markers" d=" M 226.6505428741211 1058.5546819493331 L 211.99074504078777 1065.8845808659999 L 226.6505428741211 1073.2144797826666 Z"/></g></g></g><g/><g/><g/><g/></g></svg>