<svg version="1.1" xmlns="http://www.w3.org/2000/svg" xmlns:xlink="http://www.w3.org/1999/xlink" width="898" height="1275"><defs/><g><g/><g/><g/><g/><g/><g/><g/><g/><g/><g/><g/><g/><g/><g/><g/><g/><g/><g/><g/><g/><g/><g/><g/><g/><g/><g><rect fill="white" stroke="none" x="0" y="0" width="898" height="1275"/></g><g><text fill="black" stroke="none" font-family="sans-serif" font-size="16.5pt" font-style="normal" font-weight="normal" text-decoration="normal" x="341.2861583151969" y="26.3876361" text-anchor="start" dominant-baseline="alphabetic">OPAQUE Registration</text></g><g/><g><path fill="none" stroke="black" paint-order="fill stroke markers" d=" M 43.9793935 138.798965886 L 43.9793935 1275.2264939259999" stroke-miterlimit="10" stroke-width="1.4659797833333332" stroke-dasharray="13.532121076923076,5.863919133333333"/><path fill="none" stroke="black" paint-order="fill stroke markers" d=" M 231.88706996234373 138.798965886 L 231.88706996234373 1275.2264939259999" stroke-miterlimit="10" stroke-width="1.4659797833333332" stroke-dasharray="13.532121076923076,5.863919133333333"/><path fill="none" stroke="black" paint-order="fill stroke markers" d=" M 568.6650917301822 138.798965886 L 568.6650917301822 1275.2264939259999" stroke-miterlimit="10" stroke-width="1.4659797833333332" stroke-dasharray="13.532121076923076,5.863919133333333"/><path fill="none" stroke="black" paint-order="fill stroke markers" d=" M 829.4097730439191 138.798965886 L 829.4097730439191 1275.2264939259999" stroke-miterlimit="10" stroke-width="1.4659797833333332" stroke-dasharray="13.532121076923076,5.863919133333333"/></g><g><g><path fill="white" stroke="black" paint-order="fill stroke markers" d=" M 18.295427696000004 104.31912138199999 L 18.295427696000004 67.37643084199999 L 69.663359304 67.37643084199999 L 69.663359304 104.31912138199999" stroke-miterlimit="10" stroke-width="2.990598758" stroke-dasharray=""/><path fill="white" stroke="black" paint-order="fill stroke markers" d=" M 69.663359304 66.0922325518 L 69.66207511641142 66.20833621555636 L 69.65822268206335 66.3244282690431 L 69.65180238619604 66.4404971031516 L 69.6428148708337 66.5565311110952 L 69.63126103472041 66.67251868956978 L 69.61714203323012 66.78844823991415 L 69.60045927825122 66.9043081692699 L 69.58121443804532 67.0200868917406 L 69.5594094370804 67.13577282955055 L 69.53504645583837 67.25135441420231 L 69.50812793059707 67.36682008763378 L 69.47865655318658 67.48215830337381 L 69.4466352707201 67.59735752769696 L 69.41206728529917 67.71240624077679 L 69.37495605369352 67.82729293783784 L 69.33530528699542 67.94200613030618 L 69.29311895024847 68.05653434695814 L 69.24840126205119 68.1708661350675 L 69.20115669413514 68.28499006155073 L 69.15138997091775 68.39889471411026 L 69.09910606902986 68.51256870237577 L 69.04431021681809 68.62600065904317 L 68.987007893822 68.73917924101131 L 68.92720483022613 68.85209313051632 L 68.86490700628703 68.96473103626333 L 68.80012065173514 69.07708169455563 L 68.73285224515196 69.18913387042103 L 68.66310851332207 69.3008763587353 L 68.59089643056055 69.41229798534273 L 68.51622321801548 69.52338760817354 L 68.4390963429459 69.63413411835798 L 68.35952351797505 69.74452644133734 L 68.27751270031911 69.85455353797133 L 68.1930720909915 69.96420440564195 L 68.10621013398278 70.07346807935382 L 68.0169355154163 70.18233363283062 L 67.92525716267947 70.29079017960771 L 67.83118424353121 70.39882687412083 L 67.73472616518501 70.50643291279052 L 67.63589257336835 70.6135975351026 L 67.53469335135802 70.72031002468414 L 67.43113861899192 70.82655971037511 L 67.32523873165697 70.93233596729549 L 67.21700427925366 71.03762821790771 L 67.10644608513704 71.14242593307448 L 66.99357520503438 71.2467186331116 L 66.87840292593964 71.35049588883598 L 66.76094076498475 71.45374732260854 L 66.64120046828792 71.55646260937192 L 66.51919400977904 71.65863147768304 L 66.39493359000228 71.76024371074024 L 66.26843163489609 71.86128914740488 L 66.13970079455054 71.96175768321748 L 66.00875394194239 72.0616392714082 L 65.87560417164778 72.16092392390144 L 65.74026479853279 72.25960171231469 L 65.60274935642195 72.35766276895136 L 65.46307159674488 72.45509728778748 L 65.32124548716112 72.55189552545237 L 65.17728521016349 72.64804780220294 L 65.03120516165967 72.74354450289161 L 64.88301994953281 72.83837607792793 L 64.73274439218062 72.93253304423341 L 64.58039351703363 73.02600598618986 L 64.42598255905237 73.118785556581 L 64.26952695920397 73.21086247752712 L 64.11104236291804 73.30222754141282 L 63.95054461852213 73.39287161180788 L 63.788049775656944 73.48278562438078 L 63.62357408367136 73.5719605878052 L 63.457133989997494 73.66038758465909 L 63.28874613850603 73.74805777231649 L 63.118427367841775 73.83496238383165 L 62.94619470973989 73.92109272881588 L 62.77206538732264 74.00644019430642 L 62.596056813377174 74.09099624562788 L 62.4181865886142 74.17475242724555 L 62.23847249990798 74.2577003636111 L 62.056932518517606 74.33983176 L 61.873584798289954 74.42113840334106 L 61.68844767384425 74.50161216303769 L 61.50153965873865 74.58124499178099 L 61.312879443618925 74.66002892635444 L 61.12248589434935 74.73795608843025 L 60.930378050126215 74.81501868535715 L 60.736575121573836 74.89120901093965 L 60.54109648882357 74.9665194462087 L 60.34396169957579 75.0409424601835 L 60.145190467145156 75.11447061062472 L 59.94480266848926 75.18709654477856 L 59.74281834222097 75.25881300011211 L 59.539257686604614 75.32961280503964 L 59.334141057536094 75.39948887963963 L 59.12748896650741 75.46843423636287 L 58.91932207855544 75.53644198073111 L 58.70966121019552 75.60350531202661 L 58.49852732733976 75.66961752397214 L 58.2859415432005 75.73477200540155 L 58.07192511617901 75.79896224092104 L 57.85649944773964 75.86218181156053 L 57.6396860802697 75.92442439541566 L 57.421506694925284 75.98568376827987 L 57.20198310946309 76.04595380426694 L 56.981137276058746 76.10522847642352 L 56.75899127911155 76.16350185733178 L 56.53556733303606 76.22076811970217 L 56.310887780040716 76.27702153695618 L 56.08497508789358 76.33225648379899 L 55.857851847675605 76.38646743678191 L 55.62954077152154 76.43964897485485 L 55.400064690348756 76.49179577990829 L 55.169446551574126 76.54290263730519 L 54.937709416819345 76.59296443640241 L 54.70487645960479 76.64197617106174 L 54.470970963032144 76.68993294015058 L 54.236016317456155 76.73682994803197 L 54.000036018145565 76.7826625050442 L 53.76305366293368 76.82742602796976 L 53.52509294985852 76.87111604049369 L 53.286177674793095 76.91372817365111 L 53.04633172906581 76.95525816626423 L 52.80557909707139 76.99570186536839 L 52.56394385387239 77.03505522662739 L 52.32145016279176 77.0733143147379 L 52.07812227299655 77.11047530382298 L 51.83398451707296 77.1465344778147 L 51.58906130859313 77.1814882308257 L 51.34337713967381 77.21533306750982 L 51.096956578527156 77.24806560341159 L 50.84982426700394 77.2796825653047 L 50.60200491812935 77.31018079151929 L 50.353523313631776 77.33955723225817 L 50.1044043014646 77.36780894990176 L 49.854672793321434 77.3949331193018 L 49.60435376214498 77.42092702806399 L 49.353472239629774 77.44578807681908 L 49.10205331371898 77.46951377948295 L 48.850122126095684 77.49210176350509 L 48.597703869668706 77.51354977010593 L 48.34482378605334 77.53385565450264 L 48.09150716304722 77.55301738612376 L 47.83777933210154 77.57103304881205 L 47.58366566578796 77.58790084101629 L 47.329191575261355 77.6036190759713 L 47.07438250771872 77.61818618186668 L 46.81926394385445 77.63160070200398 L 46.563861395312344 77.64386129494237 L 46.30820040213443 77.65496673463277 L 46.05230653020697 77.66491591054046 L 45.7962053687039 77.67370782775615 L 45.53992252752798 77.68134160709545 L 45.283483634749736 77.68781648518677 L 45.026914334044754 77.6931318145477 L 44.77024028212929 77.69728706364975 L 44.51348714619466 77.70028181697145 L 44.25668060134049 77.70211577504 L 43.99984632800726 77.70278875446107 L 43.743010009408266 77.70230068793732 L 43.486197328961346 77.70065162427498 L 43.22943396772053 77.69784172837903 L 42.972745601807986 77.69387128123674 L 42.71615789984639 77.68874067988952 L 42.459696520392114 77.68245043739319 L 42.20338710936939 77.6750011827668 L 41.94725529750573 77.66639366092959 L 41.69132669776887 77.65662873262656 L 41.435626902805524 77.64570737434241 L 41.180181482382096 77.63363067820387 L 40.925015980827766 77.6203998518705 L 40.67015591448004 77.60601621841388 L 40.415626769133176 77.59048121618541 L 40.16145399748961 77.57379639867233 L 39.907663016614684 77.5559634343425 L 39.65427920539501 77.53698410647749 L 39.40132790200053 77.51686031299428 L 39.14883440135082 77.49559406625544 L 38.896823952585514 77.47318749286792 L 38.645321756539495 77.44964283347039 L 38.39435296322277 77.42496244250918 L 38.143942669305545 77.3991487880028 L 37.89411591560853 77.3722044512952 L 37.64489768459891 77.3441321267976 L 37.396312897892095 77.31493462171906 L 37.14838641375961 77.28461485578573 L 36.90114302464326 77.25317586094897 L 36.654607454675926 77.22062078108203 L 36.40880435720915 77.18695287166581 L 36.16375831234786 77.15217549946317 L 35.91949382449232 77.11629214218235 L 35.676035319887774 77.07930638812917 L 35.43340714418179 77.04122193584823 L 35.19163355998977 77.002042593753 L 34.95073874446863 76.96177227974506 L 34.71074678689919 76.92041502082225 L 34.47168168627722 76.87797495267598 L 34.23356734891355 76.83445631927773 L 33.9964275860435 76.78986347245454 L 33.76028611144573 76.74420087145396 L 33.52516653907092 76.69747308249802 L 33.29109238068039 76.64968477832667 L 33.05808704349489 76.60084073773052 L 32.82617382785399 76.55094584507293 L 32.59537592488599 76.50000508980158 L 32.36571641418885 76.44802356594954 L 32.13721826152226 76.39500647162588 L 31.909904316511064 76.34095910849587 L 31.683797310360347 76.28588688125075 L 31.458919853582298 76.22979529706737 L 31.2352944337352 76.1726899650574 L 31.012943413174675 76.11457659570647 L 30.791889026817497 76.05546100030305 L 30.572153379918085 75.99534909035746 L 30.35375844585802 75.9342468770106 L 30.136726063948714 75.87216047043285 L 29.92107793724749 75.80909607921315 L 29.70683563038732 75.74506000973807 L 29.49402056742035 75.6800586655612 L 29.282654029675534 75.61409854676278 L 29.072757153630512 75.54718624929973 L 28.864350928797972 75.47932846434601 L 28.65745619562672 75.4105319776236 L 28.452093643417673 75.34080366872384 L 28.248283808254904 75.2701505104195 L 28.046047070952103 75.19857956796754 L 27.845403655014458 75.12609799840256 L 27.646373624616363 75.05271304982111 L 27.448976882595 74.9784320606569 L 27.25323316846008 74.90326245894695 L 27.059162056419897 74.82721176158879 L 26.866782953423918 74.75028757358876 L 26.67611509722214 74.67249758730159 L 26.487177554441292 74.59384958166106 L 26.299989218678196 74.51435142140221 L 26.114568808610446 74.4340110562748 L 25.930934866124534 74.3528365202484 L 25.74910575446167 74.27083593070897 L 25.56909965638151 74.18801748764713 L 25.39093457234385 74.10438947283818 L 25.214628318708623 74.01996024901389 L 25.040198525954274 73.9347382590263 L 24.86766263691472 73.84873202500339 L 24.697037905035085 73.76195014749688 L 24.52834139264637 73.67440130462221 L 24.36158996925924 73.58609425119072 L 24.19680030987706 73.49703781783415 L 24.03398889332846 73.40724091012163 L 23.873172000619405 73.3167125076691 L 23.714365713305163 73.22546166324135 L 23.55758591188212 73.1334975018468 L 23.40284827419978 73.04082921982494 L 23.25016827389295 72.94746608392677 L 23.099561178834435 72.85341743038806 L 22.951042049608233 72.75869266399579 L 22.80462573800351 72.66330125714767 L 22.660326885529397 72.56725274890488 L 22.518159921950904 72.4705567440382 L 22.378139063845914 72.37322291206758 L 22.240278313183552 72.27526098629505 L 22.104591455924005 72.17668076283158 L 21.971092060639926 72.07749209961737 L 21.83979347715959 71.97770491543608 L 21.710708835231934 71.87732918892296 L 21.583851043213578 71.77637495756703 L 21.459232786778013 71.6748523167073 L 21.33686652764703 71.57277141852325 L 21.216764502344574 71.47014247101961 L 21.098938720973088 71.36697573700563 L 20.983400966012525 71.26328153306875 L 20.870162791142096 71.15907022854292 L 20.759235520084925 71.05435224447177 L 20.650630245475675 70.94913805256644 L 20.54435782775131 70.84343817415844 L 20.440428894065036 70.73726317914753 L 20.338853837223617 70.63062368494474 L 20.239642814648093 70.5235303554106 L 20.142805747358043 70.41599389978884 L 20.048352318979504 70.3080250716354 L 19.956291974776594 70.19963466774314 L 19.866633920707027 70.0908335270621 L 19.779387122501486 69.98163252961568 L 19.69456030476709 69.87204259541265 L 19.612161950114924 69.76207468335508 L 19.53220029831179 69.65173979014256 L 19.45468334545623 69.54104894917243 L 19.379618843178932 69.43001322943658 L 19.307014297867575 69.31864373441445 L 19.23687696991618 69.20695160096271 L 19.1692138729991 69.09494799820165 L 19.10403177336964 68.98264412639821 L 19.041337189183448 68.87005121584596 L 18.98113638984669 68.75718052574217 L 18.923435395389134 68.64404334306175 L 18.868239975862142 68.53065098142872 L 18.815555650761674 68.41701477998473 L 18.765387688476338 68.30314610225523 L 18.71774110576055 68.1890563350131 L 18.672620667232877 68.07475688714001 L 18.630030884899575 67.96025918848548 L 18.58997601770339 67.84557468872397 L 18.55246007109765 67.73071485620987 L 18.517486796645763 67.61569117683074 L 18.485059691646022 67.50051515285864 L 18.455181998781914 67.3851983018 L 18.42785670579782 67.26975215524384 L 18.40308654520027 67.15418825770858 L 18.380873993984686 67.0385181654877 L 18.36122127338767 66.92275344549402 L 18.34413034866491 66.80690567410306 L 18.329602928894637 66.69098643599544 L 18.317640466806715 66.57500732299836 L 18.308244158637397 66.45897993292647 L 18.301414944009657 66.34291586842208 L 18.297153505839276 66.22682673579494 L 18.29546027026651 66.11072414386156 L 18.29633540661351 65.99461970278438 L 18.29977882736738 65.87852502291076 L 18.3057901881889 65.76245171361194 L 18.314368887947005 65.64641138212212 L 18.325514068778862 65.53041563237775 L 18.339224616175684 65.41447606385715 L 18.355499159094148 65.29860427042055 L 18.37433607009353 65.18281183915073 L 18.395733465498427 65.06711034919432 L 18.41968920558713 64.95151137060391 L 18.44620089480559 64.83602646318103 L 18.475265882006976 64.72066717532017 L 18.5068812607168 64.60544504285399 L 18.541043869423522 64.49037158789972 L 18.577750291894752 64.37545831770696 L 18.61699685751882 64.26071672350696 L 18.658779641671885 64.14615827936355 L 18.703094466110336 64.03179444102564 L 18.74993689938867 63.917636644781794 L 18.799302257302582 63.80369630631649 L 18.851185603357422 63.68998481956863 L 18.905581749261827 63.57651355559212 L 18.962485255446534 63.46329386141881 L 19.02189043160834 63.35033705892376 L 19.083791337279134 63.237654443693096 L 19.148181782419933 63.125257283894435 L 19.215055328039885 63.0131568191501 L 19.28440528684015 62.90136425941313 L 19.356224723882647 62.78989078384635 L 19.430506457283517 62.67874753970443 L 19.507243058931316 62.567945641219154 L 19.586426855229835 62.45749616848805 L 19.668049927865425 62.34741016636633 L 19.752104114598843 62.23769864336248 L 19.838581010081462 62.12837257053737 L 19.927471966695794 62.01944288040719 L 20.018768095420256 61.91092046585016 L 20.112460266718053 61.80281617901732 L 20.208539111450136 61.69514083024725 L 20.306995021812092 61.587905186985104 L 20.407818152294936 61.48111997270584 L 20.510998420669633 61.37479586584192 L 20.616525508995338 61.2689434987154 L 20.724388864651146 61.16357345647479 L 20.83457770139139 61.05869627603652 L 20.947081000424205 60.954322445031224 L 21.06188751151345 60.85046240075503 L 21.17898575410369 60.74712652912581 L 21.298364018468238 60.644325163644616 L 21.420010366880142 60.54206858436233 L 21.543912634805938 60.44036701685167 L 21.670058432122083 60.339230631184634 L 21.798435144353963 60.2386695409155 L 21.929029933937336 60.138693802069504 L 22.061829741502077 60.03931341213722 L 22.19682128717809 59.94053830907482 L 22.333991071923304 59.84237837031029 L 22.473325378873547 59.74484341175572 L 22.61481027471424 59.64794318682568 L 22.7584316110737 59.55168738546191 L 22.90417502593798 59.45608563316434 L 23.052025945087042 59.361147490028536 L 23.20196958355218 59.266882449789684 L 23.353990947094502 59.173299938873264 L 23.508074833704335 59.08040931545237 L 23.664205835121418 58.988219868511955 L 23.82236833837573 58.89674081691987 L 23.982546527348735 58.805981308505054 L 24.14472438435502 58.715950419142715 L 24.308885691744035 58.62665715184676 L 24.47501403352184 58.5381104358695 L 24.643092796992697 58.450319125808754 L 24.813105174420325 58.36329200072237 L 24.985034164708658 58.277037763250334 L 25.158862575101942 58.19156503874451 L 25.334573022903985 58.10688237440612 L 25.512147937216444 58.022998238431036 L 25.69156956069586 57.93992101916295 L 25.872819951329404 57.85765902425456 L 26.05588098422906 57.776220479836795 L 26.240734353444076 57.695613529696246 L 26.42736157379158 57.61584623446075 L 26.615743982705062 57.536926570793355 L 26.805862742100615 57.45886243059466 L 26.99769884026073 57.381661620213634 L 27.19123309373545 57.30533185966698 L 27.38644614926072 57.229880781867145 L 27.583318485693646 57.155315931859036 L 27.781830415964652 57.08164476606552 L 27.98196208904614 57.008874651541774 L 28.183693491937568 56.93701286523862 L 28.38700445166677 56.866066593274795 L 28.591874637307185 56.79604293021838 L 28.798283562010987 56.726948878377314 L 29.006210585057698 56.658791347099225 L 29.215634913918294 56.591577152080426 L 29.42653560633441 56.525313014684414 L 29.638891572412547 56.4600055612697 L 29.85268157673307 56.39566132252722 L 30.067884240473692 56.332286732827214 L 30.284478043547384 56.26988812957585 L 30.502441326754333 56.20847175258144 L 30.721752293947844 56.14804374343051 L 30.942389014213965 56.08861014487363 L 31.164329424064533 56.03017690022111 L 31.387551329643507 55.972749852748734 L 31.612032408946355 55.91633474511339 L 31.837750214052207 55.86093721877882 L 32.064682173368645 55.80656281345151 L 32.29280559388886 55.753216966526665 L 32.52209766346089 55.70090501254454 L 32.752535453068866 55.649632182656916 L 32.98409591912584 55.59940360410408 L 33.21675590577819 55.550224299702016 L 33.450492147221134 55.50209918734018 L 33.68528127002529 55.45503307948971 L 33.92109979547405 55.40903068272217 L 34.15792414191138 55.3640965972389 L 34.395730627099994 55.320235316411 L 34.63449547058953 55.27745122633 L 34.87419479609461 55.23574860536927 L 35.11480463388246 55.19513162375613 L 35.356300923169776 55.15560434315492 L 35.59865951452889 55.11717071626074 L 35.841856172302634 55.07983458640426 L 36.085866577027886 55.04359968716735 L 36.33066632786752 55.00846964200974 L 36.57623094505045 54.974447963906684 L 36.822535872319584 54.941538054997615 L 37.069556479387465 54.90974320624601 L 37.31726806439923 54.87906659711026 L 37.5656458564028 54.849511295225696 L 37.81466501782596 54.82108025609789 L 38.06430064696008 54.79377632280706 L 38.31452778045028 54.76760222572378 L 38.56532139579172 54.742560582235946 L 38.81665641383187 54.71865389648704 L 39.06850770127838 54.695884559125716 L 39.32085007321236 54.674254847066734 L 39.57365829560692 54.65376692326327 L 39.826907087850486 54.63442283649064 L 40.080571125274865 54.616224521141405 L 40.334625041687715 54.59917379703192 L 40.5890434319091 54.583272369220396 L 40.84380085431201 54.56852182783636 L 41.0988718333665 54.55492364792166 L 41.35423086218723 54.54247918928296 L 41.60985240508411 54.53118969635575 L 41.86571090011588 54.52105629807991 L 42.121780761646235 54.51208000778683 L 42.37803638290242 54.504261723098054 L 42.634452138535856 54.497602225835536 L 42.891002387184656 54.49210218194346 L 43.147661474037754 54.487762141421626 L 43.404403733400336 54.484582538270466 L 43.661203491260416 54.482563690447655 L 43.918035067856216 54.481705799836284 L 44.1748727802441 54.4820089522247 L 44.431690944866865 54.48347311729792 L 44.68846388012205 54.486098148640664 L 44.945165908930115 54.48988378375197 L 45.201771361302086 54.49482964407149 L 45.45825457690658 54.50093523501731 L 45.71458990763576 54.50819994603543 L 45.97075172017017 54.5166230506608 L 46.22671439854203 54.52620370658997 L 46.48245234669679 54.53694095576534 L 46.737939991052755 54.54883372447093 L 46.993151783058394 54.56188082343979 L 47.24806220174719 54.5760809479729 L 47.50264575628969 54.591432678069616 L 47.75687698854259 54.607934478569746 L 48.010730475594535 54.62558469930698 L 48.264180832308355 54.644381575273954 L 48.51720271385958 54.66432322679874 L 48.76977081827093 54.685407659732796 L 49.02185988894241 54.70763276565041 L 49.273444717177036 54.7309963220595 L 49.52450014470165 54.75549599262389 L 49.77500106618269 54.78112932739696 L 50.02492243173677 54.80789376306658 L 50.2742392494356 54.83578662321149 L 50.52292658780518 54.86480511856891 L 50.7709595783189 54.89494634731351 L 51.01831341788441 54.9262072953475 L 51.26496337132388 54.95858483660216 L 51.5108847738475 54.99207573335032 L 51.75605303351996 55.02667663653023 L 52.0004436337196 55.0623840860804 L 52.24403213559005 55.09919451128564 L 52.48679418048412 55.13710423113409 L 52.72870549239961 55.17610945468536 L 52.969741880406936 55.2162062814496 L 53.20987924106816 55.25739070177756 L 53.44909356084731 55.29965859726151 L 53.68736091851177 55.34300574114714 L 53.92465748752433 55.38742779875617 L 54.16095953842583 55.43292032791987 L 54.396243441208085 55.47947877942322 L 54.630485667676915 55.527098497459875 L 54.86366279380485 55.57577472009772 L 55.0957515020736 55.62550257975505 L 55.32672858380574 55.67627710368733 L 55.55657094148558 55.728093214484495 L 55.78525559106889 55.78094573057864 L 56.01275966428128 55.83482936676219 L 56.23906041090501 55.88973873471644 L 56.46413520105401 55.945668343550345 L 56.68796152743682 56.002612600349636 L 56.910517007607325 56.06056581073608 L 57.131779386202965 56.11952217943694 L 57.35172653717027 56.179475810864474 L 57.570336465977434 56.24042070970549 L 57.78758731181375 56.30235078152091 L 58.00345734977567 56.36525983335514 L 58.217924993039304 56.42914157435544 L 58.43096879501903 56.49398961640093 L 58.64256745151219 56.55979747474145 L 58.85269980282948 56.62655856864601 L 59.06134483591086 56.69426622206085 L 59.268481686426895 56.76291366427705 L 59.47408964086516 56.83249403060759 L 59.678148138601536 56.903000363073836 L 59.88063677395631 56.97442561110128 L 60.08153529823468 57.04676263222465 L 60.28082362175163 57.120004192802114 L 60.47848181584088 57.19414296873864 L 60.67449011484776 57.26917154621842 L 60.86882891810567 57.34508242244624 L 61.061478791896256 57.421868006397716 L 61.25242047139268 57.49952061957846 L 61.4416348625861 57.57803249679186 L 61.629103044195084 57.657395786915615 L 61.81480626955769 57.73760255368685 L 61.99872596850614 57.81864477649573 L 62.1808437492238 57.9005143511875 L 62.36114140008436 57.983203090872934 L 62.53960089147298 58.06670272674695 L 62.71620437758924 58.15100490891555 L 62.890934198231704 58.23610120723078 L 63.0637728805639 58.32198311213371 L 63.234703140861654 58.408642035505416 L 63.40370788624135 58.49606931152578 L 63.57077021636929 58.58425619754006 L 63.735873425151695 58.67319387493313 L 63.89900100240526 58.76287345001139 L 64.0601366355082 58.853285954892044 L 64.21926421103149 58.944422348399954 L 64.37636781635018 59.03627351697172 L 64.53143174123466 59.12883027556701 L 64.68444047942164 59.222083368587114 L 64.83537873016485 59.31602347080044 L 64.98423139976495 59.41064118827504 L 65.13098360307906 59.50592705931801 L 65.27562066500913 59.60187155542167 L 65.41812812196949 59.698465082216345 L 65.55849172333322 59.79569798042986 L 65.69669743285712 59.89356052685341 L 65.83273143008543 59.99204293531392 L 65.9665801117318 60.0911353576526 L 66.09823009303958 60.1908278847098 L 66.22766820912037 60.29111054731588 L 66.3548815162704 60.39197331728817 L 66.47985729326498 60.4934061084337 L 66.60258304263057 60.5953987775579 L 66.72304649189448 60.69794112547884 L 66.84123559481219 60.80102289804719 L 66.95713853257189 60.90463378717158 L 67.0707437149764 61.00876343184945 L 67.18203978160213 61.113401419203115 L 67.29101560293518 61.218537285521016 L 67.3976602814842 61.32416051730415 L 67.50196315287025 61.43026055231736 L 67.60391378689309 61.53682678064554 L 67.70350198857426 61.643848545754686 L 67.80071779917661 61.75131514555746 L 67.89555149720007 61.85921583348345 L 67.9879935993539 61.96753981955375 L 68.07803486150488 62.07627627146005 L 68.16566627960182 62.18541431564777 L 68.25087909057599 62.29494303840343 L 68.33366477321727 62.404851486946036 L 68.41401504902637 62.515128670522316 L 68.4919218830427 62.62576356150581 L 68.56737748464776 62.736745096499625 L 68.64037430834428 62.84806217744274 L 68.7109050545107 62.959703672719826 L 68.77896267013121 63.07165841827438 L 68.84454034950093 63.18391521872516 L 68.9076315349066 63.29646284848565 L 68.96822991728223 63.409290052886675 L 69.0263294368401 63.52238554930181 L 69.08192428367667 63.63573802827567 L 69.13500889835356 63.7493361546548 L 69.18557797245357 63.86316856872124 L 69.23362644911141 63.97722388732845 L 69.27914952351948 64.09149070503959 L 69.32214264340824 64.20595759526815 L 69.36260150950156 64.32061311142046 L 69.40052207594653 64.43544578804045 L 69.4359005507181 64.55044414195618 L 69.46873339599829 64.66559667342807 L 69.49901732852993 64.78089186729893 L 69.52674931994498 64.89631819414548 L 69.55192659706745 65.0118641114312 L 69.57454664219057 65.12751806466063 L 69.59460719332871 65.24326848853487 L 69.61210624444345 65.35910380810796 L 69.62704204564427 65.47501243994449 L 69.6394131033635 65.59098279327785 L 69.64921818050566 65.70700327116936 L 69.65645629657122 65.8230622716679 L 69.6611267277546 65.93914818897015 L 69.6632290070166 66.05524941458111 M 69.663359304 103.0349230918 L 69.66207511641142 103.15102675555636 L 69.65822268206335 103.2671188090431 L 69.65180238619604 103.3831876431516 L 69.6428148708337 103.4992216510952 L 69.63126103472041 103.61520922956979 L 69.61714203323012 103.73113877991415 L 69.60045927825122 103.8469987092699 L 69.58121443804532 103.9627774317406 L 69.5594094370804 104.07846336955055 L 69.53504645583837 104.19404495420231 L 69.50812793059707 104.30951062763378 L 69.47865655318658 104.42484884337381 L 69.4466352707201 104.54004806769696 L 69.41206728529917 104.65509678077679 L 69.37495605369352 104.76998347783784 L 69.33530528699542 104.88469667030618 L 69.29311895024847 104.99922488695815 L 69.24840126205119 105.1135566750675 L 69.20115669413514 105.22768060155073 L 69.15138997091775 105.34158525411026 L 69.09910606902986 105.45525924237577 L 69.04431021681809 105.56869119904317 L 68.987007893822 105.68186978101132 L 68.92720483022613 105.79478367051632 L 68.86490700628703 105.90742157626333 L 68.80012065173514 106.01977223455563 L 68.73285224515196 106.13182441042103 L 68.66310851332207 106.2435668987353 L 68.59089643056055 106.35498852534273 L 68.51622321801548 106.46607814817354 L 68.4390963429459 106.57682465835798 L 68.35952351797505 106.68721698133734 L 68.27751270031911 106.79724407797133 L 68.1930720909915 106.90689494564195 L 68.10621013398278 107.01615861935382 L 68.0169355154163 107.12502417283062 L 67.92525716267947 107.23348071960771 L 67.83118424353121 107.34151741412083 L 67.73472616518501 107.44912345279052 L 67.63589257336835 107.5562880751026 L 67.53469335135802 107.66300056468414 L 67.43113861899192 107.76925025037511 L 67.32523873165697 107.87502650729549 L 67.21700427925366 107.98031875790771 L 67.10644608513704 108.08511647307448 L 66.99357520503438 108.1894091731116 L 66.87840292593964 108.29318642883598 L 66.76094076498475 108.39643786260854 L 66.64120046828792 108.49915314937192 L 66.51919400977904 108.60132201768305 L 66.39493359000228 108.70293425074024 L 66.26843163489609 108.80397968740488 L 66.13970079455054 108.90444822321749 L 66.00875394194239 109.0043298114082 L 65.87560417164778 109.10361446390144 L 65.74026479853279 109.20229225231469 L 65.60274935642195 109.30035330895136 L 65.46307159674488 109.39778782778748 L 65.32124548716112 109.49458606545237 L 65.17728521016349 109.59073834220294 L 65.03120516165967 109.68623504289161 L 64.88301994953281 109.78106661792793 L 64.73274439218062 109.87522358423341 L 64.58039351703363 109.96869652618986 L 64.42598255905237 110.061476096581 L 64.26952695920397 110.15355301752712 L 64.11104236291804 110.24491808141282 L 63.95054461852213 110.33556215180788 L 63.788049775656944 110.42547616438078 L 63.62357408367136 110.5146511278052 L 63.457133989997494 110.60307812465909 L 63.28874613850603 110.69074831231649 L 63.118427367841775 110.77765292383165 L 62.94619470973989 110.86378326881588 L 62.77206538732264 110.94913073430642 L 62.596056813377174 111.03368678562788 L 62.4181865886142 111.11744296724555 L 62.23847249990798 111.2003909036111 L 62.056932518517606 111.2825223 L 61.873584798289954 111.36382894334106 L 61.68844767384425 111.44430270303769 L 61.50153965873865 111.52393553178099 L 61.312879443618925 111.60271946635444 L 61.12248589434935 111.68064662843025 L 60.930378050126215 111.75770922535715 L 60.736575121573836 111.83389955093965 L 60.54109648882357 111.9092099862087 L 60.34396169957579 111.9836330001835 L 60.145190467145156 112.05716115062472 L 59.94480266848926 112.12978708477856 L 59.74281834222097 112.20150354011211 L 59.539257686604614 112.27230334503965 L 59.334141057536094 112.34217941963963 L 59.12748896650741 112.41112477636287 L 58.91932207855544 112.47913252073111 L 58.70966121019552 112.54619585202661 L 58.49852732733976 112.61230806397214 L 58.2859415432005 112.67746254540155 L 58.07192511617901 112.74165278092104 L 57.85649944773964 112.80487235156053 L 57.6396860802697 112.86711493541566 L 57.421506694925284 112.92837430827987 L 57.20198310946309 112.98864434426694 L 56.981137276058746 113.04791901642352 L 56.75899127911155 113.10619239733178 L 56.53556733303606 113.16345865970217 L 56.310887780040716 113.21971207695618 L 56.08497508789358 113.27494702379899 L 55.857851847675605 113.32915797678191 L 55.62954077152154 113.38233951485485 L 55.400064690348756 113.43448631990829 L 55.169446551574126 113.48559317730519 L 54.937709416819345 113.53565497640241 L 54.70487645960479 113.58466671106174 L 54.470970963032144 113.63262348015058 L 54.236016317456155 113.67952048803197 L 54.000036018145565 113.7253530450442 L 53.76305366293368 113.77011656796977 L 53.52509294985852 113.81380658049369 L 53.286177674793095 113.85641871365111 L 53.04633172906581 113.89794870626423 L 52.80557909707139 113.93839240536839 L 52.56394385387239 113.9777457666274 L 52.32145016279176 114.0160048547379 L 52.07812227299655 114.05316584382298 L 51.83398451707296 114.0892250178147 L 51.58906130859313 114.12417877082571 L 51.34337713967381 114.15802360750982 L 51.096956578527156 114.19075614341159 L 50.84982426700394 114.2223731053047 L 50.60200491812935 114.25287133151929 L 50.353523313631776 114.28224777225817 L 50.1044043014646 114.31049948990176 L 49.854672793321434 114.3376236593018 L 49.60435376214498 114.36361756806399 L 49.353472239629774 114.38847861681909 L 49.10205331371898 114.41220431948295 L 48.850122126095684 114.43479230350509 L 48.597703869668706 114.45624031010593 L 48.34482378605334 114.47654619450265 L 48.09150716304722 114.49570792612376 L 47.83777933210154 114.51372358881206 L 47.58366566578796 114.5305913810163 L 47.329191575261355 114.5463096159713 L 47.07438250771872 114.56087672186668 L 46.81926394385445 114.57429124200398 L 46.563861395312344 114.58655183494237 L 46.30820040213443 114.59765727463277 L 46.05230653020697 114.60760645054046 L 45.7962053687039 114.61639836775615 L 45.53992252752798 114.62403214709545 L 45.283483634749736 114.63050702518677 L 45.026914334044754 114.6358223545477 L 44.77024028212929 114.63997760364975 L 44.51348714619466 114.64297235697146 L 44.25668060134049 114.64480631504 L 43.99984632800726 114.64547929446107 L 43.743010009408266 114.64499122793733 L 43.486197328961346 114.64334216427498 L 43.22943396772053 114.64053226837903 L 42.972745601807986 114.63656182123674 L 42.71615789984639 114.63143121988952 L 42.459696520392114 114.62514097739319 L 42.20338710936939 114.6176917227668 L 41.94725529750573 114.60908420092959 L 41.69132669776887 114.59931927262656 L 41.435626902805524 114.58839791434241 L 41.180181482382096 114.57632121820387 L 40.925015980827766 114.5630903918705 L 40.67015591448004 114.54870675841389 L 40.415626769133176 114.53317175618541 L 40.16145399748961 114.51648693867233 L 39.907663016614684 114.4986539743425 L 39.65427920539501 114.47967464647749 L 39.40132790200053 114.45955085299428 L 39.14883440135082 114.43828460625544 L 38.896823952585514 114.41587803286792 L 38.645321756539495 114.3923333734704 L 38.39435296322277 114.36765298250918 L 38.143942669305545 114.3418393280028 L 37.89411591560853 114.3148949912952 L 37.64489768459891 114.2868226667976 L 37.396312897892095 114.25762516171906 L 37.14838641375961 114.22730539578573 L 36.90114302464326 114.19586640094897 L 36.654607454675926 114.16331132108203 L 36.40880435720915 114.12964341166581 L 36.16375831234786 114.09486603946317 L 35.91949382449232 114.05898268218235 L 35.676035319887774 114.02199692812917 L 35.43340714418179 113.98391247584823 L 35.19163355998977 113.944733133753 L 34.95073874446863 113.90446281974506 L 34.71074678689919 113.86310556082225 L 34.47168168627722 113.82066549267599 L 34.23356734891355 113.77714685927774 L 33.9964275860435 113.73255401245454 L 33.76028611144573 113.68689141145396 L 33.52516653907092 113.64016362249802 L 33.29109238068039 113.59237531832667 L 33.05808704349489 113.54353127773052 L 32.82617382785399 113.49363638507293 L 32.59537592488599 113.44269562980158 L 32.36571641418885 113.39071410594954 L 32.13721826152226 113.33769701162588 L 31.909904316511064 113.28364964849587 L 31.683797310360347 113.22857742125075 L 31.458919853582298 113.17248583706737 L 31.2352944337352 113.1153805050574 L 31.012943413174675 113.05726713570647 L 30.791889026817497 112.99815154030306 L 30.572153379918085 112.93803963035747 L 30.35375844585802 112.8769374170106 L 30.136726063948714 112.81485101043285 L 29.92107793724749 112.75178661921315 L 29.70683563038732 112.68775054973807 L 29.49402056742035 112.6227492055612 L 29.282654029675534 112.55678908676278 L 29.072757153630512 112.48987678929973 L 28.864350928797972 112.42201900434601 L 28.65745619562672 112.3532225176236 L 28.452093643417673 112.28349420872384 L 28.248283808254904 112.2128410504195 L 28.046047070952103 112.14127010796754 L 27.845403655014458 112.06878853840256 L 27.646373624616363 111.99540358982111 L 27.448976882595 111.9211226006569 L 27.25323316846008 111.84595299894696 L 27.059162056419897 111.76990230158879 L 26.866782953423918 111.69297811358877 L 26.67611509722214 111.6151881273016 L 26.487177554441292 111.53654012166106 L 26.299989218678196 111.45704196140221 L 26.114568808610446 111.3767015962748 L 25.930934866124534 111.2955270602484 L 25.74910575446167 111.21352647070897 L 25.56909965638151 111.13070802764713 L 25.39093457234385 111.04708001283818 L 25.214628318708623 110.96265078901389 L 25.040198525954274 110.8774287990263 L 24.86766263691472 110.79142256500339 L 24.697037905035085 110.70464068749688 L 24.52834139264637 110.61709184462221 L 24.36158996925924 110.52878479119072 L 24.19680030987706 110.43972835783416 L 24.03398889332846 110.34993145012163 L 23.873172000619405 110.2594030476691 L 23.714365713305163 110.16815220324135 L 23.55758591188212 110.0761880418468 L 23.40284827419978 109.98351975982494 L 23.25016827389295 109.89015662392677 L 23.099561178834435 109.79610797038806 L 22.951042049608233 109.70138320399579 L 22.80462573800351 109.60599179714767 L 22.660326885529397 109.50994328890488 L 22.518159921950904 109.4132472840382 L 22.378139063845914 109.31591345206758 L 22.240278313183552 109.21795152629505 L 22.104591455924005 109.11937130283158 L 21.971092060639926 109.02018263961737 L 21.83979347715959 108.92039545543608 L 21.710708835231934 108.82001972892296 L 21.583851043213578 108.71906549756703 L 21.459232786778013 108.6175428567073 L 21.33686652764703 108.51546195852325 L 21.216764502344574 108.41283301101961 L 21.098938720973088 108.30966627700563 L 20.983400966012525 108.20597207306875 L 20.870162791142096 108.10176076854292 L 20.759235520084925 107.99704278447177 L 20.650630245475675 107.89182859256644 L 20.54435782775131 107.78612871415844 L 20.440428894065036 107.67995371914753 L 20.338853837223617 107.57331422494474 L 20.239642814648093 107.4662208954106 L 20.142805747358043 107.35868443978885 L 20.048352318979504 107.2507156116354 L 19.956291974776594 107.14232520774314 L 19.866633920707027 107.0335240670621 L 19.779387122501486 106.92432306961568 L 19.69456030476709 106.81473313541265 L 19.612161950114924 106.70476522335508 L 19.53220029831179 106.59443033014256 L 19.45468334545623 106.48373948917244 L 19.379618843178932 106.37270376943658 L 19.307014297867575 106.26133427441445 L 19.23687696991618 106.14964214096271 L 19.1692138729991 106.03763853820165 L 19.10403177336964 105.92533466639821 L 19.041337189183448 105.81274175584596 L 18.98113638984669 105.69987106574217 L 18.923435395389134 105.58673388306175 L 18.868239975862142 105.47334152142872 L 18.815555650761674 105.35970531998473 L 18.765387688476338 105.24583664225523 L 18.71774110576055 105.1317468750131 L 18.672620667232877 105.01744742714001 L 18.630030884899575 104.90294972848548 L 18.58997601770339 104.78826522872397 L 18.55246007109765 104.67340539620987 L 18.517486796645763 104.55838171683074 L 18.485059691646022 104.44320569285864 L 18.455181998781914 104.3278888418 L 18.42785670579782 104.21244269524384 L 18.40308654520027 104.09687879770858 L 18.380873993984686 103.9812087054877 L 18.36122127338767 103.86544398549403 L 18.34413034866491 103.74959621410306 L 18.329602928894637 103.63367697599544 L 18.317640466806715 103.51769786299836 L 18.308244158637397 103.40167047292647 L 18.301414944009657 103.28560640842208 L 18.297153505839276 103.16951727579495 L 18.29546027026651 103.05341468386156" stroke-miterlimit="10" stroke-width="2.990598758" stroke-dasharray=""/></g><g><g/><text fill="black" stroke="none" font-family="sans-serif" font-size="11pt" font-style="normal" font-weight="normal" text-decoration="normal" x="26.912725943237305" y="133.521438666" text-anchor="start" dominant-baseline="alphabetic">Brain</text></g><g><path fill="white" stroke="black" paint-order="fill stroke markers" d=" M 241.91437168034372 64.385832084 A 10.027301717999999 10.027301717999999 0 1 1 241.9143666666933 64.37580478395321 M 231.88706996234373 74.41313380199999 L 231.88706996234373 95.87507782999998 M 219.22100463434373 82.153507058 L 244.55313529034373 82.153507058 M 231.88706996234373 95.87507782999998 L 219.22100463434373 115.92968126599999 M 231.88706996234373 95.87507782999998 L 244.55313529034373 115.92968126599999" stroke-miterlimit="10" stroke-width="2.990598758" stroke-dasharray=""/></g><g><g/><text fill="black" stroke="none" font-family="sans-serif" font-size="11pt" font-style="normal" font-weight="normal" text-decoration="normal" x="216.4537365654321" y="133.521438666" text-anchor="start" dominant-baseline="alphabetic">User</text></g><path fill="none" stroke="none"/><g><path fill="white" stroke="black" paint-order="fill stroke markers" d=" M 528.0447021264752 91.301220906 L 609.2854813338893 91.301220906 L 609.2854813338893 138.798965886 L 528.0447021264752 138.798965886 L 528.0447021264752 91.301220906 Z" stroke-miterlimit="10" stroke-width="2.814681184" stroke-dasharray=""/></g><g><g/><text fill="black" stroke="none" font-family="sans-serif" font-size="11pt" font-style="normal" font-weight="normal" text-decoration="normal" x="547.1317589054752" y="121.207208486" text-anchor="start" dominant-baseline="alphabetic">Server</text></g><g><path fill="white" stroke="black" paint-order="fill stroke markers" d=" M 803.7258072399192 104.31912138199999 L 803.7258072399192 67.37643084199999 L 855.0937388479191 67.37643084199999 L 855.0937388479191 104.31912138199999" stroke-miterlimit="10" stroke-width="2.990598758" stroke-dasharray=""/><path fill="white" stroke="black" paint-order="fill stroke markers" d=" M 855.0937388479191 66.0922325518 L 855.0924546603305 66.20833621555636 L 855.0886022259825 66.3244282690431 L 855.0821819301152 66.4404971031516 L 855.0731944147528 66.5565311110952 L 855.0616405786395 66.67251868956978 L 855.0475215771493 66.78844823991415 L 855.0308388221704 66.9043081692699 L 855.0115939819644 67.0200868917406 L 854.9897889809995 67.13577282955055 L 854.9654259997575 67.25135441420231 L 854.9385074745162 67.36682008763378 L 854.9090360971057 67.48215830337381 L 854.8770148146392 67.59735752769696 L 854.8424468292183 67.71240624077679 L 854.8053355976126 67.82729293783784 L 854.7656848309146 67.94200613030618 L 854.7234984941676 68.05653434695814 L 854.6787808059703 68.1708661350675 L 854.6315362380543 68.28499006155073 L 854.5817695148369 68.39889471411026 L 854.529485612949 68.51256870237577 L 854.4746897607372 68.62600065904317 L 854.4173874377411 68.73917924101131 L 854.3575843741453 68.85209313051632 L 854.2952865502061 68.96473103626333 L 854.2305001956543 69.07708169455563 L 854.1632317890711 69.18913387042103 L 854.0934880572412 69.3008763587353 L 854.0212759744796 69.41229798534273 L 853.9466027619346 69.52338760817354 L 853.8694758868651 69.63413411835798 L 853.7899030618942 69.74452644133734 L 853.7078922442382 69.85455353797133 L 853.6234516349107 69.96420440564195 L 853.5365896779019 70.07346807935382 L 853.4473150593354 70.18233363283062 L 853.3556367065986 70.29079017960771 L 853.2615637874503 70.39882687412083 L 853.1651057091042 70.50643291279052 L 853.0662721172874 70.6135975351026 L 852.9650728952771 70.72031002468414 L 852.861518162911 70.82655971037511 L 852.7556182755761 70.93233596729549 L 852.6473838231728 71.03762821790771 L 852.5368256290561 71.14242593307448 L 852.4239547489535 71.2467186331116 L 852.3087824698588 71.35049588883598 L 852.1913203089039 71.45374732260854 L 852.071580012207 71.55646260937192 L 851.9495735536982 71.65863147768304 L 851.8253131339214 71.76024371074024 L 851.6988111788152 71.86128914740488 L 851.5700803384697 71.96175768321748 L 851.4391334858615 72.0616392714082 L 851.3059837155669 72.16092392390144 L 851.170644342452 72.25960171231469 L 851.0331289003411 72.35766276895136 L 850.893451140664 72.45509728778748 L 850.7516250310803 72.55189552545237 L 850.6076647540826 72.64804780220294 L 850.4615847055788 72.74354450289161 L 850.3133994934519 72.83837607792793 L 850.1631239360997 72.93253304423341 L 850.0107730609527 73.02600598618986 L 849.8563621029715 73.118785556581 L 849.6999065031231 73.21086247752712 L 849.5414219068372 73.30222754141282 L 849.3809241624413 73.39287161180788 L 849.2184293195761 73.48278562438078 L 849.0539536275904 73.5719605878052 L 848.8875135339166 73.66038758465909 L 848.7191256824251 73.74805777231649 L 848.548806911761 73.83496238383165 L 848.376574253659 73.92109272881588 L 848.2024449312418 74.00644019430642 L 848.0264363572963 74.09099624562788 L 847.8485661325333 74.17475242724555 L 847.6688520438271 74.2577003636111 L 847.4873120624368 74.33983176 L 847.303964342209 74.42113840334106 L 847.1188272177634 74.50161216303769 L 846.9319192026578 74.58124499178099 L 846.7432589875381 74.66002892635444 L 846.5528654382684 74.73795608843025 L 846.3607575940454 74.81501868535715 L 846.166954665493 74.89120901093965 L 845.9714760327427 74.9665194462087 L 845.774341243495 75.0409424601835 L 845.5755700110643 75.11447061062472 L 845.3751822124084 75.18709654477856 L 845.1731978861401 75.25881300011211 L 844.9696372305237 75.32961280503964 L 844.7645206014553 75.39948887963963 L 844.5578685104265 75.46843423636287 L 844.3497016224745 75.53644198073111 L 844.1400407541147 75.60350531202661 L 843.9289068712588 75.66961752397214 L 843.7163210871196 75.73477200540155 L 843.5023046600982 75.79896224092104 L 843.2868789916588 75.86218181156053 L 843.0700656241888 75.92442439541566 L 842.8518862388444 75.98568376827987 L 842.6323626533822 76.04595380426694 L 842.4115168199779 76.10522847642352 L 842.1893708230307 76.16350185733178 L 841.9659468769552 76.22076811970217 L 841.7412673239598 76.27702153695618 L 841.5153546318127 76.33225648379899 L 841.2882313915948 76.38646743678191 L 841.0599203154406 76.43964897485485 L 840.8304442342679 76.49179577990829 L 840.5998260954932 76.54290263730519 L 840.3680889607385 76.59296443640241 L 840.135256003524 76.64197617106174 L 839.9013505069513 76.68993294015058 L 839.6663958613752 76.73682994803197 L 839.4304155620647 76.7826625050442 L 839.1934332068528 76.82742602796976 L 838.9554724937776 76.87111604049369 L 838.7165572187122 76.91372817365111 L 838.476711272985 76.95525816626423 L 838.2359586409905 76.99570186536839 L 837.9943233977915 77.03505522662739 L 837.7518297067109 77.0733143147379 L 837.5085018169157 77.11047530382298 L 837.2643640609921 77.1465344778147 L 837.0194408525123 77.1814882308257 L 836.773756683593 77.21533306750982 L 836.5273361224463 77.24806560341159 L 836.280203810923 77.2796825653047 L 836.0323844620485 77.31018079151929 L 835.7839028575509 77.33955723225817 L 835.5347838453837 77.36780894990176 L 835.2850523372406 77.3949331193018 L 835.0347333060641 77.42092702806399 L 834.7838517835489 77.44578807681908 L 834.5324328576381 77.46951377948295 L 834.2805016700148 77.49210176350509 L 834.0280834135879 77.51354977010593 L 833.7752033299724 77.53385565450264 L 833.5218867069664 77.55301738612376 L 833.2681588760207 77.57103304881205 L 833.0140452097071 77.58790084101629 L 832.7595711191805 77.6036190759713 L 832.5047620516378 77.61818618186668 L 832.2496434877736 77.63160070200398 L 831.9942409392315 77.64386129494237 L 831.7385799460535 77.65496673463277 L 831.4826860741261 77.66491591054046 L 831.226584912623 77.67370782775615 L 830.9703020714471 77.68134160709545 L 830.7138631786688 77.68781648518677 L 830.4572938779639 77.6931318145477 L 830.2006198260484 77.69728706364975 L 829.9438666901139 77.70028181697145 L 829.6870601452596 77.70211577504 L 829.4302258719264 77.70278875446107 L 829.1733895533274 77.70230068793732 L 828.9165768728805 77.70065162427498 L 828.6598135116396 77.69784172837903 L 828.4031251457271 77.69387128123674 L 828.1465374437655 77.68874067988952 L 827.8900760643112 77.68245043739319 L 827.6337666532885 77.6750011827668 L 827.3776348414249 77.66639366092959 L 827.121706241688 77.65662873262656 L 826.8660064467247 77.64570737434241 L 826.6105610263012 77.63363067820387 L 826.3553955247469 77.6203998518705 L 826.1005354583991 77.60601621841388 L 825.8460063130523 77.59048121618541 L 825.5918335414087 77.57379639867233 L 825.3380425605338 77.5559634343425 L 825.0846587493141 77.53698410647749 L 824.8317074459196 77.51686031299428 L 824.57921394527 77.49559406625544 L 824.3272034965047 77.47318749286792 L 824.0757013004586 77.44964283347039 L 823.8247325071419 77.42496244250918 L 823.5743222132247 77.3991487880028 L 823.3244954595276 77.3722044512952 L 823.0752772285181 77.3441321267976 L 822.8266924418112 77.31493462171906 L 822.5787659576787 77.28461485578573 L 822.3315225685624 77.25317586094897 L 822.084986998595 77.22062078108203 L 821.8391839011283 77.18695287166581 L 821.594137856267 77.15217549946317 L 821.3498733684114 77.11629214218235 L 821.1064148638069 77.07930638812917 L 820.863786688101 77.04122193584823 L 820.6220131039089 77.002042593753 L 820.3811182883877 76.96177227974506 L 820.1411263308183 76.92041502082225 L 819.9020612301963 76.87797495267598 L 819.6639468928327 76.83445631927773 L 819.4268071299626 76.78986347245454 L 819.1906656553649 76.74420087145396 L 818.95554608299 76.69747308249802 L 818.7214719245995 76.64968477832667 L 818.488466587414 76.60084073773052 L 818.2565533717732 76.55094584507293 L 818.0257554688051 76.50000508980158 L 817.796095958108 76.44802356594954 L 817.5675978054414 76.39500647162588 L 817.3402838604302 76.34095910849587 L 817.1141768542794 76.28588688125075 L 816.8892993975014 76.22979529706737 L 816.6656739776544 76.1726899650574 L 816.4433229570938 76.11457659570647 L 816.2222685707367 76.05546100030305 L 816.0025329238372 75.99534909035746 L 815.7841379897772 75.9342468770106 L 815.5671056078678 75.87216047043285 L 815.3514574811666 75.80909607921315 L 815.1372151743064 75.74506000973807 L 814.9244001113395 75.6800586655612 L 814.7130335735947 75.61409854676278 L 814.5031366975496 75.54718624929973 L 814.2947304727171 75.47932846434601 L 814.0878357395459 75.4105319776236 L 813.8824731873368 75.34080366872384 L 813.678663352174 75.2701505104195 L 813.4764266148712 75.19857956796754 L 813.2757831989336 75.12609799840256 L 813.0767531685354 75.05271304982111 L 812.8793564265142 74.9784320606569 L 812.6836127123792 74.90326245894695 L 812.4895416003391 74.82721176158879 L 812.297162497343 74.75028757358876 L 812.1064946411412 74.67249758730159 L 811.9175570983605 74.59384958166106 L 811.7303687625973 74.51435142140221 L 811.5449483525296 74.4340110562748 L 811.3613144100436 74.3528365202484 L 811.1794852983808 74.27083593070897 L 810.9994792003006 74.18801748764713 L 810.821314116263 74.10438947283818 L 810.6450078626277 74.01996024901389 L 810.4705780698735 73.9347382590263 L 810.2980421808338 73.84873202500339 L 810.1274174489542 73.76195014749688 L 809.9587209365656 73.67440130462221 L 809.7919695131784 73.58609425119072 L 809.6271798537962 73.49703781783415 L 809.4643684372476 73.40724091012163 L 809.3035515445385 73.3167125076691 L 809.1447452572243 73.22546166324135 L 808.9879654558013 73.1334975018468 L 808.8332278181189 73.04082921982494 L 808.6805478178121 72.94746608392677 L 808.5299407227535 72.85341743038806 L 808.3814215935274 72.75869266399579 L 808.2350052819227 72.66330125714767 L 808.0907064294486 72.56725274890488 L 807.94853946587 72.4705567440382 L 807.808518607765 72.37322291206758 L 807.6706578571027 72.27526098629505 L 807.5349709998432 72.17668076283158 L 807.4014716045591 72.07749209961737 L 807.2701730210787 71.97770491543608 L 807.141088379151 71.87732918892296 L 807.0142305871327 71.77637495756703 L 806.8896123306971 71.6748523167073 L 806.7672460715662 71.57277141852325 L 806.6471440462637 71.47014247101961 L 806.5293182648923 71.36697573700563 L 806.4137805099317 71.26328153306875 L 806.3005423350612 71.15907022854292 L 806.1896150640041 71.05435224447177 L 806.0810097893948 70.94913805256644 L 805.9747373716705 70.84343817415844 L 805.8708084379841 70.73726317914753 L 805.7692333811427 70.63062368494474 L 805.6700223585672 70.5235303554106 L 805.5731852912771 70.41599389978884 L 805.4787318628986 70.3080250716354 L 805.3866715186957 70.19963466774314 L 805.2970134646262 70.0908335270621 L 805.2097666664206 69.98163252961568 L 805.1249398486863 69.87204259541265 L 805.042541494034 69.76207468335508 L 804.9625798422309 69.65173979014256 L 804.8850628893754 69.54104894917243 L 804.8099983870981 69.43001322943658 L 804.7373938417867 69.31864373441445 L 804.6672565138354 69.20695160096271 L 804.5995934169182 69.09494799820165 L 804.5344113172888 68.98264412639821 L 804.4717167331025 68.87005121584596 L 804.4115159337658 68.75718052574217 L 804.3538149393082 68.64404334306175 L 804.2986195197813 68.53065098142872 L 804.2459351946808 68.41701477998473 L 804.1957672323955 68.30314610225523 L 804.1481206496796 68.1890563350131 L 804.103000211152 68.07475688714001 L 804.0604104288187 67.96025918848548 L 804.0203555616225 67.84557468872397 L 803.9828396150168 67.73071485620987 L 803.9478663405649 67.61569117683074 L 803.9154392355651 67.50051515285864 L 803.885561542701 67.3851983018 L 803.8582362497169 67.26975215524384 L 803.8334660891194 67.15418825770858 L 803.8112535379038 67.0385181654877 L 803.7916008173067 66.92275344549402 L 803.7745098925841 66.80690567410306 L 803.7599824728138 66.69098643599544 L 803.7480200107259 66.57500732299836 L 803.7386237025565 66.45897993292647 L 803.7317944879288 66.34291586842208 L 803.7275330497584 66.22682673579494 L 803.7258398141856 66.11072414386156 L 803.7267149505326 65.99461970278438 L 803.7301583712865 65.87852502291076 L 803.736169732108 65.76245171361194 L 803.7447484318661 65.64641138212212 L 803.755893612698 65.53041563237775 L 803.7696041600948 65.41447606385715 L 803.7858787030133 65.29860427042055 L 803.8047156140127 65.18281183915073 L 803.8261130094176 65.06711034919432 L 803.8500687495062 64.95151137060391 L 803.8765804387248 64.83602646318103 L 803.9056454259261 64.72066717532017 L 803.9372608046359 64.60544504285399 L 803.9714234133427 64.49037158789972 L 804.0081298358139 64.37545831770696 L 804.047376401438 64.26071672350696 L 804.089159185591 64.14615827936355 L 804.1334740100294 64.03179444102564 L 804.1803164433078 63.917636644781794 L 804.2296818012217 63.80369630631649 L 804.2815651472765 63.68998481956863 L 804.335961293181 63.57651355559212 L 804.3928647993656 63.46329386141881 L 804.4522699755274 63.35033705892376 L 804.5141708811983 63.237654443693096 L 804.578561326339 63.125257283894435 L 804.645434871959 63.0131568191501 L 804.7147848307593 62.90136425941313 L 804.7866042678017 62.78989078384635 L 804.8608860012026 62.67874753970443 L 804.9376226028504 62.567945641219154 L 805.016806399149 62.45749616848805 L 805.0984294717846 62.34741016636633 L 805.182483658518 62.23769864336248 L 805.2689605540006 62.12837257053737 L 805.357851510615 62.01944288040719 L 805.4491476393393 61.91092046585016 L 805.5428398106371 61.80281617901732 L 805.6389186553693 61.69514083024725 L 805.7373745657312 61.587905186985104 L 805.838197696214 61.48111997270584 L 805.9413779645888 61.37479586584192 L 806.0469050529144 61.2689434987154 L 806.1547684085702 61.16357345647479 L 806.2649572453105 61.05869627603652 L 806.3774605443433 60.954322445031224 L 806.4922670554325 60.85046240075503 L 806.6093652980228 60.74712652912581 L 806.7287435623874 60.644325163644616 L 806.8503899107993 60.54206858436233 L 806.974292178725 60.44036701685167 L 807.1004379760412 60.339230631184634 L 807.2288146882731 60.2386695409155 L 807.3594094778565 60.138693802069504 L 807.4922092854212 60.03931341213722 L 807.6272008310972 59.94053830907482 L 807.7643706158424 59.84237837031029 L 807.9037049227927 59.74484341175572 L 808.0451898186334 59.64794318682568 L 808.1888111549928 59.55168738546191 L 808.3345545698571 59.45608563316434 L 808.4824054890062 59.361147490028536 L 808.6323491274713 59.266882449789684 L 808.7843704910136 59.173299938873264 L 808.9384543776234 59.08040931545237 L 809.0945853790405 58.988219868511955 L 809.2527478822949 58.89674081691987 L 809.4129260712679 58.805981308505054 L 809.5751039282742 58.715950419142715 L 809.7392652356632 58.62665715184676 L 809.9053935774409 58.5381104358695 L 810.0734723409118 58.450319125808754 L 810.2434847183395 58.36329200072237 L 810.4154137086277 58.277037763250334 L 810.589242119021 58.19156503874451 L 810.7649525668231 58.10688237440612 L 810.9425274811356 58.022998238431036 L 811.1219491046149 57.93992101916295 L 811.3031994952486 57.85765902425456 L 811.4862605281481 57.776220479836795 L 811.6711138973632 57.695613529696246 L 811.8577411177107 57.61584623446075 L 812.0461235266242 57.536926570793355 L 812.2362422860198 57.45886243059466 L 812.4280783841799 57.381661620213634 L 812.6216126376546 57.30533185966698 L 812.8168256931799 57.229880781867145 L 813.0136980296128 57.155315931859036 L 813.2122099598838 57.08164476606552 L 813.4123416329653 57.008874651541774 L 813.6140730358567 56.93701286523862 L 813.8173839955859 56.866066593274795 L 814.0222541812263 56.79604293021838 L 814.2286631059301 56.726948878377314 L 814.4365901289768 56.658791347099225 L 814.6460144578374 56.591577152080426 L 814.8569151502535 56.525313014684414 L 815.0692711163317 56.4600055612697 L 815.2830611206522 56.39566132252722 L 815.4982637843929 56.332286732827214 L 815.7148575874666 56.26988812957585 L 815.9328208706735 56.20847175258144 L 816.1521318378669 56.14804374343051 L 816.3727685581331 56.08861014487363 L 816.5947089679837 56.03017690022111 L 816.8179308735627 55.972749852748734 L 817.0424119528655 55.91633474511339 L 817.2681297579713 55.86093721877882 L 817.4950617172877 55.80656281345151 L 817.723185137808 55.753216966526665 L 817.9524772073801 55.70090501254454 L 818.182914996988 55.649632182656916 L 818.4144754630449 55.59940360410408 L 818.6471354496973 55.550224299702016 L 818.8808716911402 55.50209918734018 L 819.1156608139444 55.45503307948971 L 819.3514793393932 55.40903068272217 L 819.5883036858305 55.3640965972389 L 819.8261101710191 55.320235316411 L 820.0648750145086 55.27745122633 L 820.3045743400138 55.23574860536927 L 820.5451841778016 55.19513162375613 L 820.7866804670889 55.15560434315492 L 821.029039058448 55.11717071626074 L 821.2722357162218 55.07983458640426 L 821.516246120947 55.04359968716735 L 821.7610458717867 55.00846964200974 L 822.0066104889696 54.974447963906684 L 822.2529154162387 54.941538054997615 L 822.4999360233066 54.90974320624601 L 822.7476476083184 54.87906659711026 L 822.996025400322 54.849511295225696 L 823.2450445617451 54.82108025609789 L 823.4946801908792 54.79377632280706 L 823.7449073243694 54.76760222572378 L 823.9957009397109 54.742560582235946 L 824.247035957751 54.71865389648704 L 824.4988872451975 54.695884559125716 L 824.7512296171315 54.674254847066734 L 825.0040378395261 54.65376692326327 L 825.2572866317696 54.63442283649064 L 825.510950669194 54.616224521141405 L 825.7650045856069 54.59917379703192 L 826.0194229758282 54.583272369220396 L 826.2741803982311 54.56852182783636 L 826.5292513772856 54.55492364792166 L 826.7846104061064 54.54247918928296 L 827.0402319490032 54.53118969635575 L 827.296090444035 54.52105629807991 L 827.5521603055654 54.51208000778683 L 827.8084159268216 54.504261723098054 L 828.064831682455 54.497602225835536 L 828.3213819311038 54.49210218194346 L 828.5780410179569 54.487762141421626 L 828.8347832773195 54.484582538270466 L 829.0915830351795 54.482563690447655 L 829.3484146117753 54.481705799836284 L 829.6052523241632 54.4820089522247 L 829.862070488786 54.48347311729792 L 830.1188434240412 54.486098148640664 L 830.3755454528492 54.48988378375197 L 830.6321509052212 54.49482964407149 L 830.8886341208257 54.50093523501731 L 831.1449694515549 54.50819994603543 L 831.4011312640893 54.5166230506608 L 831.6570939424612 54.52620370658997 L 831.912831890616 54.53694095576534 L 832.1683195349718 54.54883372447093 L 832.4235313269776 54.56188082343979 L 832.6784417456663 54.5760809479729 L 832.9330253002088 54.591432678069616 L 833.1872565324617 54.607934478569746 L 833.4411100195136 54.62558469930698 L 833.6945603762275 54.644381575273954 L 833.9475822577787 54.66432322679874 L 834.20015036219 54.685407659732796 L 834.4522394328616 54.70763276565041 L 834.7038242610962 54.7309963220595 L 834.9548796886207 54.75549599262389 L 835.2053806101018 54.78112932739696 L 835.4553019756559 54.80789376306658 L 835.7046187933547 54.83578662321149 L 835.9533061317243 54.86480511856891 L 836.201339122238 54.89494634731351 L 836.4486929618035 54.9262072953475 L 836.695342915243 54.95858483660216 L 836.9412643177666 54.99207573335032 L 837.1864325774391 55.02667663653023 L 837.4308231776388 55.0623840860804 L 837.6744116795091 55.09919451128564 L 837.9171737244033 55.13710423113409 L 838.1590850363187 55.17610945468536 L 838.400121424326 55.2162062814496 L 838.6402587849873 55.25739070177756 L 838.8794731047665 55.29965859726151 L 839.1177404624309 55.34300574114714 L 839.3550370314434 55.38742779875617 L 839.5913390823449 55.43292032791987 L 839.8266229851272 55.47947877942322 L 840.060865211596 55.527098497459875 L 840.294042337724 55.57577472009772 L 840.5261310459928 55.62550257975505 L 840.7571081277249 55.67627710368733 L 840.9869504854047 55.728093214484495 L 841.215635134988 55.78094573057864 L 841.4431392082004 55.83482936676219 L 841.6694399548242 55.88973873471644 L 841.8945147449731 55.945668343550345 L 842.118341071356 56.002612600349636 L 842.3408965515265 56.06056581073608 L 842.5621589301221 56.11952217943694 L 842.7821060810894 56.179475810864474 L 843.0007160098966 56.24042070970549 L 843.2179668557329 56.30235078152091 L 843.4338368936948 56.36525983335514 L 843.6483045369584 56.42914157435544 L 843.8613483389381 56.49398961640093 L 844.0729469954313 56.55979747474145 L 844.2830793467487 56.62655856864601 L 844.49172437983 56.69426622206085 L 844.698861230346 56.76291366427705 L 844.9044691847843 56.83249403060759 L 845.1085276825206 56.903000363073836 L 845.3110163178754 56.97442561110128 L 845.5119148421538 57.04676263222465 L 845.7112031656708 57.120004192802114 L 845.9088613597601 57.19414296873864 L 846.1048696587669 57.26917154621842 L 846.2992084620248 57.34508242244624 L 846.4918583358154 57.421868006397716 L 846.6828000153118 57.49952061957846 L 846.8720144065053 57.57803249679186 L 847.0594825881142 57.657395786915615 L 847.2451858134768 57.73760255368685 L 847.4291055124253 57.81864477649573 L 847.611223293143 57.9005143511875 L 847.7915209440035 57.983203090872934 L 847.9699804353921 58.06670272674695 L 848.1465839215084 58.15100490891555 L 848.3213137421508 58.23610120723078 L 848.494152424483 58.32198311213371 L 848.6650826847808 58.408642035505416 L 848.8340874301605 58.49606931152578 L 849.0011497602884 58.58425619754006 L 849.1662529690708 58.67319387493313 L 849.3293805463244 58.76287345001139 L 849.4905161794273 58.853285954892044 L 849.6496437549506 58.944422348399954 L 849.8067473602694 59.03627351697172 L 849.9618112851538 59.12883027556701 L 850.1148200233408 59.222083368587114 L 850.265758274084 59.31602347080044 L 850.4146109436841 59.41064118827504 L 850.5613631469982 59.50592705931801 L 850.7060002089282 59.60187155542167 L 850.8485076658886 59.698465082216345 L 850.9888712672523 59.79569798042986 L 851.1270769767763 59.89356052685341 L 851.2631109740046 59.99204293531392 L 851.3969596556509 60.0911353576526 L 851.5286096369587 60.1908278847098 L 851.6580477530395 60.29111054731588 L 851.7852610601896 60.39197331728817 L 851.9102368371841 60.4934061084337 L 852.0329625865497 60.5953987775579 L 852.1534260358136 60.69794112547884 L 852.2716151387314 60.80102289804719 L 852.387518076491 60.90463378717158 L 852.5011232588955 61.00876343184945 L 852.6124193255213 61.113401419203115 L 852.7213951468543 61.218537285521016 L 852.8280398254034 61.32416051730415 L 852.9323426967894 61.43026055231736 L 853.0342933308123 61.53682678064554 L 853.1338815324934 61.643848545754686 L 853.2310973430957 61.75131514555746 L 853.3259310411192 61.85921583348345 L 853.418373143273 61.96753981955375 L 853.508414405424 62.07627627146005 L 853.596045823521 62.18541431564777 L 853.6812586344952 62.29494303840343 L 853.7640443171364 62.404851486946036 L 853.8443945929455 62.515128670522316 L 853.9223014269618 62.62576356150581 L 853.9977570285669 62.736745096499625 L 854.0707538522634 62.84806217744274 L 854.1412845984298 62.959703672719826 L 854.2093422140504 63.07165841827438 L 854.27491989342 63.18391521872516 L 854.3380110788257 63.29646284848565 L 854.3986094612013 63.409290052886675 L 854.4567089807592 63.52238554930181 L 854.5123038275958 63.63573802827567 L 854.5653884422727 63.7493361546548 L 854.6159575163726 63.86316856872124 L 854.6640059930305 63.97722388732845 L 854.7095290674386 64.09149070503959 L 854.7525221873274 64.20595759526815 L 854.7929810534207 64.32061311142046 L 854.8309016198657 64.43544578804045 L 854.8662800946372 64.55044414195618 L 854.8991129399175 64.66559667342807 L 854.929396872449 64.78089186729893 L 854.9571288638641 64.89631819414548 L 854.9823061409866 65.0118641114312 L 855.0049261861097 65.12751806466063 L 855.0249867372478 65.24326848853487 L 855.0424857883626 65.35910380810796 L 855.0574215895634 65.47501243994449 L 855.0697926472826 65.59098279327785 L 855.0795977244248 65.70700327116936 L 855.0868358404904 65.8230622716679 L 855.0915062716738 65.93914818897015 L 855.0936085509358 66.05524941458111 M 855.0937388479191 103.0349230918 L 855.0924546603305 103.15102675555636 L 855.0886022259825 103.2671188090431 L 855.0821819301152 103.3831876431516 L 855.0731944147528 103.4992216510952 L 855.0616405786395 103.61520922956979 L 855.0475215771493 103.73113877991415 L 855.0308388221704 103.8469987092699 L 855.0115939819644 103.9627774317406 L 854.9897889809995 104.07846336955055 L 854.9654259997575 104.19404495420231 L 854.9385074745162 104.30951062763378 L 854.9090360971057 104.42484884337381 L 854.8770148146392 104.54004806769696 L 854.8424468292183 104.65509678077679 L 854.8053355976126 104.76998347783784 L 854.7656848309146 104.88469667030618 L 854.7234984941676 104.99922488695815 L 854.6787808059703 105.1135566750675 L 854.6315362380543 105.22768060155073 L 854.5817695148369 105.34158525411026 L 854.529485612949 105.45525924237577 L 854.4746897607372 105.56869119904317 L 854.4173874377411 105.68186978101132 L 854.3575843741453 105.79478367051632 L 854.2952865502061 105.90742157626333 L 854.2305001956543 106.01977223455563 L 854.1632317890711 106.13182441042103 L 854.0934880572412 106.2435668987353 L 854.0212759744796 106.35498852534273 L 853.9466027619346 106.46607814817354 L 853.8694758868651 106.57682465835798 L 853.7899030618942 106.68721698133734 L 853.7078922442382 106.79724407797133 L 853.6234516349107 106.90689494564195 L 853.5365896779019 107.01615861935382 L 853.4473150593354 107.12502417283062 L 853.3556367065986 107.23348071960771 L 853.2615637874503 107.34151741412083 L 853.1651057091042 107.44912345279052 L 853.0662721172874 107.5562880751026 L 852.9650728952771 107.66300056468414 L 852.861518162911 107.76925025037511 L 852.7556182755761 107.87502650729549 L 852.6473838231728 107.98031875790771 L 852.5368256290561 108.08511647307448 L 852.4239547489535 108.1894091731116 L 852.3087824698588 108.29318642883598 L 852.1913203089039 108.39643786260854 L 852.071580012207 108.49915314937192 L 851.9495735536982 108.60132201768305 L 851.8253131339214 108.70293425074024 L 851.6988111788152 108.80397968740488 L 851.5700803384697 108.90444822321749 L 851.4391334858615 109.0043298114082 L 851.3059837155669 109.10361446390144 L 851.170644342452 109.20229225231469 L 851.0331289003411 109.30035330895136 L 850.893451140664 109.39778782778748 L 850.7516250310803 109.49458606545237 L 850.6076647540826 109.59073834220294 L 850.4615847055788 109.68623504289161 L 850.3133994934519 109.78106661792793 L 850.1631239360997 109.87522358423341 L 850.0107730609527 109.96869652618986 L 849.8563621029715 110.061476096581 L 849.6999065031231 110.15355301752712 L 849.5414219068372 110.24491808141282 L 849.3809241624413 110.33556215180788 L 849.2184293195761 110.42547616438078 L 849.0539536275904 110.5146511278052 L 848.8875135339166 110.60307812465909 L 848.7191256824251 110.69074831231649 L 848.548806911761 110.77765292383165 L 848.376574253659 110.86378326881588 L 848.2024449312418 110.94913073430642 L 848.0264363572963 111.03368678562788 L 847.8485661325333 111.11744296724555 L 847.6688520438271 111.2003909036111 L 847.4873120624368 111.2825223 L 847.303964342209 111.36382894334106 L 847.1188272177634 111.44430270303769 L 846.9319192026578 111.52393553178099 L 846.7432589875381 111.60271946635444 L 846.5528654382684 111.68064662843025 L 846.3607575940454 111.75770922535715 L 846.166954665493 111.83389955093965 L 845.9714760327427 111.9092099862087 L 845.774341243495 111.9836330001835 L 845.5755700110643 112.05716115062472 L 845.3751822124084 112.12978708477856 L 845.1731978861401 112.20150354011211 L 844.9696372305237 112.27230334503965 L 844.7645206014553 112.34217941963963 L 844.5578685104265 112.41112477636287 L 844.3497016224745 112.47913252073111 L 844.1400407541147 112.54619585202661 L 843.9289068712588 112.61230806397214 L 843.7163210871196 112.67746254540155 L 843.5023046600982 112.74165278092104 L 843.2868789916588 112.80487235156053 L 843.0700656241888 112.86711493541566 L 842.8518862388444 112.92837430827987 L 842.6323626533822 112.98864434426694 L 842.4115168199779 113.04791901642352 L 842.1893708230307 113.10619239733178 L 841.9659468769552 113.16345865970217 L 841.7412673239598 113.21971207695618 L 841.5153546318127 113.27494702379899 L 841.2882313915948 113.32915797678191 L 841.0599203154406 113.38233951485485 L 840.8304442342679 113.43448631990829 L 840.5998260954932 113.48559317730519 L 840.3680889607385 113.53565497640241 L 840.135256003524 113.58466671106174 L 839.9013505069513 113.63262348015058 L 839.6663958613752 113.67952048803197 L 839.4304155620647 113.7253530450442 L 839.1934332068528 113.77011656796977 L 838.9554724937776 113.81380658049369 L 838.7165572187122 113.85641871365111 L 838.476711272985 113.89794870626423 L 838.2359586409905 113.93839240536839 L 837.9943233977915 113.9777457666274 L 837.7518297067109 114.0160048547379 L 837.5085018169157 114.05316584382298 L 837.2643640609921 114.0892250178147 L 837.0194408525123 114.12417877082571 L 836.773756683593 114.15802360750982 L 836.5273361224463 114.19075614341159 L 836.280203810923 114.2223731053047 L 836.0323844620485 114.25287133151929 L 835.7839028575509 114.28224777225817 L 835.5347838453837 114.31049948990176 L 835.2850523372406 114.3376236593018 L 835.0347333060641 114.36361756806399 L 834.7838517835489 114.38847861681909 L 834.5324328576381 114.41220431948295 L 834.2805016700148 114.43479230350509 L 834.0280834135879 114.45624031010593 L 833.7752033299724 114.47654619450265 L 833.5218867069664 114.49570792612376 L 833.2681588760207 114.51372358881206 L 833.0140452097071 114.5305913810163 L 832.7595711191805 114.5463096159713 L 832.5047620516378 114.56087672186668 L 832.2496434877736 114.57429124200398 L 831.9942409392315 114.58655183494237 L 831.7385799460535 114.59765727463277 L 831.4826860741261 114.60760645054046 L 831.226584912623 114.61639836775615 L 830.9703020714471 114.62403214709545 L 830.7138631786688 114.63050702518677 L 830.4572938779639 114.6358223545477 L 830.2006198260484 114.63997760364975 L 829.9438666901139 114.64297235697146 L 829.6870601452596 114.64480631504 L 829.4302258719264 114.64547929446107 L 829.1733895533274 114.64499122793733 L 828.9165768728805 114.64334216427498 L 828.6598135116396 114.64053226837903 L 828.4031251457271 114.63656182123674 L 828.1465374437655 114.63143121988952 L 827.8900760643112 114.62514097739319 L 827.6337666532885 114.6176917227668 L 827.3776348414249 114.60908420092959 L 827.121706241688 114.59931927262656 L 826.8660064467247 114.58839791434241 L 826.6105610263012 114.57632121820387 L 826.3553955247469 114.5630903918705 L 826.1005354583991 114.54870675841389 L 825.8460063130523 114.53317175618541 L 825.5918335414087 114.51648693867233 L 825.3380425605338 114.4986539743425 L 825.0846587493141 114.47967464647749 L 824.8317074459196 114.45955085299428 L 824.57921394527 114.43828460625544 L 824.3272034965047 114.41587803286792 L 824.0757013004586 114.3923333734704 L 823.8247325071419 114.36765298250918 L 823.5743222132247 114.3418393280028 L 823.3244954595276 114.3148949912952 L 823.0752772285181 114.2868226667976 L 822.8266924418112 114.25762516171906 L 822.5787659576787 114.22730539578573 L 822.3315225685624 114.19586640094897 L 822.084986998595 114.16331132108203 L 821.8391839011283 114.12964341166581 L 821.594137856267 114.09486603946317 L 821.3498733684114 114.05898268218235 L 821.1064148638069 114.02199692812917 L 820.863786688101 113.98391247584823 L 820.6220131039089 113.944733133753 L 820.3811182883877 113.90446281974506 L 820.1411263308183 113.86310556082225 L 819.9020612301963 113.82066549267599 L 819.6639468928327 113.77714685927774 L 819.4268071299626 113.73255401245454 L 819.1906656553649 113.68689141145396 L 818.95554608299 113.64016362249802 L 818.7214719245995 113.59237531832667 L 818.488466587414 113.54353127773052 L 818.2565533717732 113.49363638507293 L 818.0257554688051 113.44269562980158 L 817.796095958108 113.39071410594954 L 817.5675978054414 113.33769701162588 L 817.3402838604302 113.28364964849587 L 817.1141768542794 113.22857742125075 L 816.8892993975014 113.17248583706737 L 816.6656739776544 113.1153805050574 L 816.4433229570938 113.05726713570647 L 816.2222685707367 112.99815154030306 L 816.0025329238372 112.93803963035747 L 815.7841379897772 112.8769374170106 L 815.5671056078678 112.81485101043285 L 815.3514574811666 112.75178661921315 L 815.1372151743064 112.68775054973807 L 814.9244001113395 112.6227492055612 L 814.7130335735947 112.55678908676278 L 814.5031366975496 112.48987678929973 L 814.2947304727171 112.42201900434601 L 814.0878357395459 112.3532225176236 L 813.8824731873368 112.28349420872384 L 813.678663352174 112.2128410504195 L 813.4764266148712 112.14127010796754 L 813.2757831989336 112.06878853840256 L 813.0767531685354 111.99540358982111 L 812.8793564265142 111.9211226006569 L 812.6836127123792 111.84595299894696 L 812.4895416003391 111.76990230158879 L 812.297162497343 111.69297811358877 L 812.1064946411412 111.6151881273016 L 811.9175570983605 111.53654012166106 L 811.7303687625973 111.45704196140221 L 811.5449483525296 111.3767015962748 L 811.3613144100436 111.2955270602484 L 811.1794852983808 111.21352647070897 L 810.9994792003006 111.13070802764713 L 810.821314116263 111.04708001283818 L 810.6450078626277 110.96265078901389 L 810.4705780698735 110.8774287990263 L 810.2980421808338 110.79142256500339 L 810.1274174489542 110.70464068749688 L 809.9587209365656 110.61709184462221 L 809.7919695131784 110.52878479119072 L 809.6271798537962 110.43972835783416 L 809.4643684372476 110.34993145012163 L 809.3035515445385 110.2594030476691 L 809.1447452572243 110.16815220324135 L 808.9879654558013 110.0761880418468 L 808.8332278181189 109.98351975982494 L 808.6805478178121 109.89015662392677 L 808.5299407227535 109.79610797038806 L 808.3814215935274 109.70138320399579 L 808.2350052819227 109.60599179714767 L 808.0907064294486 109.50994328890488 L 807.94853946587 109.4132472840382 L 807.808518607765 109.31591345206758 L 807.6706578571027 109.21795152629505 L 807.5349709998432 109.11937130283158 L 807.4014716045591 109.02018263961737 L 807.2701730210787 108.92039545543608 L 807.141088379151 108.82001972892296 L 807.0142305871327 108.71906549756703 L 806.8896123306971 108.6175428567073 L 806.7672460715662 108.51546195852325 L 806.6471440462637 108.41283301101961 L 806.5293182648923 108.30966627700563 L 806.4137805099317 108.20597207306875 L 806.3005423350612 108.10176076854292 L 806.1896150640041 107.99704278447177 L 806.0810097893948 107.89182859256644 L 805.9747373716705 107.78612871415844 L 805.8708084379841 107.67995371914753 L 805.7692333811427 107.57331422494474 L 805.6700223585672 107.4662208954106 L 805.5731852912771 107.35868443978885 L 805.4787318628986 107.2507156116354 L 805.3866715186957 107.14232520774314 L 805.2970134646262 107.0335240670621 L 805.2097666664206 106.92432306961568 L 805.1249398486863 106.81473313541265 L 805.042541494034 106.70476522335508 L 804.9625798422309 106.59443033014256 L 804.8850628893754 106.48373948917244 L 804.8099983870981 106.37270376943658 L 804.7373938417867 106.26133427441445 L 804.6672565138354 106.14964214096271 L 804.5995934169182 106.03763853820165 L 804.5344113172888 105.92533466639821 L 804.4717167331025 105.81274175584596 L 804.4115159337658 105.69987106574217 L 804.3538149393082 105.58673388306175 L 804.2986195197813 105.47334152142872 L 804.2459351946808 105.35970531998473 L 804.1957672323955 105.24583664225523 L 804.1481206496796 105.1317468750131 L 804.103000211152 105.01744742714001 L 804.0604104288187 104.90294972848548 L 804.0203555616225 104.78826522872397 L 803.9828396150168 104.67340539620987 L 803.9478663405649 104.55838171683074 L 803.9154392355651 104.44320569285864 L 803.885561542701 104.3278888418 L 803.8582362497169 104.21244269524384 L 803.8334660891194 104.09687879770858 L 803.8112535379038 103.9812087054877 L 803.7916008173067 103.86544398549403 L 803.7745098925841 103.74959621410306 L 803.7599824728138 103.63367697599544 L 803.7480200107259 103.51769786299836 L 803.7386237025565 103.40167047292647 L 803.7317944879288 103.28560640842208 L 803.7275330497584 103.16951727579495 L 803.7258398141856 103.05341468386156" stroke-miterlimit="10" stroke-width="2.990598758" stroke-dasharray=""/></g><g><g/><text fill="black" stroke="none" font-family="sans-serif" font-size="11pt" font-style="normal" font-weight="normal" text-decoration="normal" x="769.2431051056867" y="133.521438666" text-anchor="start" dominant-baseline="alphabetic">Persistent Storage</text></g></g><g><g><g><rect fill="white" stroke="none" x="363.9039836486165" y="173.982480686" width="72.74419439529296" height="22.86928462"/></g><text fill="black" stroke="none" font-family="sans-serif" font-size="11pt" font-style="normal" font-weight="normal" text-decoration="normal" x="366.5427472586165" y="189.81506234600002" text-anchor="start" dominant-baseline="alphabetic">Username</text></g><g><path fill="none" stroke="black" paint-order="fill stroke markers" d=" M 231.88706996234373 196.851765306 L 565.7331321635155 196.851765306" stroke-miterlimit="10" stroke-width="1.4659797833333332" stroke-dasharray=""/><g transform="translate(568.6650917301822,196.851765306) translate(-568.6650917301822,-196.851765306)"><path fill="none" stroke="black" paint-order="fill stroke markers" d=" M 554.0052938968489 189.52186638933333 L 567.1991119468489 196.851765306 L 554.0052938968489 204.18166422266668" stroke-miterlimit="10" stroke-width="1.4659797833333332"/></g></g><g><g><rect fill="white" stroke="none" x="252.70398288567705" y="223.239401406" width="197.94419897292968" height="22.86928462"/></g><text fill="black" stroke="none" font-family="sans-serif" font-size="11pt" font-style="normal" font-weight="normal" text-decoration="normal" x="255.34274649567706" y="239.07198306600003" text-anchor="start" dominant-baseline="alphabetic">Generate keypair PubU,PrivU</text></g><g><path fill="none" stroke="black" paint-order="fill stroke markers" d=" M 231.88706996234373 246.108686026 L 302.25409956234375 246.108686026 L 302.25409956234375 263.700443426 L 234.8190295290104 263.700443426" stroke-miterlimit="10" stroke-width="1.4659797833333332" stroke-dasharray=""/><g transform="translate(231.88706996234373,263.700443426) translate(-231.88706996234373,-263.700443426)"><path fill="black" stroke="none" paint-order="stroke fill markers" d=" M 246.54686779567706 256.37054450933334 L 231.88706996234373 263.700443426 L 246.54686779567706 271.03034234266664 Z"/></g></g><g><g><rect fill="white" stroke="none" x="589.4820046535156" y="223.239401406" width="196.34419286941406" height="22.86928462"/></g><text fill="black" stroke="none" font-family="sans-serif" font-size="11pt" font-style="normal" font-weight="normal" text-decoration="normal" x="592.1207682635155" y="239.07198306600003" text-anchor="start" dominant-baseline="alphabetic">Generate keypair PubS,PrivS</text></g><g><path fill="none" stroke="black" paint-order="fill stroke markers" d=" M 568.6650917301822 246.108686026 L 639.0321213301822 246.108686026 L 639.0321213301822 263.700443426 L 571.5970512968489 263.700443426" stroke-miterlimit="10" stroke-width="1.4659797833333332" stroke-dasharray=""/><g transform="translate(568.6650917301822,263.700443426) translate(-568.6650917301822,-263.700443426)"><path fill="black" stroke="none" paint-order="stroke fill markers" d=" M 583.3248895635155 256.37054450933334 L 568.6650917301822 263.700443426 L 583.3248895635155 271.03034234266664 Z"/></g></g><g><g><rect fill="white" stroke="none" x="252.70398288567705" y="290.088079526" width="165.44419897292968" height="22.86928462"/></g><text fill="black" stroke="none" font-family="sans-serif" font-size="11pt" font-style="normal" font-weight="normal" text-decoration="normal" x="255.34274649567706" y="305.920661186" text-anchor="start" dominant-baseline="alphabetic">Choose password PwdU</text></g><g><path fill="none" stroke="black" paint-order="fill stroke markers" d=" M 231.88706996234373 312.957364146 L 302.25409956234375 312.957364146 L 302.25409956234375 330.549121546 L 234.8190295290104 330.549121546" stroke-miterlimit="10" stroke-width="1.4659797833333332" stroke-dasharray=""/><g transform="translate(231.88706996234373,330.549121546) translate(-231.88706996234373,-330.549121546)"><path fill="black" stroke="none" paint-order="stroke fill markers" d=" M 246.54686779567706 323.21922262933333 L 231.88706996234373 330.549121546 L 246.54686779567706 337.87902046266663 Z"/></g></g><g><g><rect fill="white" stroke="none" x="589.4820046535156" y="290.088079526" width="149.24418676589843" height="22.86928462"/></g><text fill="black" stroke="none" font-family="sans-serif" font-size="11pt" font-style="normal" font-weight="normal" text-decoration="normal" x="592.1207682635155" y="305.920661186" text-anchor="start" dominant-baseline="alphabetic">Choose OPRF key kU</text></g><g><path fill="none" stroke="black" paint-order="fill stroke markers" d=" M 568.6650917301822 312.957364146 L 639.0321213301822 312.957364146 L 639.0321213301822 330.549121546 L 571.5970512968489 330.549121546" stroke-miterlimit="10" stroke-width="1.4659797833333332" stroke-dasharray=""/><g transform="translate(568.6650917301822,330.549121546) translate(-568.6650917301822,-330.549121546)"><path fill="black" stroke="none" paint-order="stroke fill markers" d=" M 583.3248895635155 323.21922262933333 L 568.6650917301822 330.549121546 L 583.3248895635155 337.87902046266663 Z"/></g></g><g><g><rect fill="white" stroke="none" x="97.0778009458789" y="356.936757646" width="81.71086157058593" height="22.86928462"/></g><text fill="black" stroke="none" font-family="sans-serif" font-size="11pt" font-style="normal" font-weight="normal" text-decoration="normal" x="99.7165645558789" y="372.769339306" text-anchor="start" dominant-baseline="alphabetic">Save PwdU</text></g><g><path fill="none" stroke="black" paint-order="fill stroke markers" d=" M 231.88706996234373 379.80604226599996 L 46.91135306666666 379.80604226599996" stroke-miterlimit="10" stroke-width="1.4659797833333332" stroke-dasharray=""/><g transform="translate(43.9793935,379.80604226599996) translate(-43.9793935,-379.80604226599996)"><path fill="black" stroke="none" paint-order="stroke fill markers" d=" M 58.63919133333333 372.4761433493333 L 43.9793935 379.80604226599996 L 58.63919133333333 387.1359411826666 Z"/></g></g><g><g><rect fill="white" stroke="none" x="640.2986703029296" y="356.936757646" width="117.47752416824218" height="22.86928462"/></g><text fill="black" stroke="none" font-family="sans-serif" font-size="11pt" font-style="normal" font-weight="normal" text-decoration="normal" x="642.9374339129296" y="372.769339306" text-anchor="start" dominant-baseline="alphabetic">Save PubS,PrivS</text></g><g><path fill="none" stroke="black" paint-order="fill stroke markers" d=" M 568.6650917301822 379.80604226599996 L 826.4778134772524 379.80604226599996" stroke-miterlimit="10" stroke-width="1.4659797833333332" stroke-dasharray=""/><g transform="translate(829.4097730439191,379.80604226599996) translate(-829.4097730439191,-379.80604226599996)"><path fill="black" stroke="none" paint-order="stroke fill markers" d=" M 814.7499752105858 372.4761433493333 L 829.4097730439191 379.80604226599996 L 814.7499752105858 387.1359411826666 Z"/></g></g><path fill="white" stroke="black" paint-order="fill stroke markers" d=" M 474.5199611431314 406.193678366 L 646.977640657233 406.193678366 L 662.810222317233 422.026260026 L 662.810222317233 446.65472038599995 L 474.5199611431314 446.65472038599995 L 474.5199611431314 406.193678366 M 646.977640657233 406.193678366 L 646.977640657233 422.026260026 L 662.810222317233 422.026260026" stroke-miterlimit="10" stroke-width="1.4659797833333332" stroke-dasharray=""/><g><text fill="black" stroke="none" font-family="sans-serif" font-size="11pt" font-style="normal" font-weight="normal" text-decoration="normal" x="499.14842150313143" y="430.82213872599993" text-anchor="start" dominant-baseline="alphabetic">kU is unique per-user</text></g><path fill="white" stroke="black" paint-order="fill stroke markers" d=" M 426.93663289606116 473.04235648599996 L 694.5609689043033 473.04235648599996 L 710.3935505643033 488.874938146 L 710.3935505643033 513.5033985059999 L 426.93663289606116 513.5033985059999 L 426.93663289606116 473.04235648599996 M 694.5609689043033 473.04235648599996 L 694.5609689043033 488.874938146 L 710.3935505643033 488.874938146" stroke-miterlimit="10" stroke-width="1.4659797833333332" stroke-dasharray=""/><g><text fill="black" stroke="none" font-family="sans-serif" font-size="11pt" font-style="normal" font-weight="normal" text-decoration="normal" x="451.5650932560611" y="497.6708168459999" text-anchor="start" dominant-baseline="alphabetic">Keypair can be used for many users</text></g><g><g><rect fill="white" stroke="none" x="379.7373176177327" y="539.891034606" width="41.07752645706054" height="22.86928462"/></g><text fill="black" stroke="none" font-family="sans-serif" font-size="11pt" font-style="normal" font-weight="normal" text-decoration="normal" x="382.3760812277327" y="555.7236162659999" text-anchor="start" dominant-baseline="alphabetic">PubS</text></g><g><path fill="none" stroke="black" paint-order="fill stroke markers" d=" M 568.6650917301822 562.760319226 L 234.8190295290104 562.760319226" stroke-miterlimit="10" stroke-width="1.4659797833333332" stroke-dasharray="7.0367029599999995"/><g transform="translate(231.88706996234373,562.760319226) translate(-231.88706996234373,-562.760319226)"><path fill="black" stroke="none" paint-order="stroke fill markers" d=" M 246.54686779567706 555.4304203093333 L 231.88706996234373 562.760319226 L 246.54686779567706 570.0902181426667 Z"/></g></g><path fill="white" stroke="black" paint-order="fill stroke markers" d=" M 216.05448830234374 589.1479553260001 L 568.6650917301822 589.1479553260001 L 584.4976733901822 604.9805369860001 L 584.4976733901822 699.976026946 L 216.05448830234374 699.976026946 L 216.05448830234374 589.1479553260001 M 568.6650917301822 589.1479553260001 L 568.6650917301822 604.9805369860001 L 584.4976733901822 604.9805369860001" stroke-miterlimit="10" stroke-width="1.4659797833333332" stroke-dasharray=""/><g><text fill="black" stroke="none" font-family="sans-serif" font-size="11pt" font-style="normal" font-weight="normal" text-decoration="normal" x="240.75941824860672" y="613.7764156860001" text-anchor="start" dominant-baseline="alphabetic">DH-OPRF parameters</text><text fill="black" stroke="none" font-family="sans-serif" font-size="11pt" font-style="normal" font-weight="normal" text-decoration="normal" x="240.75941824860672" y="631.3681730860001" text-anchor="start" dominant-baseline="alphabetic"> Hash function H</text><text fill="black" stroke="none" font-family="sans-serif" font-size="11pt" font-style="normal" font-weight="normal" text-decoration="normal" x="240.75941824860672" y="648.9599304860001" text-anchor="start" dominant-baseline="alphabetic"> Cyclic group G of prime order q</text><text fill="black" stroke="none" font-family="sans-serif" font-size="11pt" font-style="normal" font-weight="normal" text-decoration="normal" x="240.75941824860672" y="666.5516878860001" text-anchor="start" dominant-baseline="alphabetic"> Generator g of G</text><text fill="black" stroke="none" font-family="sans-serif" font-size="11pt" font-style="normal" font-weight="normal" text-decoration="normal" x="240.75941824860672" y="684.1434452860001" text-anchor="start" dominant-baseline="alphabetic"> Hash function H' mapping arbitrary strings into G</text></g><g><g><rect fill="white" stroke="none" x="252.70398288567705" y="726.3636630459999" width="183.34419286941406" height="22.86928462"/></g><text fill="black" stroke="none" font-family="sans-serif" font-size="11pt" font-style="normal" font-weight="normal" text-decoration="normal" x="255.34274649567706" y="742.1962447059999" text-anchor="start" dominant-baseline="alphabetic">Choose random r in [0..q-1]</text></g><g><path fill="none" stroke="black" paint-order="fill stroke markers" d=" M 231.88706996234373 749.232947666 L 302.25409956234375 749.232947666 L 302.25409956234375 766.824705066 L 234.8190295290104 766.824705066" stroke-miterlimit="10" stroke-width="1.4659797833333332" stroke-dasharray=""/><g transform="translate(231.88706996234373,766.824705066) translate(-231.88706996234373,-766.824705066)"><path fill="black" stroke="none" paint-order="stroke fill markers" d=" M 246.54686779567706 759.4948061493333 L 231.88706996234373 766.824705066 L 246.54686779567706 774.1546039826667 Z"/></g></g><g><g><rect fill="white" stroke="none" x="327.5706515868489" y="793.212341166" width="145.41085851882812" height="22.86928462"/></g><text fill="black" stroke="none" font-family="sans-serif" font-size="11pt" font-style="normal" font-weight="normal" text-decoration="normal" x="330.2094151968489" y="809.044922826" text-anchor="start" dominant-baseline="alphabetic">alpha = H'(PwdU)*g^r</text></g><g><path fill="none" stroke="black" paint-order="fill stroke markers" d=" M 231.88706996234373 816.081625786 L 565.7331321635155 816.081625786" stroke-miterlimit="10" stroke-width="1.4659797833333332" stroke-dasharray=""/><g transform="translate(568.6650917301822,816.081625786) translate(-568.6650917301822,-816.081625786)"><path fill="black" stroke="none" paint-order="stroke fill markers" d=" M 554.0052938968489 808.7517268693333 L 568.6650917301822 816.081625786 L 554.0052938968489 823.4115247026667 Z"/></g></g><g><g><rect fill="white" stroke="none" x="344.8039851744954" y="842.469261886" width="76.77752722" height="22.86928462"/></g><g><rect fill="white" stroke="none" x="344.8039851744954" y="860.061019286" width="110.94419134353515" height="22.86928462"/></g><text fill="black" stroke="none" font-family="sans-serif" font-size="11pt" font-style="normal" font-weight="normal" text-decoration="normal" x="347.4427487844954" y="858.301843546" text-anchor="start" dominant-baseline="alphabetic">vU = g^kU,</text><text fill="black" stroke="none" font-family="sans-serif" font-size="11pt" font-style="normal" font-weight="normal" text-decoration="normal" x="347.4427487844954" y="875.893600946" text-anchor="start" dominant-baseline="alphabetic">beta = alpha^kU</text></g><g><path fill="none" stroke="black" paint-order="fill stroke markers" d=" M 568.6650917301822 882.9303039060001 L 234.8190295290104 882.9303039060001" stroke-miterlimit="10" stroke-width="1.4659797833333332" stroke-dasharray="7.0367029599999995"/><g transform="translate(231.88706996234373,882.9303039060001) translate(-231.88706996234373,-882.9303039060001)"><path fill="black" stroke="none" paint-order="stroke fill markers" d=" M 246.54686779567706 875.6004049893334 L 231.88706996234373 882.9303039060001 L 246.54686779567706 890.2602028226668 Z"/></g></g><g><g><rect fill="white" stroke="none" x="252.70398288567705" y="909.317940006" width="223.1108554670703" height="22.86928462"/></g><text fill="black" stroke="none" font-family="sans-serif" font-size="11pt" font-style="normal" font-weight="normal" text-decoration="normal" x="255.34274649567706" y="925.1505216659999" text-anchor="start" dominant-baseline="alphabetic">RwdU = H(PwdU, vU, beta*v^{-r})</text></g><g><path fill="none" stroke="black" paint-order="fill stroke markers" d=" M 231.88706996234373 932.187224626 L 302.25409956234375 932.187224626 L 302.25409956234375 949.778982026 L 234.8190295290104 949.778982026" stroke-miterlimit="10" stroke-width="1.4659797833333332" stroke-dasharray=""/><g transform="translate(231.88706996234373,949.778982026) translate(-231.88706996234373,-949.778982026)"><path fill="black" stroke="none" paint-order="stroke fill markers" d=" M 246.54686779567706 942.4490831093333 L 231.88706996234373 949.778982026 L 246.54686779567706 957.1088809426667 Z"/></g></g><g><g><rect fill="white" stroke="none" x="252.70398288567702" y="976.166618126" width="295.1441959211719" height="22.86928462"/></g><text fill="black" stroke="none" font-family="sans-serif" font-size="11pt" font-style="normal" font-weight="normal" text-decoration="normal" x="255.34274649567703" y="991.999199786" text-anchor="start" dominant-baseline="alphabetic">EnvU = AuthEnc(RwdU; PrivU, PubU, PubS)</text></g><g><path fill="none" stroke="black" paint-order="fill stroke markers" d=" M 231.88706996234373 999.035902746 L 565.7331321635155 999.035902746" stroke-miterlimit="10" stroke-width="1.4659797833333332" stroke-dasharray=""/><g transform="translate(568.6650917301822,999.035902746) translate(-568.6650917301822,-999.035902746)"><path fill="black" stroke="none" paint-order="stroke fill markers" d=" M 554.0052938968489 991.7060038293333 L 568.6650917301822 999.035902746 L 554.0052938968489 1006.3658016626667 Z"/></g></g><path fill="white" stroke="black" paint-order="fill stroke markers" d=" M 52.77527219999999 1025.4235388460002 L 395.1662860646874 1025.4235388460002 L 410.99886772468744 1041.2561205060001 L 410.99886772468744 1065.884580866 L 52.77527219999999 1065.884580866 L 52.77527219999999 1025.4235388460002 M 395.1662860646874 1025.4235388460002 L 395.1662860646874 1041.2561205060001 L 410.99886772468744 1041.2561205060001" stroke-miterlimit="10" stroke-width="1.4659797833333332" stroke-dasharray=""/><g><text fill="black" stroke="none" font-family="sans-serif" font-size="11pt" font-style="normal" font-weight="normal" text-decoration="normal" x="77.40373255999998" y="1050.051999206" text-anchor="start" dominant-baseline="alphabetic">AuthEnc is an authenticated encryption function</text></g><g><g><rect fill="white" stroke="none" x="379.3373179992024" y="1092.272216966" width="41.87752569412109" height="22.86928462"/></g><text fill="black" stroke="none" font-family="sans-serif" font-size="11pt" font-style="normal" font-weight="normal" text-decoration="normal" x="381.9760816092024" y="1108.104798626" text-anchor="start" dominant-baseline="alphabetic">PubU</text></g><g><path fill="none" stroke="black" paint-order="fill stroke markers" d=" M 231.88706996234373 1115.141501586 L 565.7331321635155 1115.141501586" stroke-miterlimit="10" stroke-width="1.4659797833333332" stroke-dasharray=""/><g transform="translate(568.6650917301822,1115.141501586) translate(-568.6650917301822,-1115.141501586)"><path fill="black" stroke="none" paint-order="stroke fill markers" d=" M 554.0052938968489 1107.8116026693333 L 568.6650917301822 1115.141501586 L 554.0052938968489 1122.4714005026667 Z"/></g></g><g><g><rect fill="white" stroke="none" x="589.4820046535156" y="1141.529137686" width="219.1108554670703" height="22.86928462"/></g><text fill="black" stroke="none" font-family="sans-serif" font-size="11pt" font-style="normal" font-weight="normal" text-decoration="normal" x="592.1207682635155" y="1157.361719346" text-anchor="start" dominant-baseline="alphabetic">Username {EnvU, PubU, kU, vU}</text></g><g><path fill="none" stroke="black" paint-order="fill stroke markers" d=" M 568.6650917301822 1164.398422306 L 826.4778134772524 1164.398422306" stroke-miterlimit="10" stroke-width="1.4659797833333332" stroke-dasharray=""/><g transform="translate(829.4097730439191,1164.398422306) translate(-829.4097730439191,-1164.398422306)"><path fill="black" stroke="none" paint-order="stroke fill markers" d=" M 814.7499752105858 1157.0685233893332 L 829.4097730439191 1164.398422306 L 814.7499752105858 1171.7283212226666 Z"/></g></g><g><g><rect fill="white" stroke="none" x="325.3039813597981" y="1190.786058406" width="149.94419897292968" height="22.86928462"/></g><text fill="black" stroke="none" font-family="sans-serif" font-size="11pt" font-style="normal" font-weight="normal" text-decoration="normal" x="327.9427449697981" y="1206.618640066" text-anchor="start" dominant-baseline="alphabetic">Registration Complete</text></g><g><path fill="none" stroke="black" paint-order="fill stroke markers" d=" M 568.6650917301822 1213.6553430259999 L 234.8190295290104 1213.6553430259999" stroke-miterlimit="10" stroke-width="1.4659797833333332" stroke-dasharray="7.0367029599999995"/><g transform="translate(231.88706996234373,1213.6553430259999) translate(-231.88706996234373,-1213.6553430259999)"><path fill="black" stroke="none" paint-order="stroke fill markers" d=" M 246.54686779567706 1206.3254441093331 L 231.88706996234373 1213.6553430259999 L 246.54686779567706 1220.9852419426666 Z"/></g></g></g><g/><g/><g/><g/></g></svg>